<svg width="116" height="112" viewBox="0 0 116 112" fill="none" xmlns="http://www.w3.org/2000/svg">
<path fill-rule="evenodd" clip-rule="evenodd" d="M88.16 23.8047V33.1381C98.7485 35.2987 106.72 44.7113 106.72 56C106.72 67.2887 98.7485 76.7013 88.16 78.8619V88.1953C103.88 85.9133 116 72.4407 116 56C116 39.5593 103.88 26.0867 88.16 23.8047ZM0 37.3333V74.6667C0 79.8187 4.15744 84 9.28 84H23.2V28H9.28C4.15744 28 0 32.1813 0 37.3333ZM64.96 0L32.48 21.7793V90.2207L64.96 112C70.0826 112 74.24 107.819 74.24 102.667V9.33333C74.24 4.18133 70.0826 0 64.96 0Z" fill="white"/>
</svg>
