<svg width="512" height="512" viewBox="0 0 512 512" fill="none" xmlns="http://www.w3.org/2000/svg">
<g clip-path="url(#clip0_111_68)">
<path d="M358.136 149.495C350.495 149.495 344.299 155.691 344.299 163.332V224.592H167.674V163.332C167.674 151.165 177.573 141.267 189.741 141.267H213.096C220.738 141.267 226.933 135.071 226.933 127.43V27.675H285.042V127.43C285.042 135.071 291.238 141.267 298.879 141.267C306.52 141.267 312.716 135.071 312.716 127.43V27.675H314.796C322.437 27.675 328.633 21.479 328.633 13.838C328.633 6.197 322.437 0 314.796 0H298.879H213.095H197.178C189.536 0 183.341 6.196 183.341 13.837C183.341 21.478 189.536 27.674 197.178 27.674H199.258V113.592H189.741C162.314 113.592 140 135.905 140 163.332V238.429V347.745V464.111C140 490.517 161.483 511.998 187.887 511.998C195.529 511.998 201.724 505.802 201.724 498.161C201.724 490.52 195.529 484.324 187.887 484.324C176.741 484.324 167.675 475.256 167.675 464.112V361.583H344.3V464.111C344.3 475.257 335.232 484.323 324.089 484.323C312.943 484.323 303.877 475.255 303.877 464.111C303.877 456.47 297.681 450.274 290.04 450.274C282.399 450.274 276.203 456.47 276.203 464.111C276.203 475.257 267.135 484.323 255.991 484.323C244.846 484.323 235.779 475.255 235.779 464.111C235.779 456.47 229.584 450.274 221.942 450.274C214.3 450.274 208.105 456.47 208.105 464.111C208.105 490.517 229.588 511.998 255.992 511.998C269.299 511.998 281.355 506.543 290.042 497.751C298.729 506.543 310.784 511.998 324.092 511.998C350.497 511.998 371.978 490.517 371.978 464.111V347.746V238.43V163.333C371.974 155.692 365.777 149.495 358.136 149.495ZM167.674 333.91V252.269H344.299V333.91H167.674Z" fill="white"/>
</g>
<defs>
<clipPath id="clip0_111_68">
<rect width="511.999" height="511.999" fill="white"/>
</clipPath>
</defs>
</svg>
