<svg width="72" height="72" viewBox="0 0 72 72" fill="none" xmlns="http://www.w3.org/2000/svg">
<path d="M4 9.68889C4 7.6976 4 6.70194 4.38752 5.94137C4.72843 5.27236 5.27236 4.72843 5.94137 4.38752C6.70194 4 7.6976 4 9.68889 4H62.3111C64.3026 4 65.2981 4 66.0587 4.38752C66.7278 4.72843 67.2715 5.27236 67.6124 5.94137C68 6.70194 68 7.6976 68 9.68889V15.8658C68 16.7355 68 17.1703 67.9019 17.5795C67.8148 17.9423 67.6711 18.2891 67.4759 18.6072C67.2562 18.966 66.9486 19.2735 66.3339 19.8885L44.7772 41.445C44.1625 42.0597 43.8549 42.3673 43.6352 42.726C43.44 43.0443 43.2964 43.3909 43.2092 43.754C43.1111 44.1632 43.1111 44.598 43.1111 45.4674V53.7778L28.8889 68V45.4674C28.8889 44.598 28.8889 44.1632 28.7906 43.754C28.7035 43.3909 28.5599 43.0443 28.3649 42.726C28.1451 42.3673 27.8376 42.0597 27.2226 41.445L5.66624 19.8885C5.05131 19.2735 4.74382 18.966 4.52395 18.6072C4.329 18.2891 4.18535 17.9423 4.09824 17.5795C4 17.1703 4 16.7355 4 15.8658V9.68889Z" stroke="white" stroke-width="8" stroke-linecap="round" stroke-linejoin="round"/>
</svg>
