<svg width="150" height="150" viewBox="0 0 150 150" fill="none" xmlns="http://www.w3.org/2000/svg">
<path d="M83.0163 8.1604V24.6887C83.0163 30.3387 80.3969 33.0566 74.9416 33.0566C69.4863 33.0566 66.8668 30.3387 66.8668 24.6887V8.1604C66.8668 2.7179 69.4863 0 74.9416 0C80.3969 0 83.0163 2.7179 83.0163 8.1604ZM99.3894 29.917L109.434 16.3208C112.71 12.1368 116.859 11.3 121.001 14.2255C125.143 17.1509 125.583 20.9198 122.314 25.5255L112.27 38.9142C108.994 43.5199 105.068 43.9349 100.703 41.0095C96.5534 38.0774 96.1203 34.5227 99.3894 29.9237V29.917ZM40.4493 16.5283L50.7104 29.917C53.9864 34.5227 53.5463 38.0774 49.1806 41.0028C45.0315 44.1425 41.1059 43.5132 37.8299 38.9075L27.5688 25.5188C24.2928 20.9131 24.7329 17.3584 29.0986 14.433C33.2477 11.2933 37.1733 11.9226 40.4493 16.5283ZM74.9416 42.4689C93.7175 42.4689 108.994 57.1161 108.994 75.1038C108.994 92.8839 93.7105 107.324 74.9416 107.324C56.1727 107.324 40.8894 92.8906 40.8894 75.1038C40.8894 57.1094 56.1727 42.4689 74.9416 42.4689ZM11.2028 47.0746L27.7923 52.0953C33.2477 53.7689 35.2175 56.9086 33.4712 61.9293C31.9415 66.9501 28.2324 68.4161 22.5535 66.7425L6.39706 61.7218C0.941719 60.0482 -1.02807 56.701 0.50166 51.6803C2.24793 46.8671 5.74745 45.401 11.2028 47.0746ZM122.307 52.0953L138.68 47.0746C144.359 45.401 147.852 46.8671 149.375 51.6803C151.121 56.701 149.158 60.0482 143.479 61.5143L127.323 66.7425C121.867 68.4161 118.375 66.9501 116.629 61.9293C115.099 56.9086 116.845 53.7689 122.307 52.0953ZM74.9416 93.0981C85.4192 93.0981 93.934 84.9377 93.934 75.1038C93.934 65.0623 85.4192 56.9019 74.9416 56.9019C64.464 56.9019 56.1657 65.0623 56.1657 75.1038C56.1657 84.9377 64.464 93.0981 74.9416 93.0981ZM6.39706 88.2849L22.7701 83.2642C28.2254 81.5906 31.9415 82.8424 33.4642 87.8699C35.2105 92.8906 33.2477 96.0303 27.7854 97.7038L11.1958 102.932C5.74047 104.606 2.24793 103.14 0.50166 98.1189C-1.02807 93.0981 0.941719 89.9585 6.39706 88.2849ZM127.33 83.2642L143.703 88.2849C149.158 89.9585 151.128 93.0981 149.382 98.1189C147.852 103.14 144.359 104.606 138.687 102.932L122.314 97.7038C116.635 96.0303 115.113 92.8906 116.636 87.8699C118.382 82.8491 121.874 81.5906 127.33 83.2642ZM27.5758 124.267L37.8369 111.086C41.1129 106.48 45.0385 105.858 49.1876 108.99C53.5533 111.923 53.9934 115.477 50.7174 120.076L40.4563 133.257C37.1803 137.863 33.2547 138.7 28.889 135.768C24.7399 132.836 24.3068 128.873 27.5758 124.267ZM112.27 111.086L122.314 124.267C125.59 128.873 125.15 132.842 121.001 135.775C116.852 138.707 112.703 137.656 109.434 133.472L99.3894 120.083C96.1134 115.477 96.5534 111.923 100.703 108.997C105.068 106.065 109.001 106.48 112.27 111.086ZM83.0163 125.104V141.632C83.0163 147.282 80.3969 150 74.9416 150C69.4863 150 66.8668 147.282 66.8668 141.632V125.104C66.8668 119.454 69.4863 116.736 74.9416 116.736C80.3969 116.736 83.0163 119.454 83.0163 125.104Z" fill="white"/>
</svg>
