<svg width="32" height="32" viewBox="0 0 32 32" fill="none" xmlns="http://www.w3.org/2000/svg">
<circle cx="16" cy="16" r="15.5" stroke="white"/>
<path d="M12.2538 14.5947C12.375 14.2717 12.5368 13.9686 12.733 13.6915C11.6862 13.3866 10.532 13.1428 9.5 13.1428C8.08791 13.1428 6.39148 13.3884 5.08356 13.6228C4.8304 13.6682 4.58966 13.7136 4.36581 13.7573C4.4817 13.3748 4.6269 12.9373 4.80553 12.4663C5.41916 10.8485 6.40132 8.90576 7.88568 7.42139C9.0158 6.29126 10.6208 5.42297 12.0028 4.82874C12.4927 4.61816 12.9439 4.44641 13.3203 4.31299L14.4622 12.3063C14.7688 12.1785 15.0946 12.0878 15.4342 12.0397L14.1429 3C14.1429 3 13.7688 3.10022 13.1762 3.3042C11.7271 3.80286 8.97092 4.922 7.17857 6.71423C4.8554 9.03748 3.71841 12.3096 3.25886 13.9869C3.07552 14.6561 3 15.0714 3 15.0714C3 15.0714 3.41839 14.9708 4.0739 14.8358C5.40942 14.5607 7.72918 14.1428 9.5 14.1428C10.3482 14.1428 11.3223 14.3345 12.2538 14.5947Z" fill="white"/>
<path d="M17.4052 12.2538C17.7282 12.375 18.0314 12.5369 18.3085 12.733C18.6135 11.6863 18.8571 10.532 18.8571 9.5C18.8571 8.08789 18.6116 6.39148 18.3772 5.08362C18.3318 4.83044 18.2864 4.5896 18.2427 4.36584C18.6253 4.48169 19.0628 4.62695 19.5337 4.80554C21.1515 5.41919 23.0943 6.40137 24.5786 7.88562C25.7087 9.01575 26.577 10.6207 27.1712 12.0028C27.3819 12.4927 27.5536 12.9438 27.687 13.3203L19.6937 14.4623C19.8215 14.7688 19.9122 15.0946 19.9603 15.4342L29 14.1428C29 14.1428 28.8998 13.7688 28.6959 13.1761C28.1972 11.7271 27.0781 8.97095 25.2857 7.17859C22.9625 4.85535 19.6904 3.71838 18.0131 3.25891C17.3439 3.07556 16.9286 3 16.9286 3C16.9286 3 17.0292 3.41833 17.1642 4.07385C17.4393 5.40942 17.8571 7.72913 17.8571 9.5C17.8571 10.3481 17.6655 11.3223 17.4052 12.2538Z" fill="white"/>
<path d="M19.7462 17.4053C19.625 17.7283 19.4632 18.0314 19.267 18.3085C20.3138 18.6134 21.468 18.8572 22.5 18.8572C23.9121 18.8572 25.6085 18.6116 26.9164 18.3772C27.1696 18.3318 27.4103 18.2864 27.6342 18.2427C27.5183 18.6252 27.3731 19.0629 27.1945 19.5337C26.5808 21.1515 25.5987 23.0942 24.1143 24.5786C22.9842 25.7087 21.3792 26.577 19.9972 27.1713C19.5073 27.3818 19.0561 27.5536 18.6797 27.687L17.5378 19.6937C17.2312 19.8215 16.9054 19.9122 16.5658 19.9603L17.8571 29C17.8571 29 18.2312 28.8998 18.8238 28.6958C20.2729 28.1971 23.0291 27.078 24.8214 25.2858C27.1446 22.9625 28.2816 19.6904 28.7411 18.0131C28.9245 17.3439 29 16.9286 29 16.9286C29 16.9286 28.5816 17.0292 27.9261 17.1643C26.5906 17.4393 24.2708 17.8572 22.5 17.8572C21.6518 17.8572 20.6777 17.6655 19.7462 17.4053Z" fill="white"/>
<path d="M14.5948 19.7462C14.2718 19.625 13.9686 19.4631 13.6915 19.267C13.3865 20.3137 13.1429 21.468 13.1429 22.5C13.1429 23.9121 13.3884 25.6085 13.6228 26.9165C13.6682 27.1696 13.7136 27.4104 13.7573 27.6342C13.3747 27.5183 12.9372 27.373 12.4663 27.1945C10.8485 26.5808 8.90575 25.5986 7.42139 24.1144C6.29127 22.9843 5.42302 21.3793 4.82878 19.9972C4.61811 19.5073 4.44639 19.0562 4.31303 18.6797L12.3063 17.5377C12.1785 17.2312 12.0878 16.9054 12.0397 16.5658L3 17.8572C3 17.8572 3.10018 18.2312 3.30414 18.8239C3.80282 20.2729 4.92194 23.0291 6.71429 24.8214C9.03746 27.1447 12.3096 28.2816 13.9869 28.7411C14.6561 28.9244 15.0714 29 15.0714 29C15.0714 29 14.9708 28.5817 14.8358 27.9261C14.5607 26.5906 14.1429 24.2709 14.1429 22.5C14.1429 21.6519 14.3345 20.6777 14.5948 19.7462Z" fill="white"/>
<path fill-rule="evenodd" clip-rule="evenodd" d="M16 19C17.6569 19 19 17.6569 19 16C19 14.3431 17.6569 13 16 13C14.3431 13 13 14.3431 13 16C13 17.6569 14.3431 19 16 19ZM16 20C18.2091 20 20 18.2091 20 16C20 13.7909 18.2091 12 16 12C13.7909 12 12 13.7909 12 16C12 18.2091 13.7909 20 16 20Z" fill="white"/>
</svg>
