<svg width="32" height="32" viewBox="0 0 32 32" fill="none" xmlns="http://www.w3.org/2000/svg">
<circle cx="16" cy="16" r="15.5" stroke="white"/>
<path fill-rule="evenodd" clip-rule="evenodd" d="M16 19C17.6569 19 19 17.6569 19 16C19 14.3431 17.6569 13 16 13C14.3431 13 13 14.3431 13 16C13 17.6569 14.3431 19 16 19ZM16 20C18.2091 20 20 18.2091 20 16C20 13.7909 18.2091 12 16 12C13.7909 12 12 13.7909 12 16C12 18.2091 13.7909 20 16 20Z" fill="white"/>
<path d="M10.583 5.58563C12.1609 4.87558 14.2291 4.19634 16.3283 4.19632C17.9265 4.19632 19.6754 4.71723 21.0728 5.27426C21.5681 5.47181 22.0086 5.6694 22.3691 5.8412L21.1713 7.43823C21.4549 7.6098 21.7318 7.79673 22.0008 7.999L23.8792 5.49442C23.8792 5.49442 23.5438 5.30081 22.9805 5.02596C21.6033 4.35391 18.863 3.19637 16.3283 3.19629C13.0428 3.19634 9.92513 4.70609 8.4141 5.56721C7.81127 5.91076 7.46422 6.15101 7.46422 6.15101C7.46422 6.15101 8.72457 6.42195 10.583 5.58563Z" fill="white"/>
<path d="M7.99897 9.99928L5.49439 8.12085C5.49439 8.12085 5.30075 8.45615 5.02591 9.01945C4.35386 10.3967 3.19634 13.1369 3.19633 15.6717C3.19628 18.9572 4.70606 22.0749 5.56722 23.5859C5.91075 24.1887 6.15101 24.5358 6.15101 24.5358C6.15101 24.5358 6.4506 23.3388 5.58559 21.417C4.87558 19.8391 4.19635 17.7709 4.19628 15.6718C4.19628 14.0735 4.71722 12.3247 5.27432 10.9272C5.47174 10.4319 5.66934 9.9914 5.84124 9.6309L7.43825 10.8286C7.6098 10.5451 7.79671 10.2683 7.99897 9.99928Z" fill="white"/>
<path d="M9.99924 24.001L8.12081 26.5056C8.12081 26.5056 8.45615 26.6992 9.01947 26.9741C10.3967 27.6461 13.137 28.8037 15.6717 28.8037C18.9572 28.8037 22.0749 27.2939 23.5859 26.4328C24.1887 26.0893 24.5358 25.849 24.5358 25.849C24.5358 25.849 23.3384 25.55 21.417 26.4144C19.8391 27.1244 17.7709 27.8037 15.6717 27.8037C14.0735 27.8037 12.3246 27.2828 10.9272 26.7258C10.4319 26.5282 9.99136 26.3306 9.63088 26.1588L10.8287 24.5618C10.5451 24.3902 10.2682 24.2033 9.99924 24.001Z" fill="white"/>
<path d="M24.001 22.0007L26.5056 23.8792C26.5056 23.8792 26.6993 23.5439 26.9741 22.9806C27.6461 21.6033 28.8037 18.8631 28.8037 16.3283C28.8037 13.0428 27.2939 9.92512 26.4328 8.41417C26.0893 7.81135 25.849 7.46422 25.849 7.46422C25.849 7.46422 25.5185 8.59262 26.4144 10.5831C27.1244 12.1609 27.8037 14.2291 27.8037 16.3283C27.8037 17.9265 27.2828 19.6753 26.7257 21.0728C26.5283 21.5682 26.3307 22.0086 26.1588 22.3691L24.5618 21.1714C24.3902 21.4549 24.2033 21.7318 24.001 22.0007Z" fill="white"/>
<path d="M8.24998 13.5536C8.67481 12.4336 9.35476 11.0886 10.3824 10.061C11.1648 9.27856 12.2759 8.67744 13.2327 8.26605C13.5719 8.12027 13.8842 8.00136 14.1448 7.90899L14.3403 9.27715C14.5631 9.22233 14.7901 9.1783 15.0208 9.14564L14.7143 7C14.7143 7 14.4553 7.06938 14.045 7.2106C13.0418 7.55582 11.1337 8.33061 9.89286 9.57139C8.28451 11.1798 7.49736 13.4451 7.17921 14.6063C7.05228 15.0696 7 15.3571 7 15.3571C7 15.3571 7.74962 14.8728 8.24998 13.5536Z" fill="white"/>
<path d="M9.14564 16.9792L7 17.2857C7 17.2857 7.06935 17.5447 7.21056 17.955C7.5558 18.9582 8.33057 20.8663 9.57143 22.1071C11.1798 23.7155 13.4451 24.5027 14.6063 24.8208C15.0696 24.9477 15.3571 25 15.3571 25C15.3571 25 14.9178 24.2674 13.5536 23.75C12.4336 23.3252 11.0886 22.6452 10.061 21.6176C9.27857 20.8353 8.67747 19.7241 8.26608 18.7673C8.12023 18.4281 8.00134 18.1158 7.90902 17.8552L9.27714 17.6597C9.22233 17.4369 9.1783 17.2099 9.14564 16.9792Z" fill="white"/>
<path d="M16.9792 22.8544L17.2857 25C17.2857 25 17.5447 24.9306 17.955 24.7894C18.9582 24.4442 20.8663 23.6694 22.1071 22.4286C23.7155 20.8202 24.5026 18.5549 24.8208 17.3937C24.9477 16.9304 25 16.6429 25 16.6429C25 16.6429 24.2674 17.0827 23.75 18.4464C23.3252 19.5664 22.6452 20.9114 21.6176 21.939C20.8352 22.7214 19.7241 23.3226 18.7673 23.734C18.4281 23.8797 18.1158 23.9986 17.8552 24.091L17.6597 22.7228C17.4369 22.7777 17.2099 22.8217 16.9792 22.8544Z" fill="white"/>
<path d="M22.8544 15.0208L25 14.7143C25 14.7143 24.9306 14.4553 24.7894 14.045C24.4442 13.0418 23.6694 11.1337 22.4286 9.89287C20.8202 8.28447 18.5549 7.49734 17.3937 7.17925C16.9304 7.05231 16.6429 7 16.6429 7C16.6429 7 17.0335 7.71417 18.4464 8.24999C19.5664 8.67482 20.9114 9.35479 21.939 10.3824C22.7214 11.1647 23.3225 12.2759 23.7339 13.2327C23.8798 13.5719 23.9987 13.8842 24.091 14.1448L22.7229 14.3403C22.7777 14.5631 22.8217 14.7901 22.8544 15.0208Z" fill="white"/>
</svg>
