<svg width="740" height="740" viewBox="0 0 740 740" fill="none" xmlns="http://www.w3.org/2000/svg">
<path d="M108.436 406.815C105.084 398.883 101.859 390.951 98.6974 383.019C74.8571 322.671 104.768 268.225 131.454 214.921C158.14 161.617 178.121 193.336 202.24 172.369L272.18 156L354.106 162.153C438.308 207.042 542.143 179.808 588.515 253.724C750.755 512.325 557.913 608.097 363.534 578.212C325.781 572.438 287.965 566.6 250.213 560.825C217.456 555.812 184.889 559.619 166.551 526.431C144.987 487.596 125.636 447.681 108.436 406.815Z" fill="#668899"/>
<path d="M250.15 560.762C287.902 566.536 325.718 572.374 363.47 578.149C453.332 592.066 423.761 583.907 372.893 523.449C369.035 518.88 365.115 514.121 363.723 508.283C362.269 502.064 363.913 495.655 365.62 489.5C371.059 469.32 372.45 447.428 377.888 427.248C344.183 435.117 266.528 450.093 260.141 448.253C253.059 446.222 247.304 441.082 241.803 436.069C201.774 399.391 170.471 362.395 139.865 317.658C136.26 312.391 132.592 306.934 131.264 300.651C130 294.75 130.948 288.658 131.897 282.757C134.173 268.035 139.232 227.232 143.279 191.252L131.391 214.921C104.768 268.225 74.8571 322.671 98.7606 383.019C101.922 391.015 105.148 398.947 108.499 406.815C125.653 447.672 145.011 487.56 166.487 526.305C184.763 559.556 217.393 555.749 250.15 560.762Z" fill="#3D525C"/>
<path d="M457.207 211.84C449.429 202.638 434.252 204.415 418.316 219.01C418.316 219.01 417.185 310.932 551.119 310.932C584.849 368 613.417 308.36 588.515 253.724C552.534 196.422 497.425 269.268 457.207 211.84Z" fill="#85A0AD" fill-opacity="0.7"/>
<path d="M279.515 250.551C300.573 247.378 370.829 235.385 384.046 230.181C409.847 219.965 418.316 219.01 418.316 219.01C418.316 219.01 436.2 247.343 448.164 268.823C460.129 290.303 454.45 299.898 440.791 325.915L377.888 427.248L256.537 305.474C246.229 295.131 239.652 289.673 235.921 275.015C227.385 241.51 168.218 317.371 168.155 288.244C168.092 259.117 246.316 255.5 279.515 250.551Z" fill="#516D7B"/>
<path d="M404.948 208.159C383.986 183.015 354.106 162.153 354.106 162.153L272.18 156C272.18 156 350.628 231.701 404.948 208.159Z" fill="#516D7B"/>
<path d="M587.415 331.754C568.697 336.704 551.37 350.601 523.293 353.203C503.31 355.107 452.91 353.647 460.499 364.942C468.087 376.238 513.301 399.019 524.558 408.22C540.556 421.102 554.469 436.268 567.812 451.879C574.768 460.065 585.202 479.926 597.343 485.32C600.442 486.716 603.73 487.097 607.018 486.082C612.773 484.369 617.389 480.18 621.879 476.183C701.242 402.083 587.415 331.754 587.415 331.754Z" fill="#85A0AD" fill-opacity="0.7"/>
<path d="M262.638 411.941C262.364 411.276 262.099 410.611 261.84 409.947C259.887 404.891 262.338 400.329 264.525 395.863L267.696 389.398C268.333 388.095 269.313 387 270.515 386.235L279.635 380.429L288.646 370.869C289.206 370.274 289.92 369.855 290.704 369.662L296.839 368.142C299.808 367.413 301.083 367.53 302.042 368.929C305.363 373.767 307.586 377.749 310.545 382.571C312.157 385.198 315.877 391.232 316.111 391.631C316.826 392.864 316.535 393.896 316.51 395.31C316.447 398.569 317.007 401.844 318.168 404.88C318.515 405.784 318.914 406.677 319.095 407.629C319.261 408.485 319.038 413.924 318.867 415.763C318.727 417.257 315.287 422.834 314.053 423.51C312.696 424.254 302.632 428.05 300.409 428.699C298.186 429.347 288.548 427.088 283.542 426.301C280.449 425.817 277.35 425.328 274.256 424.844C271.572 424.424 268.903 424.743 267.401 421.962C265.634 418.709 264.048 415.364 262.638 411.941Z" fill="#B8D3E0" fill-opacity="0.7"/>
<path d="M274.251 424.839C277.345 425.323 280.443 425.812 283.537 426.296C285.149 426.551 287.242 426.955 289.413 427.369C287.952 425.594 285.77 423.488 284.309 421.713C283.993 421.33 283.672 420.931 283.558 420.442C283.439 419.921 283.573 419.384 283.713 418.868C284.159 417.177 284.273 415.343 284.719 413.653C281.957 414.312 275.593 415.566 275.07 415.412C274.489 415.242 274.018 414.812 273.567 414.391C270.287 411.318 267.722 408.219 265.214 404.471C264.918 404.029 264.618 403.572 264.509 403.046C264.405 402.551 264.483 402.041 264.561 401.546C264.747 400.313 265.162 396.894 265.494 393.88L264.519 395.863C262.338 400.329 259.887 404.891 261.846 409.947C262.105 410.617 262.369 411.281 262.644 411.941C264.049 415.364 265.636 418.706 267.395 421.952C268.893 424.738 271.567 424.419 274.251 424.839Z" fill="#70A7C2"/>
<path d="M302.083 368.987C301.446 368.216 300.202 368.365 298.896 369.588L294.201 374.405C293.911 374.703 293.756 375.112 293.782 375.532L294.284 385.368C294.3 385.697 294.419 386.006 294.626 386.256C296.295 388.255 302.192 397.862 303.902 397.862C305.607 397.862 308.586 391.046 310.105 391.083C310.364 391.089 311.716 391.174 313.038 391.588C314.271 391.971 314.753 390.233 314.499 388.999C313.224 386.926 311.509 384.145 310.545 382.571C307.597 377.77 305.379 373.799 302.083 368.987Z" fill="#DBE9F0" fill-opacity="0.7"/>
<path d="M280.236 388.351C281.962 388.085 287.719 387.08 288.802 386.644C290.916 385.788 292.782 382.141 294.015 380.179C294.015 380.179 294.44 386.575 294.015 389.074C293.719 390.812 292.605 399.904 291.486 402.083L284.719 413.653L274.774 403.45C273.93 402.583 273.391 402.126 273.085 400.898C272.386 398.091 271.116 393.949 271.111 391.509C271.106 389.068 277.516 388.765 280.236 388.351Z" fill="#94BDD1" fill-opacity="0.7"/>
<path d="M292.813 374.724C292.149 373.91 291.963 372.757 292.191 371.725C292.383 370.864 294.124 369.2 294.689 368.673L290.704 369.662C289.92 369.857 289.207 370.275 288.646 370.869L279.635 380.429C279.635 380.429 288.361 376.696 292.813 374.724Z" fill="#94BDD1" fill-opacity="0.7"/>
<path d="M318.163 404.88C317.293 402.601 316.758 400.202 316.577 397.761C313.603 399.85 311.939 402.562 307.151 403.227C305.881 403.402 303.918 403.647 302.679 403.982C301.145 404.396 299.725 405.561 297.425 405.779C295.787 405.938 291.657 405.816 292.279 406.762C292.901 407.708 296.606 409.617 297.528 410.388C298.839 411.467 299.979 412.738 301.073 414.046C301.643 414.732 302.498 416.396 303.493 416.848C303.746 416.965 304.016 416.997 304.285 416.912C304.757 416.768 305.135 416.417 305.503 416.082C309.07 412.84 313.08 410.149 317.406 408.097C317.867 407.879 318.365 407.634 318.593 407.166C318.691 406.959 318.733 406.677 318.738 406.374C318.556 405.874 318.354 405.38 318.163 404.88Z" fill="#DBE9F0" fill-opacity="0.7"/>
<path d="M319.09 407.629C319.023 407.283 318.924 406.943 318.81 406.608C318.722 406.922 318.531 407.267 318.116 407.592C316.924 408.527 312.328 409.968 307.27 414.514C303.969 417.48 303.964 417.879 303.254 421.149C302.093 426.503 300.249 428.449 299.896 428.778C300.088 428.757 300.259 428.731 300.399 428.688C302.627 428.045 312.685 424.243 314.043 423.499C315.276 422.824 318.717 417.247 318.857 415.753C319.033 413.924 319.256 408.485 319.09 407.629Z" fill="#70A7C2"/>
<path d="M170.19 314.357C169.915 313.692 169.651 313.028 169.392 312.363C167.439 307.307 169.89 302.745 172.076 298.279L175.248 291.814C175.885 290.511 176.864 289.416 178.067 288.651L187.187 282.845L196.198 273.285C196.757 272.69 197.471 272.271 198.255 272.079L204.391 270.558C207.36 269.83 208.635 269.947 209.593 271.345C212.915 276.183 215.138 280.165 218.097 284.987C219.708 287.614 223.429 293.648 223.662 294.047C224.377 295.28 224.087 296.312 224.061 297.726C223.999 300.985 224.559 304.26 225.719 307.296C226.067 308.2 226.466 309.093 226.647 310.045C226.813 310.901 226.59 316.34 226.419 318.179C226.279 319.673 222.838 325.251 221.605 325.926C220.247 326.67 210.184 330.466 207.961 331.115C205.738 331.763 196.1 329.504 191.094 328.717C188 328.233 184.902 327.744 181.808 327.26C179.124 326.84 176.455 327.159 174.952 324.379C173.185 321.125 171.6 317.781 170.19 314.357Z" fill="#B8D3E0" fill-opacity="0.7"/>
<path d="M181.803 327.255C184.896 327.739 187.995 328.228 191.089 328.712C192.7 328.967 194.794 329.371 196.965 329.786C195.504 328.01 193.322 325.905 191.861 324.129C191.545 323.746 191.223 323.347 191.109 322.858C190.99 322.337 191.125 321.8 191.265 321.284C191.711 319.594 191.825 317.759 192.27 316.069C189.508 316.728 183.145 317.983 182.622 317.828C182.041 317.658 181.57 317.228 181.119 316.808C177.839 313.735 175.274 310.635 172.766 306.887C172.47 306.445 172.17 305.988 172.061 305.462C171.957 304.967 172.035 304.457 172.113 303.963C172.299 302.729 172.714 299.311 173.045 296.296L172.071 298.279C169.89 302.745 167.439 307.307 169.397 312.363C169.656 313.033 169.921 313.697 170.195 314.357C171.601 317.78 173.187 321.122 174.947 324.368C176.445 327.154 179.119 326.835 181.803 327.255Z" fill="#70A7C2"/>
<path d="M209.635 271.403C208.997 270.632 207.754 270.781 206.448 272.004L201.753 276.821C201.463 277.119 201.307 277.528 201.333 277.948L201.836 287.784C201.852 288.114 201.971 288.422 202.178 288.672C203.847 290.671 209.744 300.278 211.454 300.278C213.159 300.278 216.138 293.462 217.656 293.499C217.916 293.505 219.268 293.59 220.589 294.004C221.823 294.387 222.305 292.649 222.051 291.415C220.776 289.342 219.061 286.561 218.097 284.987C215.148 280.186 212.931 276.215 209.635 271.403Z" fill="#DBE9F0" fill-opacity="0.7"/>
<path d="M187.788 290.767C189.513 290.501 195.271 289.496 196.354 289.06C198.468 288.204 200.333 284.557 201.567 282.595C201.567 282.595 201.992 288.991 201.567 291.49C201.271 293.228 200.157 302.32 199.038 304.5L192.27 316.069L182.326 305.866C181.481 304.999 180.943 304.542 180.637 303.314C179.937 300.507 178.668 296.365 178.663 293.925C178.657 291.484 185.067 291.181 187.788 290.767Z" fill="#94BDD1" fill-opacity="0.7"/>
<path d="M200.364 277.14C199.701 276.327 199.515 275.173 199.743 274.141C199.934 273.28 201.675 271.616 202.24 271.09L198.255 272.079C197.472 272.273 196.759 272.692 196.198 273.285L187.187 282.845C187.187 282.845 195.913 279.113 200.364 277.14Z" fill="#94BDD1" fill-opacity="0.7"/>
<path d="M225.714 307.296C224.844 305.017 224.31 302.618 224.129 300.177C221.154 302.267 219.491 304.978 214.703 305.643C213.433 305.818 211.469 306.063 210.231 306.398C208.697 306.812 207.277 307.977 204.976 308.195C203.339 308.354 199.209 308.232 199.831 309.178C200.452 310.125 204.158 312.033 205.08 312.804C206.391 313.883 207.531 315.154 208.624 316.462C209.194 317.148 210.049 318.812 211.044 319.264C211.298 319.381 211.568 319.413 211.837 319.328C212.309 319.184 212.687 318.833 213.055 318.498C216.622 315.256 220.632 312.565 224.958 310.513C225.419 310.295 225.916 310.05 226.144 309.582C226.243 309.375 226.284 309.093 226.29 308.79C226.108 308.29 225.906 307.796 225.714 307.296Z" fill="#DBE9F0" fill-opacity="0.7"/>
<path d="M226.642 310.045C226.574 309.699 226.476 309.359 226.362 309.024C226.274 309.338 226.082 309.683 225.668 310.008C224.476 310.943 219.879 312.384 214.822 316.93C211.521 319.897 211.516 320.295 210.806 323.565C209.645 328.919 207.8 330.865 207.448 331.195C207.64 331.173 207.811 331.147 207.951 331.104C210.179 330.461 220.237 326.659 221.595 325.915C222.828 325.24 226.269 319.663 226.409 318.169C226.585 316.34 226.808 310.901 226.642 310.045Z" fill="#70A7C2"/>
<path d="M149.306 457.047C149.074 456.489 148.85 455.932 148.63 455.375C146.974 451.134 149.052 447.308 150.905 443.562L153.592 438.14C154.133 437.048 154.963 436.129 155.981 435.487L163.71 430.618L171.347 422.6C171.821 422.101 172.426 421.749 173.09 421.588L178.29 420.312C180.806 419.702 181.887 419.8 182.699 420.972C185.514 425.03 187.398 428.37 189.905 432.415C191.271 434.617 194.424 439.678 194.622 440.013C195.228 441.047 194.982 441.912 194.96 443.099C194.907 445.832 195.381 448.579 196.365 451.125C196.659 451.883 196.997 452.632 197.151 453.43C197.292 454.148 197.103 458.71 196.958 460.253C196.839 461.506 193.923 466.184 192.878 466.75C191.728 467.374 183.2 470.558 181.316 471.102C179.432 471.646 171.264 469.751 167.021 469.091C164.4 468.685 161.774 468.275 159.152 467.869C156.877 467.517 154.616 467.784 153.342 465.452C151.845 462.723 150.501 459.918 149.306 457.047Z" fill="#B8D3E0" fill-opacity="0.7"/>
<path d="M159.148 467.865C161.769 468.27 164.395 468.681 167.017 469.086C168.383 469.3 170.157 469.639 171.997 469.987C170.759 468.498 168.91 466.732 167.671 465.243C167.404 464.921 167.131 464.587 167.035 464.177C166.934 463.74 167.048 463.289 167.166 462.857C167.544 461.439 167.641 459.901 168.018 458.483C165.678 459.036 160.285 460.088 159.841 459.959C159.35 459.816 158.95 459.455 158.568 459.102C155.788 456.525 153.614 453.925 151.489 450.782C151.239 450.412 150.984 450.028 150.892 449.587C150.804 449.172 150.87 448.744 150.936 448.329C151.094 447.295 151.445 444.427 151.726 441.899L150.9 443.562C149.052 447.308 146.974 451.134 148.634 455.375C148.854 455.936 149.078 456.494 149.311 457.047C150.502 459.918 151.846 462.721 153.338 465.443C154.607 467.78 156.873 467.512 159.148 467.865Z" fill="#70A7C2"/>
<path d="M182.734 421.021C182.194 420.375 181.14 420.5 180.033 421.525L176.055 425.565C175.809 425.815 175.677 426.158 175.699 426.511L176.125 434.76C176.138 435.037 176.239 435.295 176.415 435.505C177.829 437.181 182.826 445.239 184.275 445.239C185.72 445.239 188.245 439.522 189.532 439.554C189.752 439.558 190.898 439.629 192.018 439.977C193.063 440.298 193.471 438.84 193.256 437.806C192.176 436.067 190.722 433.734 189.905 432.415C187.407 428.388 185.527 425.057 182.734 421.021Z" fill="#DBE9F0" fill-opacity="0.7"/>
<path d="M164.22 437.262C165.682 437.039 170.561 436.196 171.479 435.83C173.27 435.112 174.851 432.053 175.897 430.408C175.897 430.408 176.257 435.772 175.897 437.868C175.646 439.326 174.702 446.951 173.754 448.779L168.018 458.483L159.591 449.926C158.875 449.199 158.419 448.815 158.159 447.785C157.567 445.431 156.491 441.957 156.486 439.91C156.482 437.864 161.914 437.609 164.22 437.262Z" fill="#94BDD1" fill-opacity="0.7"/>
<path d="M174.878 425.833C174.316 425.151 174.158 424.183 174.351 423.318C174.513 422.596 175.989 421.2 176.467 420.758L173.09 421.588C172.427 421.751 171.822 422.102 171.347 422.6L163.71 430.618C163.71 430.618 171.105 427.487 174.878 425.833Z" fill="#94BDD1" fill-opacity="0.7"/>
<path d="M196.361 451.125C195.623 449.214 195.171 447.201 195.017 445.154C192.496 446.907 191.087 449.181 187.029 449.738C185.953 449.885 184.289 450.091 183.239 450.371C181.939 450.719 180.736 451.696 178.786 451.879C177.398 452.012 173.898 451.91 174.425 452.704C174.952 453.497 178.092 455.098 178.874 455.745C179.985 456.65 180.951 457.716 181.878 458.813C182.361 459.388 183.085 460.783 183.929 461.162C184.144 461.261 184.372 461.287 184.6 461.216C185 461.096 185.321 460.801 185.632 460.52C188.656 457.801 192.054 455.544 195.72 453.823C196.11 453.64 196.532 453.435 196.725 453.042C196.809 452.869 196.844 452.632 196.848 452.378C196.694 451.959 196.523 451.544 196.361 451.125Z" fill="#DBE9F0" fill-opacity="0.7"/>
<path d="M197.147 453.43C197.09 453.141 197.006 452.855 196.91 452.574C196.835 452.837 196.673 453.127 196.321 453.399C195.311 454.184 191.416 455.392 187.13 459.205C184.333 461.693 184.328 462.028 183.727 464.77C182.743 469.26 181.179 470.892 180.881 471.169C181.043 471.151 181.188 471.129 181.307 471.093C183.195 470.553 191.719 467.365 192.87 466.741C193.915 466.175 196.831 461.497 196.949 460.244C197.098 458.71 197.287 454.148 197.147 453.43Z" fill="#70A7C2"/>
<path d="M322.949 302.311C323.04 303.022 323.14 303.728 323.244 304.432C324.053 309.776 328.454 312.473 332.577 315.221L338.551 319.196C339.753 319.998 341.15 320.449 342.578 320.503L353.406 320.911L366.004 324.61C366.787 324.842 367.617 324.843 368.395 324.614L374.495 322.832C377.444 321.963 378.496 321.22 378.637 319.531C379.128 313.685 379.086 309.131 379.269 303.483C379.369 300.406 379.613 293.328 379.618 292.866C379.628 291.443 378.863 290.7 378.138 289.493C376.465 286.715 375.326 283.609 374.83 280.407C374.683 279.452 374.587 278.481 374.273 277.569C373.992 276.748 371.097 272.171 370.034 270.671C369.17 269.454 363.403 266.38 361.993 266.419C360.441 266.462 349.789 268.262 347.53 268.823C345.271 269.384 337.997 276.191 334.027 279.393C331.573 281.369 329.116 283.353 326.661 285.33C324.532 287.045 322.048 288.115 322.12 291.27C322.197 294.966 322.477 298.648 322.949 302.311Z" fill="#B8D3E0" fill-opacity="0.7"/>
<path d="M326.66 285.337C329.114 283.36 331.571 281.376 334.025 279.4C335.303 278.368 336.926 276.964 338.611 275.512C338.22 277.78 337.365 280.694 336.974 282.962C336.889 283.451 336.807 283.957 336.951 284.436C337.106 284.945 337.49 285.341 337.868 285.715C339.096 286.948 340.106 288.472 341.334 289.705C338.6 290.528 332.434 292.654 332.054 293.051C331.633 293.49 331.436 294.099 331.252 294.689C329.921 298.992 329.226 302.957 328.903 307.453C328.865 307.982 328.83 308.528 328.996 309.036C329.152 309.515 329.473 309.916 329.786 310.303C330.561 311.272 332.62 314.011 334.406 316.442L332.573 315.224C328.454 312.473 324.053 309.776 323.249 304.429C323.142 303.721 323.042 303.015 322.954 302.308C322.478 298.648 322.2 294.967 322.121 291.282C322.042 288.125 324.53 287.052 326.66 285.337Z" fill="#70A7C2"/>
<path d="M378.644 319.46C378.472 320.446 377.314 320.944 375.569 320.548L369.087 318.762C368.687 318.651 368.348 318.377 368.162 318.002L363.715 309.268C363.564 308.976 363.515 308.65 363.572 308.33C364.032 305.766 364.398 294.51 365.888 293.648C367.373 292.789 373.354 297.163 374.658 296.366C374.881 296.231 376.017 295.476 376.962 294.452C377.846 293.5 379.13 294.756 379.521 295.948C379.44 298.378 379.327 301.64 379.269 303.483C379.085 309.108 379.125 313.65 378.644 319.46Z" fill="#DBE9F0" fill-opacity="0.7"/>
<path d="M349.995 313.778C351.631 313.137 357.145 311.102 358.305 310.932C360.572 310.604 364.008 312.808 366.057 313.878C366.057 313.878 363.251 308.149 361.639 306.209C360.519 304.859 355.033 297.583 352.975 296.267L341.334 289.705L337.738 303.513C337.433 304.686 337.191 305.352 337.534 306.565C338.319 309.338 339.27 313.549 340.477 315.655C341.685 317.762 347.419 314.792 349.995 313.778Z" fill="#94BDD1" fill-opacity="0.7"/>
<path d="M367.719 319.187C367.545 320.222 367.956 321.311 368.667 322.086C369.261 322.731 371.605 323.288 372.358 323.458L368.395 324.614C367.617 324.841 366.787 324.839 366.004 324.61L353.406 320.911C353.406 320.911 362.862 319.73 367.719 319.187Z" fill="#94BDD1" fill-opacity="0.7"/>
<path d="M374.825 280.409C375.199 282.813 375.925 285.151 376.98 287.346C373.351 287.044 370.555 285.545 366.054 287.386C364.861 287.874 363.028 288.653 361.783 288.989C360.241 289.405 358.426 289.116 356.313 290.088C354.808 290.776 351.27 292.963 351.342 291.834C351.414 290.705 353.694 287.191 354.114 286.062C354.72 284.471 355.082 282.8 355.385 281.122C355.541 280.243 355.46 278.377 356.102 277.486C356.265 277.257 356.484 277.094 356.761 277.031C357.243 276.918 357.747 277.029 358.234 277.133C362.952 278.13 367.781 278.428 372.569 278.018C373.079 277.973 373.634 277.933 374.065 278.221C374.253 278.351 374.429 278.573 374.584 278.831C374.675 279.354 374.744 279.882 374.825 280.409Z" fill="#DBE9F0" fill-opacity="0.7"/>
<path d="M374.268 277.572C374.381 277.904 374.464 278.247 374.531 278.593C374.299 278.367 373.96 278.166 373.438 278.095C371.935 277.889 367.215 278.964 360.552 277.594C356.203 276.7 356 276.359 353.758 273.898C350.088 269.867 347.514 269.12 347.044 269.013C347.221 268.935 347.383 268.871 347.526 268.838C349.787 268.269 360.437 266.476 361.989 266.434C363.399 266.394 369.166 269.468 370.03 270.686C371.092 272.174 373.987 276.75 374.268 277.572Z" fill="#70A7C2"/>
<path d="M278.692 514.235C278.783 514.946 278.883 515.652 278.987 516.356C279.796 521.7 284.197 524.397 288.32 527.145L294.294 531.12C295.496 531.922 296.893 532.373 298.321 532.427L309.149 532.835L321.747 536.534C322.53 536.766 323.36 536.767 324.138 536.538L330.238 534.756C333.187 533.887 334.239 533.144 334.38 531.455C334.87 525.609 334.829 521.055 335.012 515.407C335.111 512.33 335.356 505.252 335.361 504.79C335.371 503.367 334.606 502.624 333.881 501.417C332.208 498.639 331.069 495.533 330.573 492.331C330.426 491.376 330.33 490.405 330.016 489.493C329.735 488.672 326.839 484.095 325.777 482.595C324.913 481.378 319.146 478.304 317.736 478.343C316.184 478.386 305.532 480.186 303.273 480.747C301.014 481.308 293.74 488.115 289.77 491.317C287.315 493.293 284.859 495.277 282.404 497.254C280.274 498.969 277.791 500.039 277.863 503.194C277.94 506.89 278.219 510.572 278.692 514.235Z" fill="#B8D3E0" fill-opacity="0.7"/>
<path d="M282.402 497.261C284.857 495.284 287.314 493.301 289.768 491.324C291.045 490.292 292.668 488.888 294.354 487.436C293.963 489.704 293.108 492.618 292.717 494.886C292.632 495.375 292.55 495.881 292.694 496.36C292.849 496.87 293.233 497.265 293.611 497.639C294.839 498.872 295.849 500.396 297.077 501.629C294.343 502.452 288.177 504.578 287.797 504.975C287.376 505.414 287.179 506.023 286.995 506.613C285.664 510.916 284.969 514.881 284.646 519.377C284.607 519.906 284.573 520.452 284.739 520.96C284.895 521.439 285.216 521.84 285.529 522.227C286.304 523.196 288.363 525.935 290.149 528.366L288.316 527.148C284.197 524.397 279.796 521.7 278.992 516.353C278.885 515.645 278.785 514.939 278.697 514.232C278.221 510.572 277.943 506.891 277.864 503.206C277.785 500.049 280.273 498.976 282.402 497.261Z" fill="#70A7C2"/>
<path d="M334.387 531.384C334.214 532.369 333.057 532.868 331.312 532.472L324.83 530.686C324.429 530.575 324.091 530.301 323.905 529.926L319.458 521.192C319.307 520.9 319.258 520.574 319.314 520.254C319.775 517.69 320.141 506.434 321.631 505.572C323.116 504.713 329.097 509.087 330.401 508.29C330.624 508.155 331.76 507.4 332.705 506.376C333.589 505.424 334.872 506.68 335.264 507.872C335.183 510.302 335.07 513.564 335.012 515.407C334.828 521.032 334.868 525.574 334.387 531.384Z" fill="#DBE9F0" fill-opacity="0.7"/>
<path d="M305.738 525.702C307.373 525.061 312.888 523.026 314.048 522.856C316.315 522.528 319.751 524.732 321.8 525.802C321.8 525.802 318.994 520.073 317.382 518.133C316.262 516.783 310.776 509.507 308.718 508.191L297.077 501.629L293.481 515.437C293.176 516.61 292.933 517.276 293.277 518.489C294.062 521.262 295.013 525.473 296.22 527.579C297.428 529.686 303.162 526.716 305.738 525.702Z" fill="#94BDD1" fill-opacity="0.7"/>
<path d="M323.462 531.111C323.288 532.146 323.698 533.235 324.409 534.009C325.004 534.655 327.347 535.212 328.101 535.381L324.138 536.538C323.359 536.765 322.53 536.763 321.747 536.534L309.149 532.835C309.149 532.835 318.604 531.654 323.462 531.111Z" fill="#94BDD1" fill-opacity="0.7"/>
<path d="M330.568 492.333C330.942 494.737 331.668 497.075 332.722 499.27C329.094 498.968 326.298 497.469 321.797 499.31C320.604 499.798 318.771 500.577 317.526 500.913C315.984 501.329 314.169 501.04 312.056 502.012C310.55 502.7 307.013 504.887 307.085 503.758C307.157 502.629 309.436 499.115 309.857 497.986C310.463 496.395 310.825 494.724 311.128 493.046C311.284 492.167 311.202 490.301 311.845 489.41C312.008 489.181 312.227 489.018 312.504 488.956C312.986 488.842 313.49 488.953 313.976 489.057C318.694 490.054 323.524 490.352 328.312 489.942C328.822 489.897 329.376 489.857 329.807 490.145C329.996 490.275 330.172 490.497 330.327 490.755C330.417 491.278 330.487 491.806 330.568 492.333Z" fill="#DBE9F0" fill-opacity="0.7"/>
<path d="M330.011 489.496C330.124 489.828 330.207 490.171 330.274 490.517C330.042 490.291 329.703 490.09 329.181 490.019C327.678 489.813 322.958 490.888 316.295 489.518C311.946 488.624 311.743 488.283 309.501 485.822C305.831 481.791 303.257 481.044 302.786 480.937C302.964 480.859 303.126 480.795 303.269 480.762C305.53 480.193 316.18 478.4 317.732 478.358C319.142 478.318 324.909 481.392 325.773 482.61C326.835 484.098 329.73 488.674 330.011 489.496Z" fill="#70A7C2"/>
<path d="M465.238 545.009C464.963 544.344 464.699 543.68 464.44 543.015C462.486 537.959 464.937 533.397 467.124 528.931L470.295 522.466C470.933 521.164 471.912 520.068 473.114 519.303L482.234 513.497L491.246 503.938C491.805 503.342 492.519 502.923 493.303 502.731L499.438 501.21C502.408 500.482 503.682 500.599 504.641 501.997C507.963 506.835 510.186 510.817 513.145 515.64C514.756 518.266 518.477 524.3 518.71 524.699C519.425 525.933 519.135 526.964 519.109 528.378C519.047 531.637 519.606 534.912 520.767 537.948C521.114 538.852 521.513 539.745 521.695 540.697C521.861 541.553 521.638 546.992 521.467 548.832C521.327 550.325 517.886 555.903 516.653 556.578C515.295 557.322 505.232 561.118 503.009 561.767C500.786 562.416 491.147 560.156 486.142 559.369C483.048 558.885 479.949 558.396 476.856 557.912C474.171 557.492 471.503 557.811 470 555.031C468.233 551.777 466.647 548.433 465.238 545.009Z" fill="#B8D3E0" fill-opacity="0.7"/>
<path d="M476.85 557.907C479.944 558.391 483.043 558.88 486.136 559.364C487.748 559.619 489.842 560.023 492.013 560.438C490.551 558.662 488.37 556.557 486.909 554.781C486.592 554.398 486.271 553.999 486.157 553.51C486.038 552.989 486.173 552.452 486.313 551.936C486.758 550.246 486.872 548.411 487.318 546.721C484.556 547.38 478.193 548.635 477.669 548.481C477.089 548.31 476.617 547.88 476.166 547.46C472.886 544.387 470.321 541.287 467.813 537.539C467.518 537.098 467.217 536.64 467.108 536.114C467.005 535.62 467.083 535.109 467.16 534.615C467.347 533.381 467.761 529.963 468.093 526.948L467.119 528.931C464.937 533.397 462.486 537.959 464.445 543.015C464.704 543.685 464.968 544.35 465.243 545.009C466.649 548.432 468.235 551.774 469.995 555.02C471.492 557.806 474.166 557.487 476.85 557.907Z" fill="#70A7C2"/>
<path d="M504.683 502.056C504.045 501.285 502.801 501.433 501.496 502.656L496.801 507.473C496.511 507.771 496.355 508.18 496.381 508.6L496.884 518.436C496.899 518.766 497.018 519.074 497.226 519.324C498.894 521.323 504.791 530.93 506.501 530.93C508.206 530.93 511.186 524.114 512.704 524.152C512.963 524.157 514.316 524.242 515.637 524.657C516.87 525.039 517.352 523.301 517.098 522.067C515.824 519.994 514.108 517.213 513.145 515.64C510.196 510.839 507.978 506.867 504.683 502.056Z" fill="#DBE9F0" fill-opacity="0.7"/>
<path d="M482.836 521.419C484.561 521.153 490.318 520.148 491.401 519.712C493.515 518.856 495.381 515.209 496.614 513.247C496.614 513.247 497.039 519.643 496.614 522.142C496.319 523.88 495.205 532.972 494.086 535.152L487.318 546.721L477.374 536.518C476.529 535.651 475.99 535.194 475.685 533.966C474.985 531.159 473.715 527.017 473.71 524.577C473.705 522.137 480.115 521.833 482.836 521.419Z" fill="#94BDD1" fill-opacity="0.7"/>
<path d="M495.412 507.792C494.749 506.979 494.562 505.825 494.79 504.794C494.982 503.932 496.723 502.268 497.288 501.742L493.303 502.731C492.52 502.925 491.807 503.344 491.246 503.938L482.234 513.497C482.234 513.497 490.961 509.765 495.412 507.792Z" fill="#94BDD1" fill-opacity="0.7"/>
<path d="M520.762 537.948C519.892 535.669 519.358 533.27 519.176 530.829C516.202 532.919 514.539 535.63 509.75 536.295C508.481 536.47 506.517 536.715 505.278 537.05C503.745 537.464 502.325 538.629 500.024 538.847C498.386 539.006 494.257 538.884 494.878 539.83C495.5 540.777 499.205 542.685 500.128 543.456C501.439 544.536 502.579 545.806 503.672 547.114C504.242 547.8 505.097 549.464 506.092 549.916C506.346 550.033 506.615 550.065 506.885 549.98C507.356 549.836 507.735 549.485 508.103 549.15C511.67 545.908 515.68 543.218 520.005 541.165C520.467 540.947 520.964 540.702 521.192 540.234C521.291 540.027 521.332 539.745 521.337 539.442C521.156 538.942 520.954 538.448 520.762 537.948Z" fill="#DBE9F0" fill-opacity="0.7"/>
<path d="M521.69 540.697C521.622 540.351 521.524 540.011 521.41 539.676C521.322 539.99 521.13 540.335 520.715 540.66C519.524 541.596 514.927 543.036 509.87 547.582C506.569 550.549 506.564 550.948 505.854 554.217C504.693 559.571 502.848 561.517 502.496 561.847C502.687 561.825 502.858 561.799 502.998 561.756C505.227 561.113 515.285 557.312 516.642 556.567C517.876 555.892 521.316 550.315 521.456 548.821C521.633 546.992 521.855 541.553 521.69 540.697Z" fill="#70A7C2"/>
<path d="M435.733 442.497C435.458 441.832 435.194 441.168 434.935 440.503C432.981 435.447 435.432 430.885 437.619 426.419L440.791 419.954C441.428 418.652 442.407 417.557 443.61 416.791L452.73 410.985L461.741 401.426C462.3 400.83 463.014 400.411 463.798 400.219L469.934 398.698C472.903 397.97 474.178 398.087 475.136 399.485C478.458 404.323 480.681 408.306 483.64 413.128C485.251 415.754 488.972 421.789 489.205 422.187C489.92 423.421 489.63 424.452 489.604 425.866C489.542 429.126 490.102 432.401 491.262 435.436C491.61 436.34 492.009 437.233 492.19 438.185C492.356 439.041 492.133 444.48 491.962 446.32C491.822 447.814 488.381 453.391 487.148 454.066C485.79 454.81 475.727 458.606 473.504 459.255C471.281 459.904 461.643 457.644 456.637 456.857C453.543 456.373 450.444 455.884 447.351 455.4C444.667 454.98 441.998 455.299 440.495 452.519C438.728 449.265 437.143 445.921 435.733 442.497Z" fill="#B8D3E0" fill-opacity="0.7"/>
<path d="M447.346 455.395C450.439 455.879 453.538 456.368 456.632 456.852C458.243 457.107 460.337 457.511 462.508 457.926C461.047 456.15 458.865 454.045 457.404 452.269C457.088 451.886 456.766 451.487 456.652 450.998C456.533 450.477 456.668 449.94 456.808 449.424C457.254 447.734 457.368 445.9 457.813 444.209C455.051 444.868 448.688 446.123 448.164 445.969C447.584 445.799 447.113 445.368 446.662 444.948C443.382 441.875 440.816 438.775 438.308 435.027C438.013 434.586 437.713 434.129 437.604 433.602C437.5 433.108 437.578 432.597 437.656 432.103C437.842 430.869 438.257 427.451 438.588 424.436L437.614 426.419C435.432 430.885 432.981 435.447 434.94 440.503C435.199 441.173 435.464 441.838 435.738 442.497C437.144 445.92 438.73 449.262 440.49 452.508C441.988 455.294 444.661 454.975 447.346 455.395Z" fill="#70A7C2"/>
<path d="M475.178 399.544C474.54 398.773 473.297 398.922 471.991 400.144L467.296 404.961C467.006 405.259 466.85 405.668 466.876 406.089L467.379 415.924C467.395 416.254 467.514 416.562 467.721 416.812C469.39 418.811 475.287 428.418 476.997 428.418C478.701 428.418 481.681 421.603 483.199 421.64C483.458 421.645 484.811 421.73 486.132 422.145C487.366 422.528 487.848 420.789 487.594 419.556C486.319 417.482 484.604 414.701 483.64 413.128C480.691 408.327 478.473 404.355 475.178 399.544Z" fill="#DBE9F0" fill-opacity="0.7"/>
<path d="M453.331 418.907C455.056 418.641 460.813 417.636 461.897 417.2C464.011 416.344 465.876 412.697 467.11 410.735C467.11 410.735 467.534 417.131 467.11 419.63C466.814 421.369 465.7 430.46 464.581 432.64L457.813 444.209L447.869 434.006C447.024 433.14 446.485 432.682 446.18 431.454C445.48 428.647 444.211 424.505 444.205 422.065C444.2 419.625 450.61 419.322 453.331 418.907Z" fill="#94BDD1" fill-opacity="0.7"/>
<path d="M465.907 405.28C465.244 404.467 465.057 403.313 465.285 402.282C465.477 401.42 467.218 399.756 467.783 399.23L463.798 400.219C463.015 400.414 462.302 400.832 461.741 401.426L452.73 410.985C452.73 410.985 461.456 407.253 465.907 405.28Z" fill="#94BDD1" fill-opacity="0.7"/>
<path d="M491.257 435.436C490.387 433.157 489.853 430.758 489.672 428.317C486.697 430.407 485.034 433.118 480.246 433.783C478.976 433.958 477.012 434.203 475.774 434.538C474.24 434.953 472.82 436.117 470.519 436.335C468.882 436.494 464.752 436.372 465.374 437.319C465.995 438.265 469.7 440.174 470.623 440.945C471.934 442.024 473.074 443.294 474.167 444.602C474.737 445.288 475.592 446.952 476.587 447.404C476.841 447.521 477.111 447.553 477.38 447.468C477.852 447.324 478.23 446.974 478.598 446.639C482.165 443.396 486.175 440.706 490.501 438.653C490.962 438.435 491.459 438.19 491.687 437.723C491.786 437.515 491.827 437.233 491.832 436.93C491.651 436.431 491.449 435.936 491.257 435.436Z" fill="#DBE9F0" fill-opacity="0.7"/>
<path d="M492.185 438.185C492.117 437.84 492.019 437.499 491.905 437.164C491.817 437.478 491.625 437.824 491.211 438.148C490.019 439.084 485.422 440.524 480.365 445.07C477.064 448.037 477.059 448.436 476.349 451.705C475.188 457.059 473.343 459.005 472.991 459.335C473.183 459.313 473.354 459.287 473.494 459.244C475.722 458.601 485.78 454.8 487.138 454.055C488.371 453.38 491.812 447.803 491.952 446.309C492.128 444.48 492.351 439.041 492.185 438.185Z" fill="#70A7C2"/>
</svg>
