<svg width="740" height="740" viewBox="0 0 740 740" fill="none" xmlns="http://www.w3.org/2000/svg">
<path d="M28.7453 442.23C25.3375 434.2 22.0582 426.17 18.8433 418.141C-5.39714 357.051 25.016 301.934 52.1499 247.975L91.5004 169.862C99.4091 154.124 111.562 140.891 126.479 131.64L260.902 123.289L344.203 129.518C351.144 122.322 360.001 117.262 369.729 114.936L445.858 96.5636C525.858 77.4545 546.764 165.431 582.547 222.215C615.465 274.453 662.123 215.215 717.766 356.922C722.074 367.842 727.025 378.634 729.276 390.133C731.333 400.475 728.568 466.19 726.446 488.417C724.71 506.467 682.016 573.853 666.713 582.011C649.867 591.004 525 636.87 497.416 644.707C469.832 652.544 350.237 625.243 288.125 615.735C249.739 609.89 211.288 603.98 172.902 598.135C139.596 593.06 106.482 596.914 87.8354 563.318C65.9097 524.004 46.2344 483.599 28.7453 442.23Z" fill="#668899"/>
<path d="M172.838 598.07C211.224 603.916 249.674 609.825 288.06 615.671C308.057 618.754 334.034 623.637 360.975 628.647C342.843 607.192 315.773 581.754 297.641 560.299C293.719 555.673 289.732 550.856 288.318 544.946C286.839 538.65 288.511 532.162 290.247 525.931C295.776 505.504 297.191 483.342 302.72 462.914C268.449 470.88 189.491 486.04 182.997 484.177C175.796 482.121 169.944 476.918 164.35 471.843C123.65 434.714 91.8219 397.263 60.7015 351.976C57.0365 346.644 53.3072 341.119 51.957 334.76C50.671 328.786 51.6355 322.619 52.6 316.645C54.9147 301.742 60.0586 260.437 64.1737 224.014L52.0856 247.975C25.016 301.934 -5.39714 357.051 18.9076 418.141C22.1225 426.235 25.4018 434.264 28.8096 442.23C46.2515 483.589 65.9345 523.968 87.7711 563.189C106.353 596.85 139.531 592.996 172.838 598.07Z" fill="#3D525C"/>
<path d="M449.034 179.816C441.125 170.501 425.694 172.3 409.491 187.075L379.75 123.546C376.149 127.144 395.577 171.015 395.899 176.09C399.444 243.642 369.152 345.167 478.859 345.167C500.013 345.167 536.984 262.814 555.824 263.264C559.039 263.328 575.82 264.356 592.217 269.366C607.52 273.991 623.622 278.494 620.471 263.591C604.654 238.538 594.506 241.23 582.547 222.215C545.961 164.209 489.928 237.951 449.034 179.816Z" fill="#85A0AD" fill-opacity="0.7"/>
<path d="M268.36 219.003C289.772 215.791 361.207 203.65 374.645 198.383C400.879 188.041 409.491 187.075 409.491 187.075C409.491 187.075 444.602 197.548 439.329 227.74C435.664 248.745 400.583 296.795 386.694 323.133L302.72 462.914L179.332 339.642C168.851 329.171 162.164 323.647 158.371 308.808C149.69 274.89 133.937 224.849 133.873 195.364C133.809 165.879 234.604 224.014 268.36 219.003Z" fill="#516D7B"/>
<path d="M395.899 176.09C391.282 162.371 385.354 152.322 388.183 139.86C397.427 99.4253 436.271 98.8561 369.729 114.936C360.012 117.288 351.161 122.344 344.203 129.518L260.902 123.289C260.902 123.289 340.666 199.922 395.899 176.09Z" fill="#516D7B"/>
<path d="M717.702 356.922C669.3 233.455 697.87 321.158 581.068 336.944C565.315 339.064 540.946 342.019 525.578 346.066C506.546 351.076 488.928 365.145 460.38 367.778C440.062 369.705 388.816 368.228 396.532 379.662C404.248 391.097 450.221 414.158 461.666 423.472C477.933 436.513 492.079 451.865 505.646 467.668C512.719 475.954 523.328 496.061 535.673 501.521C538.824 502.934 542.167 503.32 545.511 502.292C551.362 500.557 556.056 496.318 560.621 492.271C604.885 453.093 654.642 420.588 708.314 395.786C714.037 393.152 720.21 390.197 723.039 384.544C724.26 382.039 724.775 378.634 724.839 374.973C722.589 368.934 720.081 362.96 717.702 356.922Z" fill="#85A0AD" fill-opacity="0.7"/>
<path d="M729.211 390.133C728.375 385.957 727.154 381.846 725.739 377.799C724.646 381.589 722.267 385.765 717.123 389.683C702.335 400.989 645.302 418.398 582.547 473.321C541.589 509.165 541.524 513.983 532.716 553.489C518.313 618.177 495.423 641.687 491.05 645.67C493.429 645.413 495.551 645.092 497.287 644.578C524.936 636.805 649.739 590.876 666.585 581.883C681.888 573.724 724.582 506.339 726.318 488.288C728.504 466.19 731.269 400.475 729.211 390.133Z" fill="#3D525C"/>
<path d="M646.96 494.115C647.044 494.77 647.137 495.419 647.233 496.067C647.981 500.983 652.048 503.465 655.858 505.993L661.378 509.65C662.489 510.388 663.78 510.803 665.099 510.852L675.106 511.228L686.747 514.631C687.471 514.844 688.238 514.845 688.957 514.634L694.594 512.995C697.319 512.196 698.291 511.512 698.421 509.958C698.875 504.58 698.837 500.39 699.006 495.193C699.098 492.363 699.323 485.851 699.328 485.426C699.337 484.116 698.63 483.433 697.96 482.323C696.415 479.767 695.362 476.909 694.903 473.963C694.768 473.085 694.679 472.191 694.388 471.352C694.129 470.597 691.453 466.386 690.471 465.006C689.673 463.886 684.344 461.058 683.041 461.094C681.606 461.133 671.763 462.789 669.676 463.306C667.588 463.822 660.866 470.084 657.198 473.03C654.929 474.849 652.659 476.674 650.391 478.492C648.423 480.07 646.128 481.055 646.194 483.957C646.265 487.358 646.524 490.746 646.96 494.115Z" fill="#B8D3E0" fill-opacity="0.7"/>
<path d="M650.389 478.499C652.657 476.68 654.928 474.855 657.196 473.037C658.376 472.087 659.876 470.795 661.434 469.46C661.072 471.546 660.282 474.228 659.921 476.314C659.842 476.764 659.766 477.229 659.899 477.67C660.042 478.139 660.397 478.502 660.747 478.846C661.881 479.981 662.815 481.383 663.95 482.517C661.424 483.275 655.725 485.231 655.375 485.596C654.985 486 654.803 486.56 654.633 487.103C653.403 491.061 652.761 494.71 652.462 498.846C652.427 499.333 652.395 499.835 652.549 500.303C652.692 500.743 652.989 501.112 653.278 501.468C653.995 502.36 655.897 504.879 657.548 507.117L655.854 505.995C652.048 503.465 647.981 500.983 647.237 496.064C647.138 495.413 647.046 494.763 646.965 494.113C646.525 490.745 646.268 487.359 646.195 483.968C646.122 481.064 648.421 480.077 650.389 478.499Z" fill="#70A7C2"/>
<path d="M698.428 509.893C698.269 510.8 697.199 511.258 695.587 510.894L689.596 509.251C689.226 509.149 688.913 508.896 688.741 508.551L684.632 500.516C684.493 500.247 684.447 499.948 684.5 499.653C684.925 497.294 685.263 486.939 686.64 486.146C688.012 485.355 693.539 489.379 694.744 488.646C694.95 488.521 696 487.827 696.874 486.885C697.691 486.009 698.877 487.165 699.238 488.261C699.164 490.497 699.059 493.498 699.006 495.193C698.835 500.369 698.873 504.548 698.428 509.893Z" fill="#DBE9F0" fill-opacity="0.7"/>
<path d="M671.954 504.665C673.465 504.076 678.561 502.203 679.633 502.047C681.727 501.745 684.903 503.773 686.796 504.757C686.796 504.757 684.203 499.487 682.714 497.702C681.678 496.46 676.609 489.765 674.707 488.555L663.95 482.517L660.627 495.222C660.345 496.301 660.121 496.913 660.438 498.029C661.164 500.58 662.042 504.454 663.158 506.392C664.274 508.331 669.573 505.598 671.954 504.665Z" fill="#94BDD1" fill-opacity="0.7"/>
<path d="M688.332 509.642C688.172 510.594 688.551 511.596 689.208 512.308C689.757 512.903 691.923 513.415 692.619 513.571L688.957 514.634C688.237 514.843 687.471 514.842 686.747 514.631L675.106 511.228C675.106 511.228 683.843 510.141 688.332 509.642Z" fill="#94BDD1" fill-opacity="0.7"/>
<path d="M694.899 473.965C695.245 476.177 695.916 478.327 696.89 480.347C693.536 480.07 690.953 478.69 686.793 480.384C685.691 480.833 683.998 481.55 682.847 481.859C681.422 482.241 679.744 481.976 677.792 482.87C676.401 483.503 673.132 485.515 673.198 484.476C673.265 483.437 675.371 480.205 675.76 479.166C676.32 477.702 676.655 476.165 676.934 474.621C677.079 473.812 677.003 472.096 677.597 471.276C677.747 471.065 677.95 470.915 678.206 470.858C678.651 470.753 679.117 470.856 679.567 470.951C683.927 471.868 688.389 472.143 692.814 471.765C693.285 471.724 693.798 471.687 694.196 471.952C694.37 472.071 694.533 472.276 694.676 472.513C694.76 472.994 694.824 473.48 694.899 473.965Z" fill="#DBE9F0" fill-opacity="0.7"/>
<path d="M694.384 471.355C694.489 471.66 694.566 471.976 694.627 472.294C694.413 472.086 694.1 471.901 693.617 471.836C692.228 471.647 687.867 472.635 681.709 471.375C677.69 470.553 677.503 470.239 675.431 467.975C672.039 464.266 669.661 463.578 669.226 463.48C669.39 463.408 669.54 463.35 669.672 463.319C671.761 462.796 681.603 461.146 683.037 461.107C684.34 461.071 689.67 463.899 690.468 465.019C691.449 466.388 694.125 470.599 694.384 471.355Z" fill="#70A7C2"/>
<path d="M576.96 569.95C577.044 570.604 577.137 571.254 577.233 571.901C577.981 576.818 582.048 579.299 585.858 581.827L591.378 585.485C592.489 586.222 593.78 586.637 595.099 586.687L605.106 587.062L616.747 590.466C617.471 590.679 618.238 590.68 618.957 590.469L624.594 588.83C627.319 588.03 628.291 587.346 628.421 585.793C628.875 580.414 628.837 576.225 629.006 571.028C629.098 568.197 629.323 561.685 629.328 561.26C629.337 559.95 628.63 559.267 627.96 558.157C626.415 555.601 625.362 552.743 624.903 549.797C624.768 548.919 624.679 548.026 624.388 547.187C624.129 546.431 621.453 542.22 620.471 540.84C619.673 539.72 614.344 536.892 613.041 536.928C611.606 536.968 601.763 538.623 599.676 539.14C597.588 539.656 590.866 545.919 587.198 548.864C584.929 550.683 582.659 552.508 580.391 554.326C578.423 555.904 576.128 556.889 576.194 559.792C576.265 563.192 576.524 566.58 576.96 569.95Z" fill="#B8D3E0" fill-opacity="0.7"/>
<path d="M580.389 554.333C582.657 552.515 584.928 550.689 587.196 548.871C588.376 547.921 589.876 546.63 591.434 545.294C591.072 547.38 590.282 550.062 589.921 552.148C589.842 552.598 589.766 553.064 589.899 553.504C590.042 553.973 590.397 554.336 590.747 554.681C591.881 555.815 592.815 557.217 593.95 558.351C591.424 559.109 585.725 561.065 585.375 561.43C584.985 561.834 584.803 562.395 584.633 562.937C583.403 566.896 582.761 570.544 582.462 574.68C582.427 575.167 582.395 575.669 582.549 576.137C582.692 576.578 582.989 576.946 583.278 577.302C583.995 578.194 585.897 580.714 587.548 582.951L585.854 581.83C582.048 579.299 577.981 576.818 577.237 571.899C577.138 571.247 577.046 570.597 576.965 569.947C576.525 566.58 576.268 563.193 576.195 559.802C576.122 556.898 578.421 555.911 580.389 554.333Z" fill="#70A7C2"/>
<path d="M628.428 585.727C628.269 586.634 627.199 587.093 625.587 586.728L619.596 585.085C619.226 584.983 618.913 584.731 618.741 584.386L614.632 576.351C614.493 576.082 614.447 575.782 614.5 575.488C614.925 573.128 615.263 562.773 616.64 561.98C618.012 561.189 623.539 565.214 624.744 564.48C624.95 564.356 626 563.661 626.874 562.719C627.691 561.844 628.877 562.999 629.238 564.095C629.164 566.331 629.059 569.332 629.006 571.028C628.835 576.203 628.873 580.382 628.428 585.727Z" fill="#DBE9F0" fill-opacity="0.7"/>
<path d="M601.954 580.5C603.465 579.911 608.561 578.038 609.633 577.881C611.727 577.58 614.903 579.607 616.796 580.592C616.796 580.592 614.203 575.321 612.714 573.536C611.678 572.294 606.609 565.599 604.707 564.39L593.95 558.351L590.627 571.056C590.345 572.135 590.121 572.748 590.438 573.864C591.164 576.415 592.042 580.289 593.158 582.227C594.274 584.165 599.573 581.433 601.954 580.5Z" fill="#94BDD1" fill-opacity="0.7"/>
<path d="M618.332 585.476C618.172 586.429 618.551 587.43 619.208 588.143C619.757 588.737 621.923 589.25 622.619 589.405L618.957 590.469C618.237 590.678 617.471 590.677 616.747 590.466L605.106 587.062C605.106 587.062 613.843 585.976 618.332 585.476Z" fill="#94BDD1" fill-opacity="0.7"/>
<path d="M624.899 549.8C625.245 552.011 625.916 554.162 626.89 556.182C623.536 555.904 620.953 554.524 616.793 556.218C615.691 556.667 613.998 557.384 612.847 557.693C611.422 558.075 609.744 557.81 607.792 558.704C606.401 559.337 603.132 561.35 603.198 560.311C603.265 559.272 605.371 556.039 605.76 555C606.32 553.536 606.655 551.999 606.934 550.455C607.079 549.647 607.003 547.93 607.597 547.11C607.747 546.9 607.95 546.749 608.206 546.692C608.651 546.587 609.117 546.69 609.567 546.785C613.927 547.703 618.389 547.977 622.814 547.599C623.285 547.558 623.798 547.521 624.196 547.787C624.37 547.906 624.533 548.11 624.676 548.348C624.76 548.828 624.824 549.314 624.899 549.8Z" fill="#DBE9F0" fill-opacity="0.7"/>
<path d="M624.384 547.189C624.489 547.494 624.566 547.81 624.627 548.129C624.413 547.921 624.1 547.735 623.617 547.67C622.228 547.481 617.867 548.47 611.709 547.21C607.69 546.387 607.503 546.073 605.431 543.809C602.039 540.101 599.661 539.413 599.226 539.315C599.39 539.243 599.54 539.184 599.672 539.153C601.761 538.63 611.603 536.981 613.037 536.942C614.34 536.905 619.67 539.733 620.468 540.853C621.449 542.222 624.125 546.433 624.384 547.189Z" fill="#70A7C2"/>
<path d="M510.536 410.499C510.257 409.826 509.988 409.153 509.725 408.48C507.738 403.362 510.23 398.744 512.454 394.223L515.678 387.679C516.327 386.36 517.322 385.251 518.545 384.476L527.818 378.599L536.981 368.922C537.549 368.319 538.275 367.895 539.072 367.7L545.311 366.161C548.33 365.424 549.626 365.542 550.601 366.958C553.978 371.855 556.238 375.887 559.247 380.768C560.886 383.427 564.669 389.535 564.906 389.939C565.633 391.188 565.338 392.232 565.311 393.664C565.248 396.963 565.817 400.278 566.997 403.351C567.35 404.266 567.756 405.17 567.941 406.134C568.109 407 567.883 412.506 567.709 414.368C567.567 415.881 564.068 421.527 562.814 422.21C561.434 422.964 551.201 426.806 548.941 427.463C546.681 428.12 536.88 425.832 531.791 425.036C528.645 424.546 525.494 424.051 522.349 423.561C519.62 423.136 516.906 423.459 515.378 420.644C513.581 417.35 511.969 413.965 510.536 410.499Z" fill="#B8D3E0" fill-opacity="0.7"/>
<path d="M522.344 423.556C525.489 424.045 528.64 424.541 531.785 425.03C533.424 425.289 535.553 425.698 537.76 426.117C536.275 424.32 534.056 422.189 532.571 420.391C532.249 420.003 531.922 419.6 531.807 419.105C531.685 418.577 531.822 418.034 531.965 417.512C532.418 415.8 532.534 413.943 532.987 412.232C530.178 412.899 523.708 414.169 523.176 414.013C522.586 413.841 522.107 413.405 521.648 412.98C518.313 409.869 515.705 406.731 513.155 402.937C512.854 402.49 512.549 402.027 512.438 401.494C512.333 400.994 512.412 400.477 512.491 399.977C512.68 398.728 513.102 395.267 513.439 392.216L512.449 394.223C510.23 398.744 507.738 403.362 509.73 408.48C509.993 409.159 510.262 409.831 510.541 410.499C511.971 413.964 513.584 417.347 515.373 420.633C516.896 423.453 519.614 423.13 522.344 423.556Z" fill="#70A7C2"/>
<path d="M550.643 367.017C549.995 366.237 548.73 366.387 547.402 367.625L542.629 372.501C542.334 372.803 542.176 373.217 542.202 373.642L542.713 383.599C542.729 383.933 542.85 384.245 543.061 384.498C544.757 386.522 550.753 396.247 552.492 396.247C554.226 396.247 557.255 389.347 558.799 389.385C559.063 389.39 560.438 389.476 561.781 389.896C563.035 390.284 563.525 388.524 563.267 387.275C561.971 385.176 560.227 382.361 559.247 380.768C556.249 375.908 553.994 371.888 550.643 367.017Z" fill="#DBE9F0" fill-opacity="0.7"/>
<path d="M528.429 386.618C530.184 386.349 536.037 385.332 537.139 384.891C539.288 384.024 541.185 380.332 542.439 378.346C542.439 378.346 542.871 384.821 542.439 387.35C542.139 389.11 541.006 398.314 539.868 400.52L532.987 412.232L522.876 401.904C522.017 401.026 521.469 400.563 521.158 399.32C520.447 396.478 519.156 392.286 519.151 389.815C519.145 387.345 525.663 387.038 528.429 386.618Z" fill="#94BDD1" fill-opacity="0.7"/>
<path d="M541.217 372.824C540.542 372.001 540.353 370.833 540.585 369.789C540.779 368.917 542.55 367.232 543.124 366.699L539.072 367.7C538.276 367.898 537.551 368.321 536.981 368.922L527.818 378.599C527.818 378.599 536.691 374.821 541.217 372.824Z" fill="#94BDD1" fill-opacity="0.7"/>
<path d="M566.992 403.351C566.108 401.044 565.564 398.615 565.38 396.145C562.356 398.26 560.664 401.005 555.796 401.677C554.505 401.855 552.508 402.103 551.249 402.442C549.689 402.862 548.245 404.04 545.906 404.261C544.241 404.422 540.042 404.299 540.674 405.257C541.306 406.215 545.074 408.147 546.012 408.927C547.345 410.02 548.504 411.306 549.615 412.63C550.195 413.324 551.064 415.009 552.076 415.466C552.334 415.585 552.608 415.617 552.882 415.531C553.362 415.386 553.746 415.03 554.12 414.691C557.748 411.409 561.825 408.685 566.223 406.607C566.692 406.387 567.198 406.139 567.43 405.666C567.53 405.456 567.572 405.17 567.577 404.864C567.393 404.358 567.187 403.857 566.992 403.351Z" fill="#DBE9F0" fill-opacity="0.7"/>
<path d="M567.935 406.134C567.867 405.784 567.767 405.44 567.651 405.1C567.561 405.418 567.366 405.768 566.945 406.096C565.733 407.043 561.059 408.502 555.917 413.104C552.561 416.107 552.555 416.51 551.834 419.82C550.653 425.24 548.778 427.21 548.419 427.544C548.614 427.522 548.788 427.495 548.93 427.452C551.196 426.801 561.423 422.953 562.803 422.199C564.057 421.516 567.556 415.87 567.698 414.358C567.877 412.506 568.104 407 567.935 406.134Z" fill="#70A7C2"/>
<path d="M185.536 447.418C185.257 446.745 184.988 446.072 184.725 445.4C182.738 440.281 185.23 435.664 187.454 431.143L190.678 424.598C191.327 423.279 192.322 422.171 193.545 421.396L202.818 415.518L211.981 405.841C212.549 405.239 213.275 404.815 214.072 404.62L220.311 403.08C223.33 402.343 224.626 402.462 225.601 403.877C228.978 408.775 231.238 412.806 234.247 417.687C235.886 420.346 239.669 426.455 239.906 426.858C240.633 428.107 240.338 429.151 240.311 430.583C240.248 433.882 240.817 437.197 241.997 440.271C242.35 441.186 242.756 442.09 242.941 443.053C243.109 443.92 242.883 449.426 242.709 451.288C242.567 452.8 239.068 458.446 237.814 459.129C236.434 459.883 226.201 463.726 223.941 464.382C221.681 465.039 211.88 462.752 206.791 461.955C203.645 461.465 200.494 460.97 197.349 460.48C194.62 460.055 191.906 460.378 190.378 457.563C188.581 454.269 186.969 450.884 185.536 447.418Z" fill="#B8D3E0" fill-opacity="0.7"/>
<path d="M197.344 460.475C200.489 460.965 203.64 461.46 206.785 461.95C208.424 462.208 210.553 462.617 212.76 463.037C211.275 461.239 209.056 459.108 207.571 457.31C207.249 456.923 206.922 456.519 206.807 456.024C206.685 455.496 206.822 454.953 206.965 454.431C207.418 452.719 207.534 450.863 207.987 449.151C205.178 449.818 198.708 451.089 198.176 450.932C197.586 450.76 197.107 450.324 196.648 449.899C193.313 446.788 190.705 443.651 188.155 439.856C187.854 439.409 187.549 438.947 187.438 438.414C187.333 437.913 187.412 437.397 187.491 436.896C187.68 435.647 188.102 432.187 188.439 429.135L187.449 431.143C185.23 435.664 182.738 440.281 184.73 445.4C184.993 446.078 185.262 446.751 185.541 447.418C186.971 450.883 188.584 454.266 190.373 457.552C191.896 460.373 194.614 460.05 197.344 460.475Z" fill="#70A7C2"/>
<path d="M225.643 403.936C224.995 403.156 223.73 403.306 222.402 404.544L217.629 409.421C217.334 409.722 217.176 410.136 217.202 410.562L217.713 420.518C217.729 420.852 217.85 421.164 218.061 421.417C219.757 423.441 225.753 433.166 227.492 433.166C229.226 433.166 232.255 426.266 233.799 426.304C234.063 426.31 235.438 426.396 236.781 426.815C238.035 427.203 238.525 425.443 238.267 424.194C236.971 422.095 235.227 419.281 234.247 417.687C231.249 412.827 228.994 408.807 225.643 403.936Z" fill="#DBE9F0" fill-opacity="0.7"/>
<path d="M203.429 423.538C205.184 423.269 211.037 422.251 212.139 421.81C214.288 420.944 216.185 417.251 217.439 415.265C217.439 415.265 217.871 421.74 217.439 424.27C217.139 426.03 216.006 435.233 214.868 437.44L207.987 449.151L197.876 438.823C197.017 437.946 196.469 437.483 196.158 436.239C195.447 433.398 194.156 429.205 194.151 426.735C194.145 424.264 200.663 423.958 203.429 423.538Z" fill="#94BDD1" fill-opacity="0.7"/>
<path d="M216.217 409.743C215.542 408.92 215.353 407.752 215.585 406.708C215.779 405.836 217.55 404.152 218.124 403.619L214.072 404.62C213.276 404.817 212.551 405.24 211.981 405.841L202.818 415.518C202.818 415.518 211.691 411.74 216.217 409.743Z" fill="#94BDD1" fill-opacity="0.7"/>
<path d="M241.992 440.271C241.108 437.963 240.564 435.535 240.38 433.064C237.356 435.179 235.664 437.924 230.796 438.597C229.505 438.774 227.508 439.022 226.249 439.361C224.689 439.781 223.246 440.96 220.906 441.18C219.241 441.342 215.042 441.218 215.674 442.176C216.306 443.134 220.074 445.066 221.011 445.846C222.345 446.939 223.504 448.225 224.615 449.549C225.195 450.244 226.064 451.928 227.076 452.386C227.334 452.504 227.608 452.536 227.882 452.45C228.362 452.305 228.746 451.95 229.12 451.611C232.747 448.328 236.825 445.605 241.223 443.527C241.692 443.306 242.198 443.059 242.43 442.585C242.53 442.375 242.572 442.09 242.577 441.783C242.393 441.277 242.187 440.777 241.992 440.271Z" fill="#DBE9F0" fill-opacity="0.7"/>
<path d="M242.935 443.053C242.867 442.703 242.767 442.359 242.651 442.02C242.561 442.337 242.366 442.687 241.945 443.015C240.733 443.963 236.059 445.421 230.917 450.023C227.561 453.026 227.555 453.43 226.834 456.74C225.653 462.159 223.778 464.129 223.419 464.463C223.614 464.442 223.788 464.415 223.93 464.372C226.196 463.72 236.423 459.872 237.803 459.119C239.057 458.435 242.556 452.789 242.698 451.277C242.877 449.426 243.104 443.92 242.935 443.053Z" fill="#70A7C2"/>
<path d="M91.536 348.634C91.2568 347.961 90.9881 347.288 90.7246 346.615C88.7383 341.497 91.2304 336.879 93.4539 332.358L96.6785 325.814C97.3266 324.495 98.3224 323.386 99.5448 322.611L108.818 316.734L117.981 307.057C118.549 306.454 119.275 306.03 120.072 305.835L126.311 304.296C129.33 303.559 130.626 303.677 131.601 305.093C134.978 309.99 137.238 314.022 140.247 318.903C141.886 321.562 145.669 327.67 145.906 328.074C146.633 329.323 146.338 330.367 146.311 331.799C146.248 335.098 146.817 338.413 147.997 341.486C148.35 342.401 148.756 343.305 148.941 344.269C149.109 345.135 148.883 350.641 148.709 352.504C148.567 354.016 145.068 359.662 143.814 360.345C142.434 361.099 132.201 364.942 129.941 365.598C127.681 366.255 117.88 363.967 112.791 363.171C109.645 362.681 106.494 362.186 103.349 361.696C100.62 361.271 97.9061 361.594 96.3782 358.779C94.5815 355.485 92.9692 352.1 91.536 348.634Z" fill="#B8D3E0" fill-opacity="0.7"/>
<path d="M103.344 361.691C106.489 362.181 109.64 362.676 112.785 363.165C114.424 363.424 116.553 363.833 118.76 364.253C117.275 362.455 115.056 360.324 113.571 358.526C113.249 358.139 112.922 357.735 112.807 357.24C112.685 356.712 112.822 356.169 112.965 355.647C113.418 353.935 113.534 352.078 113.987 350.367C111.178 351.034 104.708 352.304 104.176 352.148C103.586 351.976 103.107 351.54 102.648 351.115C99.3129 348.004 96.7048 344.866 94.1547 341.072C93.8544 340.625 93.5488 340.162 93.4381 339.629C93.3327 339.129 93.4118 338.612 93.4908 338.112C93.6805 336.863 94.102 333.402 94.4392 330.351L93.4487 332.358C91.2305 336.879 88.7383 341.497 90.7299 346.615C90.9934 347.294 91.2621 347.966 91.5413 348.634C92.9706 352.099 94.5835 355.482 96.3729 358.768C97.8956 361.589 100.614 361.266 103.344 361.691Z" fill="#70A7C2"/>
<path d="M131.643 305.152C130.995 304.371 129.73 304.522 128.402 305.76L123.629 310.636C123.334 310.938 123.176 311.352 123.202 311.777L123.713 321.734C123.729 322.068 123.85 322.38 124.061 322.633C125.757 324.657 131.753 334.382 133.492 334.382C135.226 334.382 138.255 327.482 139.799 327.52C140.063 327.525 141.438 327.611 142.781 328.031C144.035 328.419 144.525 326.659 144.267 325.41C142.971 323.311 141.227 320.496 140.247 318.903C137.249 314.043 134.994 310.023 131.643 305.152Z" fill="#DBE9F0" fill-opacity="0.7"/>
<path d="M109.429 324.753C111.184 324.484 117.037 323.467 118.139 323.026C120.288 322.159 122.185 318.467 123.439 316.481C123.439 316.481 123.871 322.956 123.439 325.485C123.139 327.245 122.006 336.449 120.868 338.655L113.987 350.367L103.876 340.038C103.017 339.161 102.469 338.698 102.158 337.455C101.447 334.613 100.156 330.421 100.151 327.95C100.145 325.48 106.663 325.173 109.429 324.753Z" fill="#94BDD1" fill-opacity="0.7"/>
<path d="M122.217 310.959C121.542 310.136 121.353 308.968 121.585 307.924C121.779 307.052 123.55 305.367 124.124 304.834L120.072 305.835C119.276 306.033 118.551 306.456 117.981 307.057L108.818 316.734C108.818 316.734 117.691 312.956 122.217 310.959Z" fill="#94BDD1" fill-opacity="0.7"/>
<path d="M147.992 341.486C147.108 339.179 146.564 336.75 146.38 334.28C143.356 336.395 141.664 339.14 136.796 339.812C135.505 339.99 133.508 340.238 132.249 340.577C130.689 340.996 129.245 342.175 126.906 342.396C125.241 342.557 121.042 342.434 121.674 343.392C122.306 344.35 126.074 346.282 127.011 347.062C128.345 348.155 129.504 349.441 130.615 350.765C131.195 351.459 132.064 353.144 133.076 353.602C133.334 353.72 133.608 353.752 133.882 353.666C134.362 353.521 134.746 353.166 135.12 352.827C138.747 349.544 142.825 346.82 147.223 344.742C147.692 344.522 148.198 344.274 148.43 343.801C148.53 343.591 148.572 343.305 148.577 342.999C148.393 342.493 148.187 341.992 147.992 341.486Z" fill="#DBE9F0" fill-opacity="0.7"/>
<path d="M148.935 344.269C148.867 343.919 148.767 343.575 148.651 343.235C148.561 343.553 148.366 343.903 147.945 344.231C146.733 345.178 142.059 346.637 136.917 351.239C133.561 354.242 133.555 354.646 132.834 357.956C131.653 363.375 129.778 365.345 129.419 365.679C129.614 365.657 129.788 365.63 129.93 365.587C132.196 364.936 142.423 361.088 143.803 360.335C145.057 359.651 148.556 354.005 148.698 352.493C148.877 350.641 149.104 345.135 148.935 344.269Z" fill="#70A7C2"/>
<path d="M606.536 379.566C606.257 378.894 605.988 378.221 605.725 377.548C603.738 372.43 606.23 367.812 608.454 363.291L611.678 356.746C612.327 355.428 613.322 354.319 614.545 353.544L623.818 347.667L632.981 337.989C633.549 337.387 634.275 336.963 635.072 336.768L641.311 335.229C644.33 334.491 645.626 334.61 646.601 336.025C649.978 340.923 652.238 344.954 655.247 349.836C656.886 352.494 660.669 358.603 660.906 359.007C661.633 360.255 661.338 361.3 661.311 362.731C661.248 366.03 661.817 369.346 662.997 372.419C663.35 373.334 663.756 374.238 663.941 375.201C664.109 376.068 663.883 381.574 663.709 383.436C663.567 384.948 660.068 390.594 658.814 391.278C657.434 392.031 647.201 395.874 644.941 396.531C642.681 397.187 632.88 394.9 627.791 394.103C624.645 393.614 621.494 393.118 618.349 392.629C615.62 392.203 612.906 392.526 611.378 389.711C609.581 386.418 607.969 383.032 606.536 379.566Z" fill="#B8D3E0" fill-opacity="0.7"/>
<path d="M618.344 392.623C621.489 393.113 624.64 393.608 627.785 394.098C629.424 394.356 631.553 394.765 633.76 395.185C632.275 393.387 630.056 391.256 628.571 389.459C628.249 389.071 627.922 388.667 627.807 388.172C627.685 387.645 627.822 387.101 627.965 386.579C628.418 384.868 628.534 383.011 628.987 381.299C626.178 381.967 619.708 383.237 619.176 383.081C618.586 382.909 618.107 382.473 617.648 382.047C614.313 378.937 611.705 375.799 609.155 372.004C608.854 371.558 608.549 371.095 608.438 370.562C608.333 370.062 608.412 369.545 608.491 369.044C608.68 367.796 609.102 364.335 609.439 361.283L608.449 363.291C606.23 367.812 603.738 372.43 605.73 377.548C605.993 378.226 606.262 378.899 606.541 379.566C607.971 383.032 609.584 386.415 611.373 389.701C612.896 392.521 615.614 392.198 618.344 392.623Z" fill="#70A7C2"/>
<path d="M646.643 336.084C645.995 335.304 644.73 335.455 643.402 336.692L638.629 341.569C638.334 341.87 638.176 342.284 638.202 342.71L638.713 352.667C638.729 353 638.85 353.313 639.061 353.565C640.757 355.589 646.753 365.315 648.492 365.315C650.226 365.315 653.255 358.415 654.799 358.452C655.063 358.458 656.438 358.544 657.781 358.964C659.035 359.351 659.525 357.591 659.267 356.343C657.971 354.244 656.227 351.429 655.247 349.836C652.249 344.976 649.994 340.955 646.643 336.084Z" fill="#DBE9F0" fill-opacity="0.7"/>
<path d="M624.429 355.686C626.184 355.417 632.037 354.4 633.139 353.958C635.288 353.092 637.185 349.4 638.439 347.414C638.439 347.414 638.871 353.888 638.439 356.418C638.139 358.178 637.006 367.381 635.868 369.588L628.987 381.299L618.876 370.971C618.017 370.094 617.469 369.631 617.158 368.388C616.447 365.546 615.156 361.353 615.151 358.883C615.145 356.413 621.663 356.106 624.429 355.686Z" fill="#94BDD1" fill-opacity="0.7"/>
<path d="M637.217 341.892C636.542 341.068 636.353 339.9 636.585 338.856C636.779 337.984 638.55 336.3 639.124 335.767L635.072 336.768C634.276 336.965 633.551 337.388 632.981 337.989L623.818 347.667C623.818 347.667 632.691 343.888 637.217 341.892Z" fill="#94BDD1" fill-opacity="0.7"/>
<path d="M662.992 372.419C662.108 370.112 661.564 367.683 661.38 365.212C658.356 367.327 656.664 370.072 651.796 370.745C650.505 370.923 648.508 371.17 647.249 371.509C645.689 371.929 644.245 373.108 641.906 373.328C640.241 373.49 636.042 373.366 636.674 374.324C637.306 375.282 641.074 377.214 642.012 377.995C643.345 379.087 644.504 380.374 645.615 381.698C646.195 382.392 647.064 384.076 648.076 384.534C648.334 384.652 648.608 384.685 648.882 384.599C649.362 384.453 649.746 384.098 650.12 383.759C653.748 380.476 657.825 377.753 662.223 375.675C662.692 375.454 663.198 375.207 663.43 374.733C663.53 374.523 663.572 374.238 663.577 373.931C663.393 373.425 663.187 372.925 662.992 372.419Z" fill="#DBE9F0" fill-opacity="0.7"/>
<path d="M663.935 375.201C663.867 374.852 663.767 374.507 663.651 374.168C663.561 374.486 663.366 374.835 662.945 375.164C661.733 376.111 657.059 377.57 651.917 382.171C648.561 385.174 648.555 385.578 647.834 388.888C646.653 394.308 644.778 396.278 644.419 396.611C644.614 396.59 644.788 396.563 644.93 396.52C647.196 395.869 657.423 392.02 658.803 391.267C660.057 390.583 663.556 384.938 663.698 383.425C663.877 381.574 664.104 376.068 663.935 375.201Z" fill="#70A7C2"/>
<path d="M425.302 288.526C425.065 287.962 424.837 287.398 424.614 286.833C422.931 282.541 425.043 278.667 426.927 274.876L429.66 269.387C430.209 268.281 431.053 267.351 432.089 266.701L439.947 261.772L447.712 253.656C448.194 253.15 448.81 252.794 449.485 252.631L454.772 251.34C457.33 250.721 458.429 250.821 459.255 252.008C462.117 256.116 464.033 259.497 466.582 263.591C467.971 265.821 471.177 270.944 471.378 271.283C471.994 272.33 471.744 273.206 471.722 274.406C471.668 277.173 472.15 279.954 473.15 282.531C473.45 283.299 473.793 284.057 473.95 284.865C474.093 285.592 473.901 290.21 473.753 291.772C473.633 293.04 470.668 297.775 469.605 298.349C468.435 298.981 459.764 302.204 457.848 302.754C455.933 303.305 447.628 301.386 443.314 300.718C440.648 300.308 437.978 299.892 435.313 299.482C433 299.125 430.7 299.396 429.405 297.035C427.883 294.272 426.516 291.433 425.302 288.526Z" fill="#B8D3E0" fill-opacity="0.7"/>
<path d="M435.308 299.477C437.974 299.888 440.644 300.303 443.31 300.714C444.698 300.931 446.502 301.274 448.373 301.626C447.114 300.118 445.234 298.331 443.975 296.823C443.703 296.498 443.426 296.159 443.328 295.744C443.225 295.302 443.341 294.846 443.462 294.408C443.846 292.972 443.944 291.415 444.328 289.98C441.948 290.539 436.465 291.605 436.014 291.474C435.514 291.329 435.107 290.964 434.719 290.607C431.892 287.998 429.682 285.366 427.521 282.184C427.266 281.809 427.007 281.421 426.914 280.974C426.824 280.554 426.891 280.121 426.958 279.701C427.119 278.654 427.476 275.751 427.762 273.192L426.923 274.876C425.043 278.667 422.931 282.541 424.619 286.833C424.842 287.402 425.07 287.966 425.306 288.526C426.517 291.432 427.884 294.27 429.401 297.026C430.691 299.391 432.995 299.12 435.308 299.477Z" fill="#70A7C2"/>
<path d="M459.291 252.058C458.741 251.403 457.67 251.529 456.544 252.568L452.499 256.657C452.249 256.91 452.115 257.258 452.137 257.614L452.57 265.965C452.584 266.245 452.687 266.507 452.865 266.719C454.303 268.416 459.384 276.573 460.858 276.573C462.327 276.573 464.894 270.786 466.203 270.818C466.426 270.822 467.591 270.894 468.73 271.246C469.793 271.571 470.208 270.095 469.989 269.048C468.891 267.288 467.413 264.927 466.582 263.591C464.041 259.515 462.13 256.143 459.291 252.058Z" fill="#DBE9F0" fill-opacity="0.7"/>
<path d="M440.465 268.497C441.952 268.272 446.913 267.419 447.846 267.048C449.668 266.322 451.276 263.225 452.338 261.559C452.338 261.559 452.704 266.99 452.338 269.111C452.084 270.587 451.124 278.306 450.159 280.157L444.328 289.98L435.759 281.317C435.031 280.581 434.567 280.193 434.303 279.15C433.701 276.767 432.607 273.251 432.602 271.179C432.598 269.107 438.121 268.85 440.465 268.497Z" fill="#94BDD1" fill-opacity="0.7"/>
<path d="M451.302 256.928C450.731 256.237 450.57 255.258 450.767 254.382C450.932 253.651 452.432 252.238 452.919 251.791L449.485 252.631C448.81 252.796 448.196 253.151 447.712 253.656L439.947 261.772C439.947 261.772 447.467 258.603 451.302 256.928Z" fill="#94BDD1" fill-opacity="0.7"/>
<path d="M473.146 282.531C472.396 280.596 471.936 278.559 471.78 276.487C469.217 278.261 467.783 280.563 463.657 281.128C462.564 281.277 460.871 281.484 459.804 281.769C458.482 282.121 457.259 283.109 455.276 283.294C453.865 283.43 450.307 283.326 450.842 284.129C451.378 284.933 454.571 286.553 455.366 287.208C456.495 288.124 457.478 289.203 458.42 290.314C458.911 290.896 459.648 292.309 460.505 292.693C460.724 292.792 460.956 292.819 461.188 292.747C461.595 292.625 461.921 292.327 462.238 292.043C465.311 289.289 468.767 287.005 472.494 285.262C472.891 285.077 473.32 284.87 473.517 284.473C473.601 284.296 473.637 284.057 473.642 283.8C473.485 283.376 473.311 282.956 473.146 282.531Z" fill="#DBE9F0" fill-opacity="0.7"/>
<path d="M473.945 284.865C473.887 284.572 473.802 284.283 473.704 283.999C473.628 284.265 473.463 284.558 473.106 284.834C472.079 285.628 468.118 286.851 463.76 290.711C460.916 293.23 460.911 293.568 460.3 296.344C459.299 300.89 457.71 302.542 457.406 302.822C457.571 302.804 457.719 302.781 457.839 302.745C459.759 302.199 468.426 298.971 469.596 298.34C470.659 297.766 473.624 293.031 473.744 291.763C473.896 290.21 474.088 285.592 473.945 284.865Z" fill="#70A7C2"/>
<path d="M70.3017 493.079C70.0651 492.515 69.8373 491.951 69.6141 491.386C67.9307 487.094 70.0427 483.221 71.927 479.429L74.6597 473.94C75.2089 472.834 76.0529 471.904 77.0888 471.254L84.9475 466.325L92.7124 458.209C93.1944 457.703 93.8095 457.347 94.485 457.184L99.7718 455.893C102.33 455.275 103.429 455.374 104.255 456.561C107.117 460.669 109.033 464.05 111.582 468.144C112.971 470.374 116.177 475.497 116.378 475.836C116.994 476.883 116.744 477.759 116.722 478.959C116.668 481.727 117.15 484.507 118.15 487.085C118.45 487.852 118.793 488.61 118.95 489.418C119.093 490.145 118.901 494.763 118.753 496.325C118.633 497.593 115.668 502.328 114.605 502.902C113.435 503.534 104.764 506.757 102.848 507.307C100.933 507.858 92.6275 505.94 88.3142 505.272C85.6485 504.861 82.9783 504.445 80.3126 504.035C77.9997 503.678 75.7001 503.949 74.4052 501.588C72.8826 498.826 71.5163 495.986 70.3017 493.079Z" fill="#B8D3E0" fill-opacity="0.7"/>
<path d="M80.3082 504.03C82.9739 504.441 85.644 504.856 88.3097 505.267C89.6984 505.484 91.5023 505.827 93.3732 506.179C92.114 504.671 90.2342 502.884 88.975 501.376C88.7027 501.051 88.4258 500.712 88.3276 500.297C88.2249 499.855 88.341 499.399 88.4615 498.961C88.8456 497.525 88.9438 495.968 89.3278 494.533C86.9479 495.092 81.4646 496.158 81.0137 496.027C80.5136 495.882 80.1072 495.517 79.7188 495.16C76.8923 492.551 74.6821 489.919 72.5209 486.737C72.2664 486.362 72.0074 485.974 71.9137 485.527C71.8244 485.108 71.8913 484.674 71.9583 484.254C72.1191 483.207 72.4763 480.305 72.762 477.745L71.9226 479.429C70.0428 483.221 67.9307 487.094 69.6186 491.386C69.8418 491.955 70.0695 492.519 70.3062 493.079C71.5174 495.986 72.8843 498.823 74.4007 501.579C75.6912 503.944 77.9952 503.674 80.3082 504.03Z" fill="#70A7C2"/>
<path d="M104.291 456.611C103.741 455.956 102.67 456.083 101.544 457.121L97.499 461.21C97.249 461.463 97.115 461.811 97.1373 462.167L97.5705 470.518C97.5839 470.798 97.6866 471.06 97.8652 471.272C99.303 472.969 104.384 481.126 105.858 481.126C107.327 481.126 109.894 475.339 111.203 475.371C111.426 475.375 112.591 475.448 113.73 475.8C114.793 476.125 115.208 474.649 114.989 473.601C113.891 471.841 112.413 469.48 111.582 468.144C109.041 464.068 107.13 460.696 104.291 456.611Z" fill="#DBE9F0" fill-opacity="0.7"/>
<path d="M85.4654 473.051C86.9523 472.825 91.9131 471.972 92.8463 471.602C94.6681 470.875 96.2756 467.778 97.3383 466.113C97.3383 466.113 97.7044 471.543 97.3383 473.665C97.0838 475.141 96.1238 482.86 95.1593 484.71L89.3278 494.533L80.7591 485.87C80.0313 485.135 79.5669 484.746 79.3035 483.704C78.7007 481.32 77.6067 477.804 77.6023 475.732C77.5978 473.66 83.1212 473.403 85.4654 473.051Z" fill="#94BDD1" fill-opacity="0.7"/>
<path d="M96.3024 461.481C95.7308 460.791 95.5701 459.811 95.7665 458.935C95.9318 458.204 97.432 456.791 97.9187 456.344L94.485 457.184C93.8102 457.349 93.1956 457.705 92.7124 458.209L84.9475 466.325C84.9475 466.325 92.4668 463.156 96.3024 461.481Z" fill="#94BDD1" fill-opacity="0.7"/>
<path d="M118.146 487.085C117.396 485.15 116.936 483.113 116.78 481.04C114.217 482.814 112.783 485.117 108.657 485.681C107.564 485.83 105.871 486.037 104.804 486.322C103.482 486.674 102.259 487.662 100.276 487.848C98.8654 487.983 95.3066 487.879 95.8425 488.683C96.3783 489.486 99.5709 491.107 100.366 491.761C101.495 492.677 102.478 493.756 103.42 494.867C103.911 495.449 104.648 496.862 105.505 497.246C105.724 497.345 105.956 497.372 106.188 497.3C106.595 497.178 106.921 496.88 107.238 496.596C110.311 493.843 113.767 491.559 117.494 489.816C117.891 489.631 118.32 489.423 118.517 489.026C118.601 488.85 118.637 488.61 118.642 488.353C118.485 487.929 118.311 487.509 118.146 487.085Z" fill="#DBE9F0" fill-opacity="0.7"/>
<path d="M118.945 489.418C118.887 489.125 118.802 488.836 118.704 488.552C118.628 488.818 118.463 489.111 118.106 489.387C117.079 490.181 113.118 491.405 108.76 495.264C105.916 497.783 105.911 498.121 105.3 500.897C104.299 505.443 102.71 507.095 102.406 507.375C102.571 507.357 102.719 507.334 102.839 507.298C104.759 506.752 113.426 503.525 114.596 502.893C115.659 502.319 118.624 497.584 118.744 496.316C118.896 494.763 119.088 490.145 118.945 489.418Z" fill="#70A7C2"/>
<path d="M246.859 336.439C246.951 337.16 247.053 337.874 247.159 338.587C247.982 343.996 252.457 346.727 256.649 349.509L262.723 353.533C263.945 354.345 265.366 354.801 266.817 354.856L277.827 355.269L290.637 359.013C291.433 359.248 292.277 359.249 293.068 359.017L299.271 357.213C302.268 356.334 303.339 355.581 303.482 353.872C303.981 347.954 303.939 343.344 304.124 337.626C304.226 334.511 304.474 327.346 304.479 326.879C304.49 325.438 303.712 324.685 302.974 323.464C301.274 320.652 300.115 317.508 299.611 314.266C299.462 313.3 299.364 312.317 299.044 311.394C298.759 310.562 295.815 305.929 294.734 304.411C293.856 303.178 287.992 300.066 286.558 300.106C284.98 300.15 274.149 301.972 271.853 302.54C269.556 303.108 262.16 309.998 258.123 313.24C255.627 315.24 253.13 317.249 250.634 319.249C248.468 320.986 245.943 322.069 246.016 325.263C246.094 329.004 246.379 332.732 246.859 336.439Z" fill="#B8D3E0" fill-opacity="0.7"/>
<path d="M250.632 319.257C253.128 317.256 255.625 315.248 258.121 313.247C259.42 312.202 261.07 310.781 262.784 309.311C262.386 311.606 261.517 314.557 261.12 316.853C261.033 317.348 260.95 317.86 261.096 318.345C261.253 318.861 261.644 319.261 262.028 319.639C263.277 320.887 264.304 322.43 265.552 323.678C262.773 324.512 256.503 326.664 256.117 327.066C255.689 327.511 255.489 328.127 255.302 328.724C253.948 333.079 253.241 337.094 252.913 341.645C252.874 342.181 252.838 342.733 253.008 343.248C253.166 343.732 253.492 344.138 253.811 344.53C254.599 345.511 256.693 348.284 258.509 350.745L256.644 349.511C252.457 346.727 247.982 343.996 247.164 338.584C247.055 337.867 246.953 337.152 246.864 336.437C246.38 332.732 246.098 329.006 246.017 325.275C245.937 322.079 248.466 320.993 250.632 319.257Z" fill="#70A7C2"/>
<path d="M303.489 353.8C303.314 354.798 302.137 355.302 300.363 354.901L293.772 353.093C293.364 352.981 293.02 352.703 292.831 352.324L288.309 343.483C288.156 343.187 288.106 342.857 288.163 342.533C288.632 339.937 289.004 328.543 290.518 327.671C292.028 326.801 298.11 331.229 299.436 330.422C299.663 330.285 300.818 329.52 301.779 328.484C302.678 327.521 303.983 328.792 304.381 329.998C304.298 332.458 304.183 335.76 304.124 337.626C303.937 343.32 303.978 347.919 303.489 353.8Z" fill="#DBE9F0" fill-opacity="0.7"/>
<path d="M274.359 348.048C276.022 347.4 281.629 345.339 282.808 345.167C285.113 344.835 288.607 347.066 290.691 348.149C290.691 348.149 287.837 342.35 286.199 340.386C285.059 339.019 279.481 331.653 277.389 330.322L265.552 323.678L261.896 337.657C261.586 338.844 261.34 339.518 261.689 340.746C262.487 343.553 263.454 347.816 264.682 349.948C265.909 352.081 271.74 349.074 274.359 348.048Z" fill="#94BDD1" fill-opacity="0.7"/>
<path d="M292.38 353.523C292.204 354.572 292.621 355.674 293.344 356.458C293.949 357.112 296.331 357.675 297.097 357.847L293.068 359.017C292.276 359.247 291.433 359.245 290.637 359.013L277.827 355.269C277.827 355.269 287.442 354.073 292.38 353.523Z" fill="#94BDD1" fill-opacity="0.7"/>
<path d="M299.606 314.269C299.986 316.702 300.725 319.068 301.796 321.291C298.107 320.985 295.264 319.467 290.687 321.331C289.474 321.825 287.611 322.614 286.345 322.954C284.777 323.374 282.931 323.083 280.783 324.067C279.252 324.763 275.656 326.977 275.729 325.834C275.802 324.691 278.12 321.134 278.547 319.991C279.164 318.38 279.532 316.689 279.84 314.99C279.998 314.1 279.915 312.212 280.568 311.309C280.734 311.078 280.957 310.912 281.238 310.849C281.728 310.734 282.241 310.847 282.736 310.952C287.533 311.961 292.443 312.263 297.311 311.847C297.83 311.802 298.394 311.762 298.832 312.054C299.024 312.185 299.203 312.409 299.361 312.671C299.453 313.2 299.523 313.735 299.606 314.269Z" fill="#DBE9F0" fill-opacity="0.7"/>
<path d="M299.039 311.396C299.154 311.732 299.239 312.08 299.307 312.43C299.071 312.201 298.726 311.997 298.195 311.926C296.667 311.717 291.868 312.805 285.093 311.419C280.671 310.514 280.465 310.169 278.185 307.677C274.453 303.597 271.837 302.84 271.358 302.732C271.539 302.653 271.703 302.589 271.849 302.554C274.147 301.979 284.976 300.164 286.555 300.121C287.988 300.081 293.852 303.193 294.73 304.425C295.81 305.931 298.754 310.565 299.039 311.396Z" fill="#70A7C2"/>
<path d="M201.859 550.971C201.951 551.691 202.053 552.406 202.159 553.118C202.982 558.528 207.457 561.258 211.649 564.04L217.723 568.064C218.945 568.876 220.366 569.332 221.817 569.387L232.827 569.8L245.637 573.545C246.433 573.779 247.277 573.78 248.068 573.548L254.271 571.745C257.268 570.865 258.339 570.113 258.482 568.403C258.981 562.486 258.939 557.876 259.124 552.157C259.226 549.043 259.474 541.877 259.479 541.41C259.49 539.969 258.712 539.217 257.975 537.996C256.274 535.183 255.115 532.039 254.611 528.797C254.462 527.831 254.364 526.848 254.044 525.925C253.759 525.093 250.815 520.46 249.734 518.942C248.856 517.709 242.992 514.598 241.558 514.638C239.98 514.681 229.149 516.503 226.853 517.071C224.556 517.64 217.16 524.53 213.123 527.771C210.627 529.772 208.13 531.78 205.634 533.781C203.468 535.517 200.943 536.6 201.016 539.794C201.094 543.536 201.379 547.263 201.859 550.971Z" fill="#B8D3E0" fill-opacity="0.7"/>
<path d="M205.632 533.788C208.128 531.787 210.625 529.779 213.121 527.778C214.42 526.733 216.07 525.312 217.784 523.842C217.386 526.138 216.517 529.089 216.12 531.384C216.033 531.879 215.95 532.391 216.096 532.876C216.253 533.392 216.644 533.792 217.028 534.171C218.277 535.419 219.304 536.961 220.552 538.21C217.773 539.044 211.503 541.196 211.117 541.597C210.689 542.042 210.489 542.658 210.302 543.255C208.948 547.611 208.241 551.625 207.913 556.176C207.874 556.712 207.838 557.264 208.008 557.779C208.166 558.264 208.492 558.669 208.811 559.061C209.599 560.043 211.693 562.815 213.509 565.277L211.644 564.043C207.457 561.258 202.982 558.528 202.164 553.115C202.055 552.399 201.953 551.684 201.864 550.968C201.38 547.263 201.098 543.537 201.017 539.806C200.937 536.61 203.466 535.524 205.632 533.788Z" fill="#70A7C2"/>
<path d="M258.489 568.331C258.314 569.329 257.137 569.834 255.363 569.433L248.772 567.624C248.364 567.513 248.02 567.235 247.831 566.855L243.309 558.014C243.156 557.718 243.106 557.388 243.163 557.065C243.632 554.468 244.004 543.075 245.518 542.202C247.029 541.332 253.11 545.76 254.436 544.953C254.663 544.816 255.818 544.052 256.779 543.016C257.678 542.052 258.983 543.324 259.381 544.53C259.298 546.99 259.183 550.292 259.124 552.157C258.937 557.852 258.978 562.45 258.489 568.331Z" fill="#DBE9F0" fill-opacity="0.7"/>
<path d="M229.359 562.579C231.022 561.931 236.629 559.87 237.808 559.698C240.113 559.366 243.607 561.597 245.691 562.68C245.691 562.68 242.837 556.881 241.199 554.917C240.059 553.551 234.481 546.185 232.389 544.853L220.552 538.21L216.896 552.188C216.586 553.376 216.34 554.05 216.689 555.278C217.487 558.085 218.454 562.347 219.682 564.48C220.909 566.612 226.74 563.606 229.359 562.579Z" fill="#94BDD1" fill-opacity="0.7"/>
<path d="M247.38 568.055C247.204 569.103 247.621 570.205 248.344 570.989C248.949 571.643 251.331 572.207 252.097 572.378L248.068 573.548C247.276 573.778 246.433 573.777 245.637 573.545L232.827 569.8C232.827 569.8 242.442 568.604 247.38 568.055Z" fill="#94BDD1" fill-opacity="0.7"/>
<path d="M254.606 528.8C254.986 531.233 255.725 533.6 256.796 535.822C253.107 535.517 250.264 533.999 245.687 535.862C244.474 536.357 242.611 537.146 241.345 537.485C239.777 537.906 237.931 537.614 235.783 538.598C234.252 539.294 230.656 541.509 230.729 540.365C230.802 539.222 233.12 535.666 233.547 534.522C234.164 532.911 234.532 531.22 234.84 529.521C234.998 528.632 234.915 526.743 235.568 525.841C235.734 525.609 235.957 525.444 236.238 525.381C236.728 525.265 237.241 525.378 237.736 525.483C242.533 526.493 247.443 526.794 252.311 526.379C252.83 526.334 253.394 526.293 253.832 526.585C254.024 526.716 254.203 526.941 254.361 527.203C254.453 527.731 254.523 528.266 254.606 528.8Z" fill="#DBE9F0" fill-opacity="0.7"/>
<path d="M254.04 525.928C254.154 526.264 254.239 526.611 254.307 526.961C254.071 526.733 253.726 526.529 253.195 526.457C251.667 526.249 246.868 527.337 240.093 525.95C235.671 525.045 235.465 524.7 233.185 522.209C229.453 518.128 226.837 517.371 226.358 517.263C226.539 517.184 226.703 517.12 226.849 517.086C229.147 516.51 239.976 514.695 241.555 514.652C242.988 514.612 248.852 517.724 249.73 518.957C250.81 520.463 253.754 525.096 254.04 525.928Z" fill="#70A7C2"/>
<path d="M391.536 582.124C391.257 581.451 390.988 580.778 390.725 580.105C388.738 574.987 391.23 570.369 393.454 565.848L396.678 559.304C397.327 557.985 398.322 556.876 399.545 556.101L408.818 550.224L417.981 540.547C418.549 539.944 419.275 539.52 420.072 539.325L426.311 537.786C429.33 537.049 430.626 537.167 431.601 538.583C434.978 543.48 437.238 547.511 440.247 552.393C441.886 555.052 445.669 561.16 445.906 561.564C446.633 562.813 446.338 563.857 446.311 565.289C446.248 568.588 446.817 571.903 447.997 574.976C448.35 575.891 448.756 576.795 448.941 577.759C449.109 578.625 448.883 584.131 448.709 585.993C448.567 587.506 445.068 593.152 443.814 593.835C442.434 594.589 432.201 598.431 429.941 599.088C427.681 599.745 417.88 597.457 412.791 596.661C409.645 596.171 406.494 595.676 403.349 595.186C400.62 594.761 397.906 595.084 396.378 592.269C394.581 588.975 392.969 585.59 391.536 582.124Z" fill="#B8D3E0" fill-opacity="0.7"/>
<path d="M403.344 595.181C406.489 595.671 409.64 596.166 412.785 596.655C414.424 596.914 416.553 597.323 418.76 597.743C417.275 595.945 415.056 593.814 413.571 592.016C413.249 591.629 412.922 591.225 412.807 590.73C412.685 590.202 412.822 589.659 412.965 589.137C413.418 587.425 413.534 585.568 413.987 583.857C411.178 584.524 404.708 585.794 404.176 585.638C403.586 585.466 403.107 585.03 402.648 584.605C399.313 581.494 396.705 578.356 394.155 574.562C393.854 574.115 393.549 573.652 393.438 573.12C393.333 572.619 393.412 572.102 393.491 571.602C393.68 570.353 394.102 566.892 394.439 563.841L393.449 565.848C391.23 570.369 388.738 574.987 390.73 580.105C390.993 580.784 391.262 581.456 391.541 582.124C392.971 585.589 394.584 588.972 396.373 592.258C397.896 595.078 400.614 594.756 403.344 595.181Z" fill="#70A7C2"/>
<path d="M431.643 538.642C430.995 537.861 429.73 538.012 428.402 539.25L423.629 544.126C423.334 544.428 423.176 544.842 423.202 545.267L423.713 555.224C423.729 555.558 423.85 555.87 424.061 556.123C425.757 558.146 431.753 567.872 433.492 567.872C435.226 567.872 438.255 560.972 439.799 561.01C440.063 561.015 441.438 561.101 442.781 561.521C444.035 561.909 444.525 560.149 444.267 558.9C442.971 556.801 441.227 553.986 440.247 552.393C437.249 547.533 434.994 543.513 431.643 538.642Z" fill="#DBE9F0" fill-opacity="0.7"/>
<path d="M409.429 558.243C411.184 557.974 417.037 556.957 418.139 556.516C420.288 555.649 422.185 551.957 423.439 549.971C423.439 549.971 423.871 556.446 423.439 558.975C423.139 560.735 422.006 569.939 420.868 572.145L413.987 583.857L403.876 573.529C403.017 572.651 402.469 572.188 402.158 570.945C401.447 568.103 400.156 563.911 400.151 561.44C400.145 558.97 406.663 558.663 409.429 558.243Z" fill="#94BDD1" fill-opacity="0.7"/>
<path d="M422.217 544.449C421.542 543.626 421.353 542.458 421.585 541.414C421.779 540.542 423.55 538.857 424.124 538.324L420.072 539.325C419.276 539.522 418.551 539.946 417.981 540.547L408.818 550.224C408.818 550.224 417.691 546.446 422.217 544.449Z" fill="#94BDD1" fill-opacity="0.7"/>
<path d="M447.992 574.976C447.108 572.669 446.564 570.24 446.38 567.77C443.356 569.885 441.664 572.63 436.796 573.302C435.505 573.48 433.508 573.728 432.249 574.067C430.689 574.487 429.245 575.665 426.906 575.886C425.241 576.047 421.042 575.924 421.674 576.882C422.306 577.84 426.074 579.772 427.011 580.552C428.345 581.645 429.504 582.931 430.615 584.255C431.195 584.949 432.064 586.634 433.076 587.091C433.334 587.21 433.608 587.242 433.882 587.156C434.362 587.011 434.746 586.655 435.12 586.316C438.747 583.034 442.825 580.311 447.223 578.233C447.692 578.012 448.198 577.764 448.43 577.291C448.53 577.081 448.572 576.795 448.577 576.489C448.393 575.983 448.187 575.482 447.992 574.976Z" fill="#DBE9F0" fill-opacity="0.7"/>
<path d="M448.935 577.759C448.867 577.409 448.767 577.065 448.651 576.726C448.561 577.043 448.366 577.393 447.945 577.721C446.733 578.668 442.059 580.127 436.917 584.729C433.561 587.732 433.555 588.136 432.834 591.446C431.653 596.865 429.778 598.835 429.419 599.169C429.614 599.147 429.788 599.12 429.93 599.077C432.196 598.426 442.423 594.578 443.803 593.824C445.057 593.141 448.556 587.495 448.698 585.983C448.877 584.131 449.104 578.625 448.935 577.759Z" fill="#70A7C2"/>
<path d="M361.536 478.35C361.257 477.678 360.988 477.005 360.725 476.332C358.738 471.214 361.23 466.596 363.454 462.075L366.678 455.53C367.327 454.212 368.322 453.103 369.545 452.328L378.818 446.451L387.981 436.774C388.549 436.171 389.275 435.747 390.072 435.552L396.311 434.013C399.33 433.276 400.626 433.394 401.601 434.809C404.978 439.707 407.238 443.738 410.247 448.62C411.886 451.279 415.669 457.387 415.906 457.791C416.633 459.04 416.338 460.084 416.311 461.515C416.248 464.814 416.817 468.13 417.997 471.203C418.35 472.118 418.756 473.022 418.941 473.986C419.109 474.852 418.883 480.358 418.709 482.22C418.567 483.733 415.068 489.378 413.814 490.062C412.434 490.815 402.201 494.658 399.941 495.315C397.681 495.971 387.88 493.684 382.791 492.887C379.645 492.398 376.494 491.902 373.349 491.413C370.62 490.987 367.906 491.31 366.378 488.496C364.581 485.202 362.969 481.816 361.536 478.35Z" fill="#B8D3E0" fill-opacity="0.7"/>
<path d="M373.344 491.407C376.489 491.897 379.64 492.392 382.785 492.882C384.424 493.14 386.553 493.549 388.76 493.969C387.275 492.172 385.056 490.04 383.571 488.243C383.249 487.855 382.922 487.451 382.807 486.956C382.685 486.429 382.822 485.885 382.965 485.363C383.418 483.652 383.534 481.795 383.987 480.083C381.178 480.751 374.708 482.021 374.176 481.865C373.586 481.693 373.107 481.257 372.648 480.831C369.313 477.721 366.705 474.583 364.155 470.789C363.854 470.342 363.549 469.879 363.438 469.346C363.333 468.846 363.412 468.329 363.491 467.828C363.68 466.58 364.102 463.119 364.439 460.068L363.449 462.075C361.23 466.596 358.738 471.214 360.73 476.332C360.993 477.01 361.262 477.683 361.541 478.35C362.971 481.816 364.584 485.199 366.373 488.485C367.896 491.305 370.614 490.982 373.344 491.407Z" fill="#70A7C2"/>
<path d="M401.643 434.869C400.995 434.088 399.73 434.239 398.402 435.477L393.629 440.353C393.334 440.654 393.176 441.069 393.202 441.494L393.713 451.451C393.729 451.784 393.85 452.097 394.061 452.35C395.757 454.373 401.753 464.099 403.492 464.099C405.226 464.099 408.255 457.199 409.799 457.237C410.063 457.242 411.438 457.328 412.781 457.748C414.035 458.135 414.525 456.375 414.267 455.127C412.971 453.028 411.227 450.213 410.247 448.62C407.249 443.76 404.994 439.739 401.643 434.869Z" fill="#DBE9F0" fill-opacity="0.7"/>
<path d="M379.429 454.47C381.184 454.201 387.037 453.184 388.139 452.743C390.288 451.876 392.185 448.184 393.439 446.198C393.439 446.198 393.871 452.673 393.439 455.202C393.139 456.962 392.006 466.165 390.868 468.372L383.987 480.083L373.876 469.755C373.017 468.878 372.469 468.415 372.158 467.172C371.447 464.33 370.156 460.137 370.151 457.667C370.145 455.197 376.663 454.89 379.429 454.47Z" fill="#94BDD1" fill-opacity="0.7"/>
<path d="M392.217 440.676C391.542 439.852 391.353 438.685 391.585 437.64C391.779 436.768 393.55 435.084 394.124 434.551L390.072 435.552C389.276 435.749 388.551 436.173 387.981 436.774L378.818 446.451C378.818 446.451 387.691 442.673 392.217 440.676Z" fill="#94BDD1" fill-opacity="0.7"/>
<path d="M417.992 471.203C417.108 468.896 416.564 466.467 416.38 463.996C413.356 466.112 411.664 468.856 406.796 469.529C405.505 469.707 403.508 469.954 402.249 470.293C400.689 470.713 399.245 471.892 396.906 472.113C395.241 472.274 391.042 472.15 391.674 473.108C392.306 474.066 396.074 475.998 397.011 476.779C398.345 477.871 399.504 479.158 400.615 480.482C401.195 481.176 402.064 482.861 403.076 483.318C403.334 483.436 403.608 483.469 403.882 483.383C404.362 483.237 404.746 482.882 405.12 482.543C408.747 479.261 412.825 476.537 417.223 474.459C417.692 474.238 418.198 473.991 418.43 473.517C418.53 473.307 418.572 473.022 418.577 472.715C418.393 472.209 418.187 471.709 417.992 471.203Z" fill="#DBE9F0" fill-opacity="0.7"/>
<path d="M418.935 473.986C418.867 473.636 418.767 473.291 418.651 472.952C418.561 473.27 418.366 473.62 417.945 473.948C416.733 474.895 412.059 476.354 406.917 480.955C403.561 483.958 403.555 484.362 402.834 487.672C401.653 493.092 399.778 495.062 399.419 495.395C399.614 495.374 399.788 495.347 399.93 495.304C402.196 494.653 412.423 490.805 413.803 490.051C415.057 489.368 418.556 483.722 418.698 482.209C418.877 480.358 419.104 474.852 418.935 473.986Z" fill="#70A7C2"/>
</svg>
