<svg width="740" height="740" viewBox="0 0 740 740" fill="none" xmlns="http://www.w3.org/2000/svg">
<path d="M28.7453 535.682C25.3375 527.635 22.0583 519.587 18.8434 511.54C-5.39711 450.316 25.016 395.08 52.1499 341.003L91.5005 262.719C99.4092 246.946 111.562 233.684 126.479 224.414L239.644 154.113L351.459 38.3613C358.399 31.1498 367.257 26.0787 376.985 23.7475L453.114 5.33534C489.957 -3.48445 505.775 -2.06813 517.67 14.8633C558.885 73.4473 586.469 121.667 623.183 180.057C643.18 211.86 689.346 284.929 692.24 289.758C701.113 304.693 697.512 317.183 697.191 334.307C696.419 373.771 703.363 413.428 717.766 450.188C722.074 461.132 727.025 471.947 729.276 483.471C731.333 493.836 728.568 559.695 726.446 581.97C724.71 600.06 682.016 667.592 666.713 675.768C649.867 684.781 525 730.747 497.416 738.601C469.832 746.456 350.237 719.095 288.125 709.567C249.739 703.709 211.288 697.786 172.902 691.927C139.596 686.842 106.482 690.704 87.8355 657.034C65.9097 617.635 46.2344 577.141 28.7453 535.682Z" fill="#668899"/>
<path d="M172.838 691.863C211.224 697.721 249.674 703.644 288.06 709.503C308.057 712.593 334.034 717.485 360.975 722.507C342.843 701.005 315.773 675.511 297.641 654.009C293.719 649.373 289.732 644.545 288.318 638.622C286.839 632.313 288.511 625.811 290.247 619.566C295.776 599.094 297.191 576.884 302.721 556.411C268.45 564.394 189.491 579.588 182.997 577.721C175.796 575.661 169.944 570.446 164.35 565.36C123.65 528.15 91.822 490.617 60.7016 445.231C57.0366 439.887 53.3073 434.351 51.957 427.977C50.671 421.99 51.6355 415.81 52.6 409.823C54.9147 394.887 60.0586 353.492 64.1737 316.99L52.0856 341.003C25.016 395.08 -5.39711 450.316 18.9077 511.54C22.1226 519.652 25.4018 527.699 28.8096 535.682C46.2515 577.131 65.9345 617.599 87.7712 656.906C106.353 690.64 139.531 686.777 172.838 691.863Z" fill="#3D525C"/>
<path d="M518.184 15.5715C510.275 6.23663 494.844 8.03922 478.641 22.8462L420.386 81.1727C416.786 84.7779 414.857 89.735 415.178 94.8208L421.415 213.92C421.608 217.912 423.087 221.646 425.659 224.671C446.363 248.878 519.534 365.209 540.753 365.209C561.907 365.209 598.879 282.676 617.718 283.127C620.933 283.191 637.715 284.221 654.111 289.243C669.414 293.878 675.394 272.826 672.243 257.89C656.426 232.783 635.143 199.113 623.183 180.057C586.598 121.924 559.078 73.8336 518.184 15.5715Z" fill="#85A0AD" fill-opacity="0.7"/>
<path d="M247.102 250.036C268.514 246.817 339.949 234.65 353.388 229.371C379.621 219.006 402.769 174.843 418.072 151.087C418.072 151.087 423.344 228.534 418.072 258.792C414.407 279.843 400.583 389.93 386.694 416.325L302.721 556.411L179.332 432.87C168.851 422.376 162.164 416.84 158.371 401.969C149.69 367.977 133.937 317.826 133.873 288.277C133.809 258.727 213.346 255.058 247.102 250.036Z" fill="#516D7B"/>
<path d="M403.155 85.0354C394.924 75.1855 392.61 61.2155 395.439 48.7262C397.818 38.2969 419.422 18.1466 426.43 11.7731L376.985 23.7475C367.268 26.1051 358.417 31.1722 351.459 38.3613L239.644 154.113C239.644 154.113 347.922 108.92 403.155 85.0354Z" fill="#516D7B"/>
<path d="M717.702 450.188C706.907 422.591 700.276 393.538 698.027 363.986C661.119 389.286 640.48 422.119 581.068 430.166C565.315 432.291 540.946 435.252 525.578 439.308C506.546 444.329 488.928 458.428 460.38 461.068C440.062 462.999 388.816 461.518 396.532 472.978C404.248 484.437 450.221 507.549 461.666 516.883C477.933 529.952 492.079 545.338 505.646 561.175C512.719 569.48 523.328 589.631 535.673 595.103C538.824 596.519 542.167 596.905 545.511 595.875C551.362 594.137 556.056 589.888 560.621 585.832C604.885 546.569 654.642 513.993 708.314 489.136C714.037 486.497 720.21 483.536 723.039 477.87C724.26 475.36 724.775 471.948 724.839 468.278C722.589 462.226 720.081 456.239 717.702 450.188Z" fill="#85A0AD" fill-opacity="0.7"/>
<path d="M729.211 483.471C728.375 479.287 727.154 475.166 725.739 471.111C724.646 474.909 722.267 479.093 717.123 483.021C702.335 494.351 645.302 511.798 582.547 566.841C541.589 602.764 541.525 607.592 532.716 647.185C518.313 712.013 495.423 735.576 491.05 739.567C493.429 739.31 495.551 738.988 497.287 738.473C524.936 730.683 649.739 684.653 666.585 675.64C681.888 667.464 724.582 599.931 726.318 581.841C728.504 559.695 731.269 493.836 729.211 483.471Z" fill="#3D525C"/>
<path d="M359.224 143.471C359.001 142.938 358.787 142.405 358.577 141.872C356.995 137.818 358.98 134.161 360.751 130.58L363.32 125.396C363.836 124.352 364.63 123.474 365.603 122.86L372.991 118.205L380.29 110.54C380.743 110.063 381.321 109.727 381.956 109.572L386.926 108.353C389.331 107.769 390.363 107.863 391.14 108.984C393.83 112.863 395.631 116.056 398.027 119.923C399.333 122.029 402.346 126.867 402.535 127.187C403.114 128.176 402.879 129.003 402.858 130.137C402.808 132.75 403.261 135.376 404.201 137.81C404.483 138.534 404.806 139.251 404.953 140.014C405.087 140.7 404.907 145.061 404.768 146.536C404.655 147.734 401.868 152.205 400.869 152.747C399.769 153.344 391.618 156.387 389.817 156.907C388.017 157.427 380.21 155.616 376.155 154.985C373.65 154.597 371.14 154.205 368.634 153.817C366.46 153.48 364.298 153.736 363.081 151.506C361.65 148.897 360.365 146.216 359.224 143.471Z" fill="#B8D3E0" fill-opacity="0.7"/>
<path d="M368.63 153.813C371.135 154.2 373.645 154.593 376.151 154.981C377.457 155.185 379.152 155.509 380.911 155.842C379.727 154.418 377.96 152.73 376.777 151.306C376.521 150.999 376.26 150.679 376.168 150.287C376.071 149.869 376.181 149.439 376.294 149.025C376.655 147.67 376.747 146.199 377.108 144.843C374.871 145.372 369.717 146.378 369.293 146.254C368.823 146.118 368.441 145.773 368.076 145.436C365.419 142.972 363.341 140.487 361.31 137.481C361.07 137.128 360.827 136.761 360.739 136.339C360.655 135.943 360.718 135.533 360.781 135.137C360.932 134.148 361.268 131.407 361.536 128.99L360.747 130.58C358.98 134.161 356.995 137.818 358.581 141.872C358.791 142.409 359.005 142.942 359.228 143.471C360.366 146.215 361.651 148.895 363.077 151.498C364.29 153.732 366.456 153.476 368.63 153.813Z" fill="#70A7C2"/>
<path d="M391.173 109.031C390.657 108.413 389.65 108.532 388.592 109.513L384.789 113.375C384.554 113.614 384.428 113.942 384.449 114.279L384.856 122.165C384.869 122.429 384.965 122.677 385.133 122.877C386.485 124.48 391.261 132.183 392.646 132.183C394.027 132.183 396.441 126.718 397.67 126.748C397.88 126.752 398.976 126.82 400.046 127.153C401.045 127.459 401.435 126.066 401.23 125.077C400.197 123.414 398.808 121.185 398.027 119.923C395.639 116.073 393.843 112.889 391.173 109.031Z" fill="#DBE9F0" fill-opacity="0.7"/>
<path d="M373.478 124.556C374.875 124.343 379.538 123.538 380.416 123.188C382.128 122.502 383.639 119.577 384.638 118.004C384.638 118.004 384.982 123.133 384.638 125.136C384.399 126.53 383.496 133.82 382.59 135.567L377.108 144.843L369.054 136.663C368.369 135.968 367.933 135.602 367.685 134.617C367.119 132.366 366.09 129.045 366.086 127.089C366.082 125.132 371.274 124.889 373.478 124.556Z" fill="#94BDD1" fill-opacity="0.7"/>
<path d="M383.664 113.631C383.127 112.979 382.976 112.053 383.161 111.226C383.316 110.536 384.726 109.202 385.184 108.78L381.956 109.572C381.322 109.729 380.744 110.064 380.29 110.54L372.991 118.205C372.991 118.205 380.059 115.212 383.664 113.631Z" fill="#94BDD1" fill-opacity="0.7"/>
<path d="M404.197 137.81C403.493 135.982 403.06 134.059 402.913 132.102C400.504 133.777 399.156 135.951 395.278 136.484C394.25 136.625 392.659 136.821 391.656 137.089C390.413 137.422 389.263 138.355 387.4 138.53C386.073 138.658 382.728 138.56 383.232 139.319C383.736 140.078 386.737 141.608 387.484 142.226C388.546 143.091 389.469 144.11 390.355 145.159C390.816 145.709 391.509 147.043 392.315 147.405C392.52 147.499 392.739 147.525 392.957 147.457C393.339 147.342 393.645 147.06 393.943 146.792C396.833 144.192 400.081 142.035 403.584 140.389C403.958 140.214 404.361 140.018 404.546 139.643C404.625 139.477 404.659 139.251 404.663 139.008C404.516 138.607 404.353 138.21 404.197 137.81Z" fill="#DBE9F0" fill-opacity="0.7"/>
<path d="M404.949 140.014C404.894 139.737 404.814 139.464 404.722 139.195C404.651 139.447 404.495 139.724 404.159 139.984C403.194 140.734 399.471 141.889 395.375 145.534C392.701 147.913 392.697 148.232 392.122 150.854C391.182 155.147 389.687 156.707 389.402 156.971C389.557 156.954 389.696 156.933 389.809 156.899C391.614 156.383 399.761 153.335 400.86 152.738C401.859 152.197 404.646 147.725 404.76 146.527C404.902 145.061 405.083 140.7 404.949 140.014Z" fill="#70A7C2"/>
<path d="M646.96 587.681C647.044 588.337 647.137 588.988 647.233 589.636C647.981 594.564 652.048 597.051 655.858 599.585L661.378 603.25C662.489 603.989 663.78 604.405 665.099 604.454L675.106 604.831L686.747 608.242C687.471 608.455 688.238 608.456 688.957 608.245L694.594 606.602C697.319 605.801 698.291 605.115 698.421 603.558C698.875 598.168 698.837 593.97 699.006 588.761C699.098 585.924 699.323 579.398 699.328 578.973C699.337 577.66 698.63 576.975 697.961 575.863C696.415 573.301 695.362 570.437 694.903 567.484C694.768 566.604 694.679 565.709 694.388 564.868C694.129 564.111 691.453 559.891 690.471 558.508C689.673 557.385 684.344 554.551 683.041 554.587C681.606 554.627 671.763 556.286 669.676 556.804C667.588 557.321 660.866 563.597 657.198 566.549C654.929 568.372 652.659 570.201 650.391 572.023C648.423 573.605 646.128 574.592 646.194 577.5C646.265 580.908 646.524 584.304 646.96 587.681Z" fill="#B8D3E0" fill-opacity="0.7"/>
<path d="M650.389 572.03C652.658 570.208 654.928 568.378 657.196 566.556C658.376 565.604 659.876 564.31 661.434 562.971C661.072 565.062 660.282 567.75 659.921 569.84C659.842 570.292 659.767 570.758 659.899 571.2C660.042 571.669 660.397 572.033 660.747 572.378C661.881 573.515 662.815 574.92 663.95 576.057C661.424 576.817 655.725 578.777 655.375 579.143C654.985 579.548 654.803 580.109 654.633 580.653C653.403 584.62 652.761 588.276 652.462 592.422C652.427 592.91 652.395 593.413 652.549 593.882C652.692 594.323 652.989 594.693 653.278 595.05C653.995 595.944 655.897 598.468 657.548 600.711L655.854 599.587C652.048 597.051 647.981 594.564 647.237 589.634C647.138 588.981 647.046 588.33 646.965 587.678C646.525 584.304 646.268 580.91 646.195 577.511C646.122 574.601 648.421 573.611 650.389 572.03Z" fill="#70A7C2"/>
<path d="M698.428 603.493C698.269 604.402 697.199 604.861 695.587 604.496L689.596 602.849C689.226 602.747 688.913 602.494 688.741 602.148L684.632 594.096C684.493 593.826 684.447 593.526 684.5 593.231C684.925 590.866 685.263 580.488 686.64 579.694C688.012 578.901 693.539 582.935 694.744 582.199C694.951 582.075 696 581.379 696.874 580.435C697.691 579.557 698.877 580.715 699.238 581.814C699.164 584.054 699.059 587.062 699.006 588.761C698.835 593.948 698.873 598.136 698.428 603.493Z" fill="#DBE9F0" fill-opacity="0.7"/>
<path d="M671.954 598.254C673.465 597.663 678.561 595.786 679.633 595.63C681.727 595.327 684.903 597.36 686.796 598.346C686.796 598.346 684.203 593.064 682.714 591.275C681.678 590.03 676.609 583.321 674.707 582.109L663.95 576.057L660.627 588.79C660.345 589.871 660.121 590.485 660.438 591.603C661.164 594.16 662.042 598.042 663.158 599.985C664.274 601.927 669.573 599.189 671.954 598.254Z" fill="#94BDD1" fill-opacity="0.7"/>
<path d="M688.332 603.241C688.172 604.196 688.551 605.2 689.208 605.914C689.757 606.509 691.923 607.023 692.619 607.179L688.957 608.245C688.237 608.454 687.471 608.453 686.747 608.242L675.106 604.831C675.106 604.831 683.844 603.742 688.332 603.241Z" fill="#94BDD1" fill-opacity="0.7"/>
<path d="M694.899 567.487C695.245 569.703 695.916 571.859 696.89 573.883C693.536 573.604 690.953 572.222 686.793 573.919C685.691 574.37 683.998 575.088 682.847 575.397C681.422 575.781 679.744 575.515 677.792 576.411C676.401 577.045 673.132 579.062 673.198 578.021C673.265 576.979 675.371 573.74 675.76 572.699C676.32 571.231 676.655 569.691 676.935 568.143C677.079 567.333 677.003 565.613 677.597 564.791C677.747 564.58 677.95 564.43 678.206 564.372C678.651 564.267 679.117 564.37 679.567 564.466C683.927 565.385 688.389 565.66 692.814 565.281C693.285 565.24 693.798 565.204 694.196 565.469C694.37 565.589 694.533 565.793 694.676 566.032C694.76 566.513 694.824 567 694.899 567.487Z" fill="#DBE9F0" fill-opacity="0.7"/>
<path d="M694.384 564.871C694.489 565.177 694.566 565.493 694.628 565.812C694.413 565.604 694.1 565.418 693.617 565.353C692.228 565.163 687.867 566.154 681.709 564.891C677.69 564.067 677.503 563.752 675.431 561.483C672.039 557.767 669.661 557.077 669.226 556.979C669.39 556.907 669.54 556.848 669.672 556.817C671.761 556.293 681.603 554.64 683.037 554.601C684.34 554.564 689.67 557.398 690.468 558.521C691.449 559.893 694.125 564.113 694.384 564.871Z" fill="#70A7C2"/>
<path d="M576.96 663.681C577.044 664.337 577.137 664.988 577.233 665.636C577.981 670.564 582.048 673.051 585.858 675.585L591.378 679.25C592.489 679.989 593.78 680.405 595.099 680.454L605.106 680.831L616.747 684.242C617.471 684.455 618.238 684.456 618.957 684.245L624.594 682.602C627.319 681.801 628.291 681.115 628.421 679.558C628.875 674.168 628.837 669.97 629.006 664.761C629.098 661.924 629.323 655.398 629.328 654.973C629.337 653.66 628.63 652.975 627.961 651.863C626.415 649.301 625.362 646.437 624.903 643.484C624.768 642.604 624.679 641.709 624.388 640.868C624.129 640.111 621.453 635.891 620.471 634.508C619.673 633.385 614.344 630.551 613.041 630.587C611.606 630.627 601.763 632.286 599.676 632.804C597.588 633.321 590.866 639.597 587.198 642.549C584.929 644.372 582.659 646.201 580.391 648.023C578.423 649.605 576.128 650.592 576.194 653.5C576.265 656.908 576.524 660.304 576.96 663.681Z" fill="#B8D3E0" fill-opacity="0.7"/>
<path d="M580.389 648.03C582.658 646.208 584.928 644.378 587.196 642.556C588.376 641.604 589.876 640.31 591.434 638.971C591.072 641.062 590.282 643.75 589.921 645.84C589.842 646.292 589.767 646.758 589.899 647.2C590.042 647.669 590.397 648.033 590.747 648.378C591.881 649.515 592.815 650.92 593.95 652.057C591.424 652.817 585.725 654.777 585.375 655.143C584.985 655.548 584.803 656.109 584.633 656.653C583.403 660.62 582.761 664.276 582.462 668.422C582.427 668.91 582.395 669.413 582.549 669.882C582.692 670.323 582.989 670.693 583.278 671.05C583.995 671.944 585.897 674.468 587.548 676.711L585.854 675.587C582.048 673.051 577.981 670.564 577.237 665.634C577.138 664.981 577.046 664.33 576.965 663.678C576.525 660.304 576.268 656.91 576.195 653.511C576.122 650.601 578.421 649.611 580.389 648.03Z" fill="#70A7C2"/>
<path d="M628.428 679.493C628.269 680.402 627.199 680.861 625.587 680.496L619.596 678.849C619.226 678.747 618.913 678.494 618.741 678.148L614.632 670.096C614.493 669.826 614.447 669.526 614.5 669.231C614.925 666.866 615.263 656.488 616.64 655.694C618.012 654.901 623.539 658.935 624.744 658.199C624.951 658.075 626 657.379 626.874 656.435C627.691 655.557 628.877 656.715 629.238 657.814C629.164 660.054 629.059 663.062 629.006 664.761C628.835 669.948 628.873 674.136 628.428 679.493Z" fill="#DBE9F0" fill-opacity="0.7"/>
<path d="M601.954 674.254C603.465 673.663 608.561 671.786 609.633 671.63C611.727 671.327 614.903 673.36 616.796 674.346C616.796 674.346 614.203 669.064 612.714 667.275C611.678 666.03 606.609 659.321 604.707 658.109L593.95 652.057L590.627 664.79C590.345 665.871 590.121 666.485 590.438 667.603C591.164 670.16 592.042 674.042 593.158 675.985C594.274 677.927 599.573 675.189 601.954 674.254Z" fill="#94BDD1" fill-opacity="0.7"/>
<path d="M618.332 679.241C618.172 680.196 618.551 681.2 619.208 681.914C619.757 682.509 621.923 683.023 622.619 683.179L618.957 684.245C618.237 684.454 617.471 684.453 616.747 684.242L605.106 680.831C605.106 680.831 613.844 679.742 618.332 679.241Z" fill="#94BDD1" fill-opacity="0.7"/>
<path d="M624.899 643.487C625.245 645.703 625.916 647.859 626.89 649.883C623.536 649.604 620.953 648.222 616.793 649.919C615.691 650.37 613.998 651.088 612.847 651.397C611.422 651.781 609.744 651.515 607.792 652.411C606.401 653.045 603.132 655.062 603.198 654.021C603.265 652.979 605.371 649.74 605.76 648.699C606.32 647.231 606.655 645.691 606.935 644.143C607.079 643.333 607.003 641.613 607.597 640.791C607.747 640.58 607.95 640.43 608.206 640.372C608.651 640.267 609.117 640.37 609.567 640.466C613.927 641.385 618.389 641.66 622.814 641.281C623.285 641.24 623.798 641.204 624.196 641.469C624.37 641.589 624.533 641.793 624.676 642.032C624.76 642.513 624.824 643 624.899 643.487Z" fill="#DBE9F0" fill-opacity="0.7"/>
<path d="M624.384 640.871C624.489 641.177 624.566 641.493 624.628 641.812C624.413 641.604 624.1 641.418 623.617 641.353C622.228 641.163 617.867 642.154 611.709 640.891C607.69 640.067 607.503 639.752 605.431 637.483C602.039 633.767 599.661 633.077 599.226 632.979C599.39 632.907 599.54 632.848 599.672 632.817C601.761 632.293 611.603 630.64 613.037 630.601C614.34 630.564 619.67 633.398 620.468 634.521C621.449 635.893 624.125 640.113 624.384 640.871Z" fill="#70A7C2"/>
<path d="M510.453 60.869C511.019 60.6372 511.578 60.3991 512.134 60.1578C516.354 58.3116 517.601 54.0863 518.952 50.0789L520.904 44.2742C521.298 43.1057 521.36 41.8537 521.089 40.6642L519.031 31.6412L519.291 20.4327C519.309 19.7357 519.126 19.0508 518.766 18.4591L515.951 13.8198C514.584 11.5792 513.739 10.8749 512.318 11.1314C507.398 12.0158 503.659 13.0541 498.969 14.1494C496.414 14.7459 490.534 16.1055 490.153 16.203C488.979 16.5085 488.537 17.3035 487.704 18.1676C485.787 20.1604 483.482 21.785 480.956 22.901C480.203 23.2323 479.425 23.5257 478.744 23.9864C478.13 24.3991 475.002 27.7971 474.003 29.0044C473.192 29.9856 471.936 35.4214 472.28 36.5756C472.659 37.8468 476.495 46.2372 477.456 47.9767C478.417 49.7162 485.628 54.2159 489.141 56.7847C491.31 58.3738 493.486 59.9628 495.656 61.5518C497.538 62.9305 498.968 64.743 501.549 63.9879C504.574 63.1095 507.543 62.0667 510.453 60.869Z" fill="#B8D3E0" fill-opacity="0.7"/>
<path d="M495.662 61.5518C493.492 59.9627 491.317 58.3737 489.147 56.7846C488.015 55.9587 486.501 54.9294 484.933 53.8592C486.886 53.6817 489.474 53.744 491.427 53.5665C491.849 53.5289 492.283 53.4848 492.646 53.2607C493.031 53.0205 493.271 52.6166 493.495 52.2222C494.239 50.9373 495.27 49.7678 496.013 48.4828C497.296 50.5561 500.409 55.1744 500.819 55.3999C501.274 55.6504 501.819 55.6785 502.344 55.7004C506.18 55.8496 509.598 55.5485 513.37 54.8236C513.814 54.7383 514.271 54.6466 514.653 54.397C515.012 54.1634 515.271 53.81 515.521 53.4662C516.147 52.6129 517.946 50.3104 519.553 48.3006L518.955 50.082C517.601 54.0863 516.354 58.3116 512.131 60.1547C511.572 60.3991 511.013 60.6373 510.45 60.8659C507.543 62.0654 504.575 63.1065 501.558 63.9847C498.977 64.7461 497.544 62.9304 495.662 61.5518Z" fill="#70A7C2"/>
<path d="M512.258 11.1413C513.108 11.066 513.774 11.9108 513.833 13.4376L513.796 19.1791C513.794 19.5339 513.643 19.8739 513.375 20.1102L507.169 25.705C506.962 25.8932 506.705 26.0058 506.429 26.0298C504.216 26.2154 494.871 28.3961 493.832 27.3573C492.796 26.3216 495.075 20.4229 494.13 19.5229C493.97 19.3687 493.097 18.5982 492.046 18.0442C491.067 17.5246 491.817 16.189 492.711 15.6033C494.729 15.1339 497.439 14.5079 498.969 14.1494C503.64 13.0606 507.37 12.0255 512.258 11.1413Z" fill="#DBE9F0" fill-opacity="0.7"/>
<path d="M513.914 36.0281C513.025 34.8203 510.131 30.7203 509.734 29.8008C508.963 28.003 510.018 24.682 510.446 22.7559C510.446 22.7559 506.351 26.3345 505.11 28.0916C504.247 29.3139 499.47 35.4443 498.842 37.4319L496.013 48.4828L508.174 48.4034C509.207 48.3967 509.809 48.4498 510.731 47.8988C512.84 46.6398 516.096 44.9266 517.563 43.4659C519.03 42.0052 515.318 37.9295 513.914 36.0281Z" fill="#94BDD1" fill-opacity="0.7"/>
<path d="M514.448 20.214C515.339 20.129 516.145 19.5503 516.625 18.793C517.025 18.1599 516.965 16.104 516.938 15.4451L518.766 18.4591C519.125 19.0516 519.307 19.7359 519.291 20.4327L519.031 31.6412C519.031 31.6412 515.969 24.1013 514.448 20.214Z" fill="#94BDD1" fill-opacity="0.7"/>
<path d="M480.959 22.9041C482.855 22.0655 484.619 20.9509 486.193 19.597C486.746 22.6572 486.13 25.2942 488.64 28.6015C489.306 29.478 490.353 30.8177 490.904 31.771C491.587 32.9516 491.751 34.5125 493.018 36.0409C493.917 37.1314 496.499 39.5669 495.554 39.7568C494.608 39.9467 491.213 38.841 490.19 38.7431C488.746 38.5941 487.291 38.6638 485.843 38.7841C485.085 38.8493 483.567 39.3281 482.692 38.9948C482.467 38.9107 482.285 38.7662 482.172 38.5515C481.972 38.1789 481.952 37.7386 481.93 37.3142C481.708 33.2021 480.886 29.1523 479.489 25.2932C479.34 24.8823 479.184 24.4334 479.327 24.0142C479.391 23.83 479.535 23.6358 479.714 23.4509C480.124 23.2613 480.543 23.0874 480.959 22.9041Z" fill="#DBE9F0" fill-opacity="0.7"/>
<path d="M478.747 23.9895C478.995 23.8231 479.259 23.6788 479.529 23.5472C479.395 23.7888 479.304 24.1126 479.361 24.559C479.524 25.8443 481.452 29.5008 481.797 35.2999C482.023 39.0847 481.787 39.3271 480.257 41.7197C477.75 45.6365 477.703 47.9244 477.72 48.3362C477.616 48.2069 477.528 48.0871 477.469 47.9766C476.501 46.2371 472.671 37.8468 472.293 36.5755C471.949 35.4213 473.204 29.9855 474.015 29.0044C475.005 27.8002 478.133 24.4023 478.747 23.9895Z" fill="#70A7C2"/>
<path d="M510.536 503.881C510.257 503.207 509.988 502.533 509.725 501.859C507.738 496.729 510.23 492.101 512.454 487.57L515.678 481.012C516.327 479.69 517.322 478.579 518.545 477.802L527.818 471.912L536.981 462.214C537.549 461.61 538.275 461.185 539.072 460.99L545.311 459.447C548.33 458.708 549.626 458.827 550.601 460.245C553.978 465.154 556.238 469.194 559.247 474.086C560.886 476.75 564.669 482.872 564.906 483.277C565.633 484.528 565.338 485.575 565.311 487.01C565.248 490.316 565.817 493.639 566.997 496.718C567.351 497.635 567.756 498.542 567.941 499.507C568.109 500.375 567.883 505.893 567.709 507.76C567.567 509.275 564.068 514.933 562.814 515.618C561.434 516.374 551.201 520.225 548.941 520.883C546.681 521.541 536.881 519.248 531.791 518.45C528.645 517.959 525.494 517.463 522.349 516.972C519.62 516.546 516.906 516.87 515.378 514.049C513.581 510.748 511.969 507.355 510.536 503.881Z" fill="#B8D3E0" fill-opacity="0.7"/>
<path d="M522.344 516.967C525.489 517.458 528.64 517.954 531.786 518.445C533.424 518.704 535.553 519.114 537.76 519.534C536.275 517.733 534.056 515.597 532.571 513.795C532.249 513.407 531.922 513.002 531.807 512.506C531.685 511.978 531.822 511.433 531.965 510.91C532.418 509.194 532.534 507.333 532.987 505.618C530.178 506.287 523.708 507.56 523.176 507.404C522.586 507.231 522.107 506.794 521.648 506.368C518.313 503.25 515.705 500.106 513.155 496.303C512.854 495.855 512.549 495.392 512.438 494.858C512.333 494.356 512.412 493.838 512.491 493.336C512.681 492.085 513.102 488.617 513.439 485.559L512.449 487.57C510.23 492.101 507.738 496.729 509.73 501.859C509.993 502.538 510.262 503.213 510.541 503.881C511.971 507.354 513.584 510.745 515.373 514.038C516.896 516.864 519.614 516.541 522.344 516.967Z" fill="#70A7C2"/>
<path d="M550.643 460.305C549.995 459.523 548.73 459.674 547.403 460.914L542.629 465.801C542.334 466.103 542.176 466.518 542.202 466.944L542.713 476.923C542.729 477.257 542.85 477.57 543.061 477.824C544.757 479.852 550.754 489.599 552.492 489.599C554.226 489.599 557.255 482.684 558.799 482.721C559.063 482.727 560.438 482.813 561.781 483.234C563.035 483.622 563.525 481.858 563.267 480.607C561.971 478.503 560.227 475.682 559.247 474.086C556.249 469.215 553.994 465.186 550.643 460.305Z" fill="#DBE9F0" fill-opacity="0.7"/>
<path d="M528.429 479.949C530.184 479.679 536.037 478.66 537.139 478.218C539.288 477.349 541.185 473.649 542.439 471.659C542.439 471.659 542.871 478.147 542.439 480.683C542.139 482.446 541.006 491.67 539.868 493.881L532.987 505.618L522.876 495.267C522.017 494.388 521.469 493.924 521.158 492.678C520.447 489.83 519.156 485.629 519.151 483.153C519.145 480.677 525.663 480.37 528.429 479.949Z" fill="#94BDD1" fill-opacity="0.7"/>
<path d="M541.217 466.125C540.542 465.299 540.353 464.129 540.585 463.082C540.779 462.209 542.55 460.52 543.124 459.986L539.072 460.99C538.276 461.187 537.551 461.612 536.981 462.214L527.818 471.912C527.818 471.912 536.691 468.126 541.217 466.125Z" fill="#94BDD1" fill-opacity="0.7"/>
<path d="M566.992 496.718C566.108 494.406 565.564 491.972 565.38 489.496C562.356 491.616 560.664 494.367 555.796 495.041C554.505 495.219 552.508 495.467 551.249 495.807C549.689 496.228 548.246 497.409 545.906 497.63C544.241 497.792 540.042 497.668 540.674 498.628C541.306 499.588 545.074 501.524 546.012 502.306C547.345 503.401 548.504 504.691 549.615 506.017C550.195 506.713 551.064 508.401 552.076 508.86C552.334 508.979 552.608 509.011 552.882 508.925C553.362 508.779 553.746 508.423 554.12 508.083C557.748 504.794 561.825 502.064 566.223 499.982C566.692 499.761 567.198 499.512 567.43 499.038C567.53 498.827 567.572 498.542 567.577 498.234C567.393 497.727 567.187 497.225 566.992 496.718Z" fill="#DBE9F0" fill-opacity="0.7"/>
<path d="M567.935 499.507C567.867 499.156 567.767 498.811 567.651 498.471C567.561 498.79 567.366 499.14 566.945 499.469C565.733 500.419 561.059 501.88 555.917 506.492C552.561 509.502 552.555 509.906 551.834 513.224C550.653 518.655 548.778 520.629 548.419 520.964C548.614 520.942 548.788 520.915 548.93 520.872C551.196 520.219 561.423 516.363 562.803 515.608C564.057 514.923 567.556 509.265 567.698 507.749C567.877 505.893 568.104 500.375 567.935 499.507Z" fill="#70A7C2"/>
<path d="M185.536 540.881C185.257 540.207 184.988 539.533 184.725 538.859C182.738 533.729 185.23 529.101 187.454 524.57L190.679 518.012C191.327 516.69 192.322 515.579 193.545 514.802L202.818 508.912L211.981 499.214C212.549 498.61 213.275 498.185 214.072 497.99L220.311 496.447C223.33 495.708 224.626 495.827 225.601 497.245C228.978 502.154 231.238 506.194 234.247 511.086C235.886 513.75 239.669 519.872 239.906 520.277C240.633 521.528 240.338 522.575 240.311 524.01C240.248 527.316 240.817 530.639 241.998 533.718C242.351 534.635 242.756 535.542 242.941 536.507C243.109 537.375 242.883 542.893 242.709 544.76C242.567 546.275 239.068 551.933 237.814 552.618C236.434 553.374 226.201 557.225 223.941 557.883C221.681 558.541 211.881 556.248 206.791 555.45C203.645 554.959 200.494 554.463 197.349 553.972C194.62 553.546 191.906 553.87 190.378 551.049C188.581 547.748 186.969 544.355 185.536 540.881Z" fill="#B8D3E0" fill-opacity="0.7"/>
<path d="M197.344 553.967C200.489 554.458 203.64 554.954 206.786 555.445C208.424 555.704 210.553 556.114 212.76 556.534C211.275 554.733 209.056 552.597 207.571 550.795C207.249 550.407 206.923 550.002 206.807 549.506C206.685 548.978 206.822 548.433 206.965 547.91C207.418 546.194 207.534 544.334 207.987 542.618C205.179 543.287 198.708 544.56 198.176 544.404C197.586 544.231 197.107 543.794 196.648 543.368C193.313 540.25 190.705 537.106 188.155 533.303C187.854 532.855 187.549 532.392 187.438 531.858C187.333 531.356 187.412 530.838 187.491 530.336C187.681 529.085 188.102 525.617 188.439 522.559L187.449 524.57C185.23 529.101 182.738 533.729 184.73 538.859C184.993 539.538 185.262 540.213 185.541 540.881C186.971 544.354 188.584 547.745 190.373 551.038C191.896 553.864 194.614 553.541 197.344 553.967Z" fill="#70A7C2"/>
<path d="M225.643 497.305C224.995 496.523 223.73 496.674 222.402 497.914L217.629 502.801C217.334 503.103 217.176 503.518 217.202 503.944L217.713 513.923C217.729 514.257 217.85 514.57 218.061 514.824C219.758 516.852 225.754 526.599 227.492 526.599C229.226 526.599 232.255 519.684 233.799 519.721C234.063 519.727 235.438 519.813 236.781 520.234C238.035 520.622 238.525 518.858 238.267 517.607C236.971 515.503 235.227 512.682 234.247 511.086C231.249 506.215 228.994 502.186 225.643 497.305Z" fill="#DBE9F0" fill-opacity="0.7"/>
<path d="M203.429 516.949C205.184 516.679 211.038 515.66 212.139 515.218C214.288 514.349 216.185 510.649 217.439 508.659C217.439 508.659 217.871 515.147 217.439 517.683C217.139 519.446 216.006 528.67 214.868 530.881L207.987 542.618L197.876 532.267C197.017 531.388 196.469 530.924 196.158 529.678C195.447 526.831 194.156 522.629 194.151 520.153C194.145 517.677 200.663 517.37 203.429 516.949Z" fill="#94BDD1" fill-opacity="0.7"/>
<path d="M216.217 503.125C215.542 502.299 215.353 501.129 215.585 500.082C215.779 499.209 217.55 497.52 218.124 496.986L214.072 497.99C213.276 498.187 212.551 498.612 211.981 499.214L202.818 508.912C202.818 508.912 211.691 505.126 216.217 503.125Z" fill="#94BDD1" fill-opacity="0.7"/>
<path d="M241.992 533.718C241.108 531.406 240.564 528.972 240.38 526.496C237.356 528.616 235.664 531.367 230.796 532.041C229.505 532.219 227.508 532.467 226.249 532.807C224.689 533.228 223.246 534.409 220.906 534.63C219.241 534.792 215.042 534.668 215.674 535.628C216.306 536.588 220.074 538.524 221.012 539.306C222.345 540.401 223.504 541.691 224.615 543.017C225.195 543.713 226.064 545.402 227.076 545.86C227.334 545.979 227.608 546.011 227.882 545.925C228.362 545.779 228.746 545.423 229.12 545.083C232.748 541.794 236.825 539.064 241.223 536.982C241.692 536.761 242.198 536.512 242.43 536.038C242.53 535.827 242.572 535.542 242.577 535.234C242.393 534.727 242.187 534.225 241.992 533.718Z" fill="#DBE9F0" fill-opacity="0.7"/>
<path d="M242.935 536.507C242.867 536.156 242.767 535.811 242.651 535.471C242.561 535.79 242.366 536.14 241.945 536.469C240.733 537.419 236.059 538.88 230.917 543.492C227.561 546.502 227.555 546.906 226.834 550.224C225.653 555.655 223.778 557.629 223.419 557.964C223.614 557.942 223.788 557.915 223.93 557.872C226.196 557.219 236.423 553.363 237.803 552.608C239.057 551.923 242.556 546.265 242.698 544.749C242.877 542.893 243.104 537.375 242.935 536.507Z" fill="#70A7C2"/>
<path d="M209.536 207.881C209.257 207.207 208.988 206.533 208.725 205.859C206.738 200.729 209.23 196.101 211.454 191.57L214.679 185.012C215.327 183.69 216.322 182.579 217.545 181.802L226.818 175.912L235.981 166.214C236.549 165.61 237.275 165.185 238.072 164.99L244.311 163.447C247.33 162.708 248.626 162.827 249.601 164.245C252.978 169.154 255.238 173.194 258.247 178.086C259.886 180.75 263.669 186.872 263.906 187.277C264.633 188.528 264.338 189.575 264.311 191.01C264.248 194.316 264.817 197.639 265.998 200.718C266.351 201.635 266.756 202.542 266.941 203.507C267.109 204.375 266.883 209.893 266.709 211.76C266.567 213.275 263.068 218.933 261.814 219.618C260.434 220.374 250.201 224.225 247.941 224.883C245.681 225.541 235.881 223.248 230.791 222.45C227.645 221.959 224.494 221.463 221.349 220.972C218.62 220.546 215.906 220.87 214.378 218.049C212.581 214.748 210.969 211.355 209.536 207.881Z" fill="#B8D3E0" fill-opacity="0.7"/>
<path d="M221.344 220.967C224.489 221.458 227.64 221.954 230.786 222.445C232.424 222.704 234.553 223.114 236.76 223.534C235.275 221.733 233.056 219.597 231.571 217.795C231.249 217.407 230.923 217.002 230.807 216.506C230.685 215.978 230.822 215.433 230.965 214.91C231.418 213.194 231.534 211.333 231.987 209.618C229.179 210.287 222.708 211.56 222.176 211.404C221.586 211.231 221.107 210.794 220.648 210.368C217.313 207.25 214.705 204.106 212.155 200.303C211.854 199.855 211.549 199.392 211.438 198.858C211.333 198.356 211.412 197.838 211.491 197.336C211.681 196.085 212.102 192.617 212.439 189.559L211.449 191.57C209.23 196.101 206.738 200.729 208.73 205.859C208.993 206.538 209.262 207.213 209.541 207.881C210.971 211.354 212.584 214.745 214.373 218.038C215.896 220.864 218.614 220.541 221.344 220.967Z" fill="#70A7C2"/>
<path d="M249.643 164.305C248.995 163.523 247.73 163.674 246.402 164.914L241.629 169.801C241.334 170.103 241.176 170.518 241.202 170.944L241.713 180.923C241.729 181.257 241.85 181.57 242.061 181.824C243.758 183.852 249.754 193.599 251.492 193.599C253.226 193.599 256.255 186.684 257.799 186.721C258.063 186.727 259.438 186.813 260.781 187.234C262.035 187.622 262.525 185.858 262.267 184.607C260.971 182.503 259.227 179.682 258.247 178.086C255.249 173.215 252.994 169.186 249.643 164.305Z" fill="#DBE9F0" fill-opacity="0.7"/>
<path d="M227.429 183.949C229.184 183.679 235.038 182.66 236.139 182.218C238.288 181.349 240.185 177.649 241.439 175.659C241.439 175.659 241.871 182.147 241.439 184.683C241.139 186.446 240.006 195.67 238.868 197.881L231.987 209.618L221.876 199.267C221.017 198.388 220.469 197.924 220.158 196.678C219.447 193.831 218.156 189.629 218.151 187.153C218.145 184.677 224.663 184.37 227.429 183.949Z" fill="#94BDD1" fill-opacity="0.7"/>
<path d="M240.217 170.125C239.542 169.299 239.353 168.129 239.585 167.082C239.779 166.209 241.55 164.52 242.124 163.986L238.072 164.99C237.276 165.187 236.551 165.612 235.981 166.214L226.818 175.912C226.818 175.912 235.691 172.126 240.217 170.125Z" fill="#94BDD1" fill-opacity="0.7"/>
<path d="M265.992 200.718C265.108 198.406 264.564 195.972 264.38 193.496C261.356 195.616 259.664 198.367 254.796 199.041C253.505 199.219 251.508 199.467 250.249 199.807C248.689 200.228 247.246 201.409 244.906 201.63C243.241 201.792 239.042 201.668 239.674 202.628C240.306 203.588 244.074 205.524 245.012 206.306C246.345 207.401 247.504 208.691 248.615 210.017C249.195 210.713 250.064 212.401 251.076 212.86C251.334 212.979 251.608 213.011 251.882 212.925C252.362 212.779 252.746 212.423 253.12 212.083C256.748 208.794 260.825 206.064 265.223 203.982C265.692 203.761 266.198 203.512 266.43 203.038C266.53 202.827 266.572 202.542 266.577 202.234C266.393 201.727 266.187 201.225 265.992 200.718Z" fill="#DBE9F0" fill-opacity="0.7"/>
<path d="M266.935 203.507C266.867 203.156 266.767 202.811 266.651 202.471C266.561 202.79 266.366 203.14 265.945 203.469C264.733 204.419 260.059 205.88 254.917 210.492C251.561 213.502 251.555 213.906 250.834 217.224C249.653 222.655 247.778 224.629 247.419 224.964C247.614 224.942 247.788 224.915 247.93 224.872C250.196 224.219 260.423 220.363 261.803 219.608C263.057 218.923 266.556 213.264 266.698 211.749C266.877 209.893 267.104 204.375 266.935 203.507Z" fill="#70A7C2"/>
<path d="M91.5361 441.881C91.2568 441.207 90.9881 440.533 90.7247 439.859C88.7383 434.729 91.2305 430.101 93.4539 425.57L96.6785 419.012C97.3266 417.69 98.3224 416.579 99.5448 415.802L108.818 409.912L117.981 400.214C118.549 399.61 119.275 399.185 120.072 398.99L126.311 397.447C129.33 396.708 130.626 396.827 131.601 398.245C134.978 403.154 137.238 407.194 140.247 412.086C141.886 414.75 145.669 420.872 145.906 421.277C146.633 422.528 146.338 423.575 146.311 425.01C146.248 428.316 146.817 431.639 147.998 434.718C148.351 435.635 148.756 436.542 148.941 437.507C149.109 438.375 148.883 443.893 148.709 445.76C148.567 447.275 145.068 452.933 143.814 453.618C142.434 454.374 132.201 458.225 129.941 458.883C127.681 459.541 117.881 457.248 112.791 456.45C109.645 455.959 106.494 455.463 103.349 454.972C100.62 454.546 97.9062 454.87 96.3782 452.049C94.5815 448.748 92.9692 445.355 91.5361 441.881Z" fill="#B8D3E0" fill-opacity="0.7"/>
<path d="M103.344 454.967C106.489 455.458 109.64 455.954 112.786 456.445C114.424 456.704 116.553 457.114 118.76 457.534C117.275 455.733 115.056 453.597 113.571 451.795C113.249 451.407 112.923 451.002 112.807 450.506C112.685 449.978 112.822 449.433 112.965 448.91C113.418 447.194 113.534 445.333 113.987 443.618C111.179 444.287 104.708 445.56 104.176 445.404C103.586 445.231 103.107 444.794 102.648 444.368C99.313 441.25 96.7049 438.106 94.1547 434.303C93.8544 433.855 93.5488 433.392 93.4381 432.858C93.3328 432.356 93.4118 431.838 93.4908 431.336C93.6805 430.085 94.102 426.617 94.4392 423.559L93.4487 425.57C91.2305 430.101 88.7383 434.729 90.7299 439.859C90.9934 440.538 91.2621 441.213 91.5414 441.881C92.9706 445.354 94.5835 448.745 96.3729 452.038C97.8956 454.864 100.614 454.541 103.344 454.967Z" fill="#70A7C2"/>
<path d="M131.643 398.305C130.995 397.523 129.73 397.674 128.402 398.914L123.629 403.801C123.334 404.103 123.176 404.518 123.202 404.944L123.713 414.923C123.729 415.257 123.85 415.57 124.061 415.824C125.758 417.852 131.754 427.599 133.492 427.599C135.226 427.599 138.255 420.684 139.799 420.721C140.063 420.727 141.438 420.813 142.781 421.234C144.035 421.622 144.525 419.858 144.267 418.607C142.971 416.503 141.227 413.682 140.247 412.086C137.249 407.215 134.994 403.186 131.643 398.305Z" fill="#DBE9F0" fill-opacity="0.7"/>
<path d="M109.429 417.949C111.184 417.679 117.038 416.66 118.139 416.218C120.288 415.349 122.185 411.649 123.439 409.659C123.439 409.659 123.871 416.147 123.439 418.683C123.139 420.446 122.006 429.67 120.868 431.881L113.987 443.618L103.876 433.267C103.017 432.388 102.469 431.924 102.158 430.678C101.447 427.83 100.156 423.629 100.151 421.153C100.145 418.677 106.663 418.37 109.429 417.949Z" fill="#94BDD1" fill-opacity="0.7"/>
<path d="M122.217 404.125C121.542 403.299 121.353 402.129 121.585 401.082C121.78 400.209 123.55 398.52 124.124 397.986L120.072 398.99C119.276 399.187 118.551 399.612 117.981 400.214L108.818 409.912C108.818 409.912 117.691 406.126 122.217 404.125Z" fill="#94BDD1" fill-opacity="0.7"/>
<path d="M147.992 434.718C147.108 432.406 146.564 429.972 146.38 427.496C143.356 429.616 141.664 432.367 136.796 433.041C135.505 433.219 133.508 433.467 132.249 433.807C130.689 434.228 129.246 435.409 126.906 435.63C125.241 435.792 121.042 435.668 121.674 436.628C122.306 437.588 126.074 439.524 127.012 440.306C128.345 441.401 129.504 442.691 130.615 444.017C131.195 444.713 132.064 446.401 133.076 446.86C133.334 446.979 133.608 447.011 133.882 446.925C134.362 446.779 134.746 446.423 135.12 446.083C138.748 442.794 142.825 440.064 147.223 437.982C147.692 437.761 148.198 437.512 148.43 437.038C148.53 436.827 148.572 436.542 148.577 436.234C148.393 435.727 148.187 435.225 147.992 434.718Z" fill="#DBE9F0" fill-opacity="0.7"/>
<path d="M148.935 437.507C148.867 437.156 148.767 436.811 148.651 436.471C148.561 436.79 148.366 437.14 147.945 437.469C146.733 438.419 142.059 439.88 136.917 444.492C133.561 447.502 133.555 447.906 132.834 451.224C131.653 456.655 129.778 458.629 129.419 458.964C129.614 458.942 129.788 458.915 129.93 458.872C132.196 458.219 142.423 454.363 143.803 453.608C145.057 452.923 148.556 447.265 148.698 445.749C148.877 443.893 149.104 438.375 148.935 437.507Z" fill="#70A7C2"/>
<path d="M606.536 472.881C606.257 472.207 605.988 471.533 605.725 470.859C603.738 465.729 606.231 461.101 608.454 456.57L611.679 450.012C612.327 448.69 613.322 447.579 614.545 446.802L623.818 440.912L632.981 431.214C633.549 430.61 634.275 430.185 635.072 429.99L641.311 428.447C644.33 427.708 645.626 427.827 646.601 429.245C649.978 434.154 652.238 438.194 655.247 443.086C656.886 445.75 660.669 451.872 660.906 452.277C661.633 453.528 661.338 454.575 661.311 456.01C661.248 459.316 661.817 462.639 662.997 465.718C663.351 466.635 663.756 467.542 663.941 468.507C664.109 469.375 663.883 474.893 663.709 476.76C663.567 478.275 660.068 483.933 658.814 484.618C657.434 485.374 647.201 489.225 644.941 489.883C642.681 490.541 632.881 488.248 627.791 487.45C624.645 486.959 621.494 486.463 618.349 485.972C615.62 485.546 612.906 485.87 611.378 483.049C609.581 479.748 607.969 476.355 606.536 472.881Z" fill="#B8D3E0" fill-opacity="0.7"/>
<path d="M618.344 485.967C621.489 486.458 624.64 486.954 627.786 487.445C629.424 487.704 631.553 488.114 633.76 488.534C632.275 486.733 630.056 484.597 628.571 482.795C628.249 482.407 627.922 482.002 627.807 481.506C627.685 480.978 627.822 480.433 627.965 479.91C628.418 478.194 628.534 476.333 628.987 474.618C626.178 475.287 619.708 476.56 619.176 476.404C618.586 476.231 618.107 475.794 617.648 475.368C614.313 472.25 611.705 469.106 609.155 465.303C608.854 464.855 608.549 464.392 608.438 463.858C608.333 463.356 608.412 462.838 608.491 462.336C608.681 461.085 609.102 457.617 609.439 454.559L608.449 456.57C606.23 461.101 603.738 465.729 605.73 470.859C605.993 471.538 606.262 472.213 606.541 472.881C607.971 476.354 609.584 479.745 611.373 483.038C612.896 485.864 615.614 485.541 618.344 485.967Z" fill="#70A7C2"/>
<path d="M646.643 429.305C645.995 428.523 644.73 428.674 643.403 429.914L638.629 434.801C638.334 435.103 638.176 435.518 638.202 435.944L638.713 445.923C638.729 446.257 638.85 446.57 639.061 446.824C640.757 448.852 646.754 458.599 648.492 458.599C650.226 458.599 653.255 451.684 654.799 451.721C655.063 451.727 656.438 451.813 657.781 452.234C659.035 452.622 659.525 450.858 659.267 449.607C657.971 447.503 656.227 444.682 655.247 443.086C652.249 438.215 649.994 434.186 646.643 429.305Z" fill="#DBE9F0" fill-opacity="0.7"/>
<path d="M624.429 448.949C626.184 448.679 632.037 447.66 633.139 447.218C635.288 446.349 637.185 442.649 638.439 440.659C638.439 440.659 638.871 447.147 638.439 449.683C638.139 451.446 637.006 460.67 635.868 462.881L628.987 474.618L618.876 464.267C618.017 463.388 617.469 462.924 617.158 461.678C616.447 458.83 615.156 454.629 615.151 452.153C615.145 449.677 621.663 449.37 624.429 448.949Z" fill="#94BDD1" fill-opacity="0.7"/>
<path d="M637.217 435.125C636.542 434.299 636.353 433.129 636.585 432.082C636.779 431.209 638.55 429.52 639.124 428.986L635.072 429.99C634.276 430.187 633.551 430.612 632.981 431.214L623.818 440.912C623.818 440.912 632.691 437.126 637.217 435.125Z" fill="#94BDD1" fill-opacity="0.7"/>
<path d="M662.992 465.718C662.108 463.406 661.564 460.972 661.38 458.496C658.356 460.616 656.664 463.367 651.796 464.041C650.505 464.219 648.508 464.467 647.249 464.807C645.689 465.228 644.246 466.409 641.906 466.63C640.241 466.792 636.042 466.668 636.674 467.628C637.306 468.588 641.074 470.524 642.012 471.306C643.345 472.401 644.504 473.691 645.615 475.017C646.195 475.713 647.064 477.401 648.076 477.86C648.334 477.979 648.608 478.011 648.882 477.925C649.362 477.779 649.746 477.423 650.12 477.083C653.748 473.794 657.825 471.064 662.223 468.982C662.692 468.761 663.198 468.512 663.43 468.038C663.53 467.827 663.572 467.542 663.577 467.234C663.393 466.727 663.187 466.225 662.992 465.718Z" fill="#DBE9F0" fill-opacity="0.7"/>
<path d="M663.935 468.507C663.867 468.156 663.767 467.811 663.651 467.471C663.561 467.79 663.366 468.14 662.945 468.469C661.733 469.419 657.059 470.88 651.917 475.492C648.561 478.502 648.555 478.906 647.834 482.224C646.653 487.655 644.778 489.629 644.419 489.964C644.614 489.942 644.788 489.915 644.93 489.872C647.196 489.219 657.423 485.363 658.803 484.608C660.057 483.923 663.556 478.265 663.698 476.749C663.877 474.893 664.104 469.375 663.935 468.507Z" fill="#70A7C2"/>
<path d="M425.302 381.643C425.065 381.077 424.837 380.512 424.614 379.946C422.931 375.644 425.043 371.762 426.927 367.962L429.66 362.461C430.209 361.353 431.053 360.421 432.089 359.77L439.947 354.83L447.712 346.696C448.194 346.189 448.81 345.833 449.485 345.669L454.772 344.375C457.33 343.755 458.429 343.855 459.255 345.044C462.117 349.161 464.033 352.55 466.582 356.653C467.971 358.887 471.177 364.022 471.378 364.361C471.994 365.411 471.744 366.289 471.722 367.492C471.668 370.265 472.15 373.052 473.15 375.635C473.45 376.404 473.793 377.164 473.95 377.974C474.093 378.702 473.901 383.33 473.753 384.895C473.633 386.166 470.668 390.912 469.605 391.486C468.435 392.12 459.764 395.35 457.848 395.902C455.933 396.454 447.628 394.531 443.314 393.861C440.649 393.45 437.978 393.034 435.313 392.622C433 392.265 430.7 392.536 429.405 390.17C427.883 387.401 426.516 384.556 425.302 381.643Z" fill="#B8D3E0" fill-opacity="0.7"/>
<path d="M435.308 392.617C437.974 393.029 440.644 393.445 443.31 393.857C444.698 394.074 446.502 394.418 448.373 394.771C447.114 393.26 445.234 391.468 443.975 389.957C443.703 389.632 443.426 389.292 443.328 388.876C443.225 388.433 443.341 387.976 443.462 387.537C443.846 386.099 443.944 384.538 444.328 383.099C441.948 383.66 436.465 384.728 436.014 384.597C435.514 384.452 435.107 384.085 434.719 383.728C431.892 381.113 429.682 378.476 427.521 375.286C427.266 374.911 427.007 374.522 426.914 374.074C426.824 373.653 426.891 373.219 426.958 372.798C427.119 371.749 427.476 368.84 427.762 366.275L426.923 367.962C425.043 371.762 422.931 375.644 424.619 379.946C424.842 380.516 425.07 381.082 425.306 381.643C426.517 384.555 427.884 387.399 429.401 390.161C430.691 392.531 432.995 392.26 435.308 392.617Z" fill="#70A7C2"/>
<path d="M459.291 345.094C458.741 344.438 457.67 344.565 456.544 345.605L452.499 349.704C452.249 349.957 452.115 350.306 452.137 350.663L452.57 359.032C452.584 359.313 452.687 359.575 452.865 359.788C454.303 361.489 459.384 369.663 460.858 369.663C462.327 369.663 464.894 363.864 466.203 363.895C466.426 363.9 467.591 363.972 468.73 364.325C469.793 364.651 470.208 363.172 469.989 362.122C468.891 360.358 467.413 357.992 466.582 356.653C464.042 352.568 462.13 349.188 459.291 345.094Z" fill="#DBE9F0" fill-opacity="0.7"/>
<path d="M440.465 361.57C441.952 361.344 446.913 360.489 447.846 360.118C449.668 359.39 451.276 356.286 452.338 354.617C452.338 354.617 452.704 360.059 452.338 362.185C452.084 363.665 451.124 371.4 450.159 373.255L444.328 383.099L435.759 374.418C435.031 373.68 434.567 373.291 434.304 372.246C433.701 369.858 432.607 366.334 432.602 364.257C432.598 362.181 438.121 361.923 440.465 361.57Z" fill="#94BDD1" fill-opacity="0.7"/>
<path d="M451.302 349.975C450.731 349.283 450.57 348.302 450.767 347.424C450.932 346.691 452.432 345.275 452.919 344.827L449.485 345.669C448.81 345.834 448.196 346.19 447.712 346.696L439.947 354.83C439.947 354.83 447.467 351.654 451.302 349.975Z" fill="#94BDD1" fill-opacity="0.7"/>
<path d="M473.146 375.635C472.396 373.696 471.936 371.654 471.78 369.577C469.217 371.355 467.783 373.662 463.658 374.228C462.564 374.377 460.871 374.585 459.804 374.87C458.482 375.223 457.259 376.214 455.276 376.399C453.865 376.535 450.307 376.431 450.842 377.236C451.378 378.042 454.571 379.666 455.366 380.322C456.495 381.24 457.478 382.321 458.42 383.434C458.911 384.018 459.648 385.433 460.505 385.818C460.724 385.918 460.956 385.945 461.188 385.872C461.595 385.75 461.921 385.452 462.238 385.167C465.311 382.408 468.767 380.118 472.494 378.372C472.891 378.186 473.32 377.978 473.517 377.58C473.601 377.404 473.637 377.164 473.642 376.906C473.485 376.481 473.311 376.06 473.146 375.635Z" fill="#DBE9F0" fill-opacity="0.7"/>
<path d="M473.945 377.974C473.887 377.68 473.802 377.39 473.704 377.105C473.628 377.372 473.463 377.666 473.106 377.942C472.079 378.738 468.118 379.964 463.76 383.832C460.916 386.356 460.911 386.696 460.3 389.478C459.299 394.033 457.71 395.689 457.406 395.97C457.571 395.951 457.719 395.929 457.839 395.893C459.759 395.345 468.426 392.111 469.596 391.477C470.659 390.903 473.624 386.157 473.744 384.886C473.896 383.33 474.088 378.702 473.945 377.974Z" fill="#70A7C2"/>
<path d="M70.3018 586.643C70.0651 586.077 69.8374 585.512 69.6141 584.946C67.9308 580.644 70.0428 576.762 71.9271 572.962L74.6598 567.461C75.209 566.353 76.0529 565.421 77.0888 564.77L84.9475 559.83L92.7124 551.696C93.1944 551.189 93.8095 550.833 94.4851 550.669L99.7718 549.375C102.33 548.755 103.429 548.855 104.255 550.044C107.117 554.161 109.033 557.55 111.582 561.653C112.971 563.887 116.177 569.022 116.378 569.361C116.994 570.411 116.744 571.289 116.722 572.492C116.668 575.265 117.15 578.052 118.15 580.635C118.45 581.404 118.793 582.164 118.95 582.974C119.093 583.702 118.901 588.33 118.753 589.895C118.633 591.166 115.668 595.912 114.605 596.486C113.435 597.12 104.764 600.35 102.848 600.902C100.933 601.454 92.6276 599.531 88.3142 598.861C85.6485 598.45 82.9784 598.034 80.3127 597.622C77.9997 597.265 75.7001 597.536 74.4052 595.17C72.8826 592.401 71.5163 589.556 70.3018 586.643Z" fill="#B8D3E0" fill-opacity="0.7"/>
<path d="M80.3082 597.617C82.9739 598.029 85.6441 598.445 88.3098 598.857C89.6984 599.074 91.5023 599.418 93.3733 599.771C92.1141 598.26 90.2343 596.468 88.9751 594.957C88.7027 594.632 88.4259 594.292 88.3276 593.876C88.2249 593.433 88.341 592.976 88.4616 592.537C88.8456 591.099 88.9438 589.538 89.3278 588.099C86.9479 588.66 81.4647 589.728 81.0137 589.597C80.5136 589.452 80.1073 589.085 79.7188 588.728C76.8923 586.113 74.6821 583.476 72.5209 580.286C72.2664 579.911 72.0075 579.522 71.9137 579.074C71.8244 578.653 71.8914 578.219 71.9583 577.798C72.1191 576.749 72.4763 573.84 72.7621 571.275L71.9226 572.962C70.0428 576.762 67.9308 580.644 69.6186 584.946C69.8418 585.516 70.0696 586.082 70.3062 586.643C71.5175 589.555 72.8843 592.399 74.4008 595.161C75.6912 597.531 77.9952 597.26 80.3082 597.617Z" fill="#70A7C2"/>
<path d="M104.291 550.094C103.741 549.438 102.67 549.565 101.544 550.605L97.4991 554.704C97.249 554.957 97.115 555.306 97.1374 555.663L97.5705 564.032C97.5839 564.313 97.6866 564.575 97.8652 564.788C99.303 566.489 104.384 574.663 105.858 574.663C107.327 574.663 109.894 568.864 111.203 568.895C111.426 568.9 112.591 568.972 113.73 569.325C114.793 569.651 115.208 568.172 114.989 567.122C113.891 565.358 112.413 562.992 111.582 561.653C109.041 557.568 107.13 554.188 104.291 550.094Z" fill="#DBE9F0" fill-opacity="0.7"/>
<path d="M85.4654 566.57C86.9523 566.344 91.9131 565.489 92.8464 565.118C94.6681 564.39 96.2756 561.286 97.3383 559.617C97.3383 559.617 97.7045 565.059 97.3383 567.185C97.0838 568.665 96.1238 576.4 95.1593 578.255L89.3278 588.099L80.7592 579.418C80.0313 578.681 79.567 578.291 79.3035 577.246C78.7007 574.858 77.6068 571.334 77.6023 569.257C77.5978 567.181 83.1212 566.923 85.4654 566.57Z" fill="#94BDD1" fill-opacity="0.7"/>
<path d="M96.3024 554.975C95.7309 554.283 95.5701 553.302 95.7666 552.424C95.9318 551.691 97.4321 550.275 97.9188 549.827L94.4851 550.669C93.8103 550.834 93.1956 551.19 92.7124 551.696L84.9475 559.83C84.9475 559.83 92.4668 556.654 96.3024 554.975Z" fill="#94BDD1" fill-opacity="0.7"/>
<path d="M118.146 580.635C117.396 578.696 116.936 576.654 116.78 574.577C114.217 576.355 112.783 578.662 108.658 579.228C107.564 579.377 105.871 579.585 104.804 579.87C103.482 580.223 102.259 581.214 100.276 581.399C98.8654 581.535 95.3067 581.431 95.8425 582.236C96.3783 583.042 99.5709 584.666 100.366 585.322C101.495 586.24 102.478 587.321 103.42 588.434C103.911 589.018 104.648 590.434 105.505 590.818C105.724 590.918 105.956 590.945 106.188 590.872C106.595 590.75 106.921 590.452 107.238 590.167C110.311 587.408 113.767 585.118 117.494 583.372C117.891 583.186 118.32 582.978 118.517 582.58C118.601 582.404 118.637 582.164 118.642 581.906C118.485 581.481 118.311 581.06 118.146 580.635Z" fill="#DBE9F0" fill-opacity="0.7"/>
<path d="M118.945 582.974C118.887 582.68 118.802 582.39 118.704 582.105C118.628 582.372 118.463 582.666 118.106 582.942C117.079 583.738 113.118 584.964 108.76 588.832C105.916 591.356 105.911 591.696 105.3 594.478C104.299 599.033 102.71 600.689 102.406 600.97C102.571 600.952 102.719 600.929 102.839 600.893C104.759 600.345 113.426 597.111 114.596 596.477C115.659 595.903 118.624 591.157 118.744 589.886C118.896 588.33 119.088 583.702 118.945 582.974Z" fill="#70A7C2"/>
<path d="M332.859 289.661C332.951 290.382 333.053 291.099 333.159 291.813C333.982 297.234 338.457 299.971 342.649 302.758L348.723 306.791C349.945 307.605 351.366 308.062 352.817 308.117L363.827 308.531L376.637 312.284C377.433 312.519 378.277 312.52 379.068 312.287L385.271 310.48C388.268 309.598 389.339 308.844 389.482 307.131C389.98 301.2 389.939 296.58 390.124 290.849C390.225 287.728 390.474 280.547 390.479 280.079C390.49 278.635 389.712 277.881 388.974 276.657C387.274 273.838 386.115 270.688 385.611 267.439C385.462 266.471 385.364 265.485 385.044 264.56C384.759 263.727 381.815 259.083 380.734 257.562C379.856 256.327 373.992 253.208 372.558 253.248C370.98 253.291 360.149 255.117 357.853 255.687C355.556 256.256 348.16 263.162 344.123 266.41C341.627 268.415 339.13 270.428 336.634 272.433C334.468 274.173 331.943 275.259 332.016 278.459C332.094 282.209 332.379 285.945 332.859 289.661Z" fill="#B8D3E0" fill-opacity="0.7"/>
<path d="M336.632 272.44C339.128 270.435 341.625 268.423 344.121 266.417C345.42 265.37 347.07 263.946 348.784 262.473C348.386 264.773 347.517 267.73 347.12 270.031C347.033 270.527 346.95 271.041 347.096 271.527C347.253 272.043 347.644 272.444 348.028 272.824C349.277 274.075 350.304 275.621 351.552 276.871C348.773 277.707 342.503 279.864 342.117 280.267C341.689 280.712 341.489 281.33 341.302 281.928C339.948 286.293 339.241 290.316 338.913 294.877C338.874 295.414 338.838 295.968 339.008 296.484C339.166 296.969 339.492 297.376 339.811 297.769C340.599 298.752 342.693 301.53 344.509 303.997L342.644 302.761C338.457 299.971 333.982 297.234 333.164 291.81C333.055 291.091 332.953 290.375 332.864 289.658C332.38 285.945 332.098 282.211 332.017 278.471C331.937 275.269 334.466 274.18 336.632 272.44Z" fill="#70A7C2"/>
<path d="M389.489 307.058C389.313 308.059 388.137 308.564 386.363 308.163L379.772 306.35C379.364 306.238 379.02 305.96 378.831 305.579L374.309 296.719C374.156 296.423 374.106 296.092 374.163 295.768C374.632 293.166 375.004 281.747 376.518 280.873C378.028 280.001 384.11 284.439 385.436 283.63C385.663 283.492 386.818 282.726 387.779 281.688C388.678 280.722 389.983 281.997 390.38 283.205C390.298 285.671 390.183 288.98 390.124 290.849C389.937 296.557 389.978 301.165 389.489 307.058Z" fill="#DBE9F0" fill-opacity="0.7"/>
<path d="M360.359 301.294C362.022 300.645 367.629 298.579 368.808 298.407C371.113 298.074 374.607 300.31 376.691 301.396C376.691 301.396 373.837 295.584 372.199 293.616C371.059 292.246 365.481 284.864 363.389 283.53L351.552 276.871L347.896 290.881C347.586 292.071 347.339 292.746 347.689 293.977C348.487 296.79 349.454 301.062 350.682 303.199C351.909 305.336 357.74 302.323 360.359 301.294Z" fill="#94BDD1" fill-opacity="0.7"/>
<path d="M378.38 306.782C378.204 307.832 378.621 308.937 379.344 309.722C379.949 310.378 382.331 310.943 383.097 311.114L379.068 312.287C378.276 312.517 377.433 312.516 376.637 312.284L363.827 308.531C363.827 308.531 373.441 307.333 378.38 306.782Z" fill="#94BDD1" fill-opacity="0.7"/>
<path d="M385.606 267.441C385.986 269.88 386.724 272.252 387.796 274.479C384.107 274.172 381.264 272.651 376.687 274.519C375.474 275.015 373.611 275.805 372.345 276.145C370.777 276.567 368.931 276.275 366.783 277.261C365.252 277.959 361.656 280.178 361.729 279.032C361.802 277.886 364.12 274.322 364.547 273.176C365.163 271.561 365.532 269.867 365.84 268.164C365.998 267.273 365.915 265.38 366.568 264.476C366.734 264.243 366.957 264.078 367.238 264.014C367.728 263.899 368.241 264.012 368.736 264.117C373.533 265.129 378.443 265.431 383.311 265.015C383.83 264.97 384.394 264.929 384.832 265.222C385.024 265.353 385.203 265.578 385.361 265.84C385.453 266.37 385.523 266.906 385.606 267.441Z" fill="#DBE9F0" fill-opacity="0.7"/>
<path d="M385.039 264.563C385.154 264.899 385.239 265.247 385.307 265.599C385.071 265.369 384.726 265.165 384.195 265.093C382.667 264.885 377.868 265.975 371.093 264.585C366.671 263.678 366.465 263.332 364.185 260.835C360.453 256.746 357.837 255.988 357.358 255.88C357.539 255.8 357.703 255.736 357.849 255.702C360.147 255.125 370.976 253.306 372.555 253.263C373.988 253.223 379.852 256.341 380.73 257.576C381.81 259.086 384.754 263.729 385.039 264.563Z" fill="#70A7C2"/>
<path d="M246.859 429.661C246.952 430.382 247.053 431.099 247.159 431.813C247.982 437.234 252.457 439.971 256.649 442.758L262.723 446.791C263.945 447.605 265.366 448.062 266.817 448.117L277.827 448.531L290.637 452.284C291.433 452.519 292.277 452.52 293.068 452.287L299.271 450.48C302.269 449.598 303.339 448.844 303.482 447.131C303.981 441.2 303.939 436.58 304.124 430.849C304.226 427.728 304.474 420.547 304.479 420.079C304.49 418.635 303.712 417.881 302.975 416.657C301.274 413.838 300.115 410.688 299.611 407.439C299.462 406.471 299.364 405.485 299.044 404.56C298.759 403.727 295.815 399.083 294.734 397.562C293.856 396.327 287.992 393.208 286.558 393.248C284.98 393.291 274.149 395.117 271.853 395.687C269.556 396.256 262.16 403.162 258.123 406.41C255.627 408.415 253.13 410.428 250.634 412.433C248.468 414.173 245.943 415.259 246.016 418.459C246.094 422.209 246.379 425.945 246.859 429.661Z" fill="#B8D3E0" fill-opacity="0.7"/>
<path d="M250.632 412.44C253.128 410.435 255.625 408.423 258.121 406.417C259.42 405.37 261.07 403.946 262.784 402.473C262.386 404.773 261.517 407.73 261.12 410.031C261.033 410.527 260.95 411.041 261.096 411.527C261.253 412.043 261.644 412.444 262.028 412.824C263.277 414.075 264.304 415.621 265.552 416.871C262.773 417.707 256.503 419.864 256.117 420.267C255.689 420.712 255.489 421.33 255.302 421.928C253.948 426.293 253.241 430.316 252.913 434.877C252.874 435.414 252.838 435.968 253.008 436.484C253.166 436.969 253.492 437.376 253.811 437.769C254.599 438.752 256.693 441.53 258.509 443.997L256.644 442.761C252.457 439.971 247.982 437.234 247.164 431.81C247.055 431.091 246.953 430.375 246.864 429.658C246.38 425.945 246.098 422.211 246.017 418.471C245.937 415.269 248.466 414.18 250.632 412.44Z" fill="#70A7C2"/>
<path d="M303.489 447.058C303.314 448.059 302.137 448.564 300.363 448.163L293.772 446.35C293.364 446.238 293.02 445.96 292.831 445.579L288.309 436.719C288.156 436.423 288.106 436.092 288.163 435.768C288.632 433.166 289.004 421.747 290.518 420.873C292.029 420.001 298.11 424.439 299.436 423.63C299.663 423.492 300.818 422.726 301.779 421.688C302.678 420.722 303.983 421.997 304.381 423.205C304.299 425.671 304.183 428.98 304.124 430.849C303.937 436.557 303.978 441.165 303.489 447.058Z" fill="#DBE9F0" fill-opacity="0.7"/>
<path d="M274.359 441.294C276.022 440.645 281.629 438.579 282.808 438.407C285.113 438.074 288.608 440.31 290.691 441.396C290.691 441.396 287.837 435.584 286.199 433.616C285.059 432.246 279.481 424.864 277.389 423.53L265.552 416.871L261.897 430.881C261.586 432.071 261.34 432.746 261.689 433.977C262.487 436.79 263.454 441.062 264.682 443.199C265.909 445.336 271.74 442.323 274.359 441.294Z" fill="#94BDD1" fill-opacity="0.7"/>
<path d="M292.38 446.782C292.204 447.832 292.621 448.937 293.344 449.722C293.949 450.378 296.331 450.943 297.097 451.114L293.068 452.287C292.276 452.517 291.433 452.516 290.637 452.284L277.827 448.531C277.827 448.531 287.442 447.333 292.38 446.782Z" fill="#94BDD1" fill-opacity="0.7"/>
<path d="M299.606 407.441C299.986 409.88 300.725 412.252 301.796 414.479C298.107 414.172 295.264 412.651 290.687 414.519C289.474 415.015 287.611 415.805 286.345 416.145C284.777 416.567 282.931 416.275 280.783 417.261C279.252 417.959 275.656 420.178 275.729 419.032C275.802 417.886 278.12 414.322 278.547 413.176C279.164 411.561 279.532 409.867 279.84 408.164C279.998 407.273 279.915 405.38 280.568 404.476C280.734 404.243 280.957 404.078 281.238 404.014C281.728 403.899 282.241 404.012 282.736 404.117C287.533 405.129 292.443 405.431 297.312 405.015C297.83 404.97 298.394 404.929 298.832 405.222C299.024 405.353 299.203 405.578 299.361 405.84C299.453 406.37 299.523 406.906 299.606 407.441Z" fill="#DBE9F0" fill-opacity="0.7"/>
<path d="M299.04 404.563C299.154 404.899 299.239 405.247 299.307 405.599C299.071 405.369 298.726 405.165 298.195 405.093C296.667 404.885 291.868 405.975 285.093 404.585C280.671 403.678 280.465 403.332 278.185 400.835C274.453 396.746 271.837 395.988 271.358 395.88C271.539 395.8 271.703 395.736 271.849 395.702C274.147 395.125 284.976 393.306 286.555 393.263C287.988 393.223 293.852 396.341 294.731 397.576C295.81 399.086 298.754 403.729 299.04 404.563Z" fill="#70A7C2"/>
<path d="M201.859 644.661C201.952 645.382 202.053 646.099 202.159 646.813C202.982 652.234 207.457 654.971 211.649 657.758L217.723 661.791C218.945 662.605 220.366 663.062 221.817 663.117L232.827 663.531L245.637 667.284C246.433 667.519 247.277 667.52 248.068 667.287L254.271 665.48C257.269 664.598 258.339 663.844 258.482 662.131C258.981 656.2 258.939 651.58 259.124 645.849C259.226 642.728 259.474 635.547 259.479 635.079C259.49 633.635 258.712 632.881 257.975 631.657C256.274 628.838 255.115 625.688 254.611 622.439C254.462 621.471 254.364 620.485 254.044 619.56C253.759 618.727 250.815 614.083 249.734 612.562C248.856 611.327 242.992 608.208 241.558 608.248C239.98 608.291 229.149 610.117 226.853 610.687C224.556 611.256 217.16 618.162 213.123 621.41C210.627 623.415 208.13 625.428 205.634 627.433C203.468 629.173 200.943 630.259 201.016 633.459C201.094 637.209 201.379 640.945 201.859 644.661Z" fill="#B8D3E0" fill-opacity="0.7"/>
<path d="M205.632 627.44C208.128 625.435 210.625 623.423 213.121 621.417C214.42 620.37 216.07 618.946 217.784 617.473C217.386 619.773 216.517 622.73 216.12 625.031C216.033 625.527 215.95 626.041 216.096 626.527C216.253 627.043 216.644 627.444 217.028 627.824C218.277 629.075 219.304 630.621 220.552 631.871C217.773 632.707 211.503 634.864 211.117 635.267C210.689 635.712 210.489 636.33 210.302 636.928C208.948 641.293 208.241 645.316 207.913 649.877C207.874 650.414 207.838 650.968 208.008 651.484C208.166 651.969 208.492 652.376 208.811 652.769C209.599 653.752 211.693 656.53 213.509 658.997L211.644 657.761C207.457 654.971 202.982 652.234 202.164 646.81C202.055 646.091 201.953 645.375 201.864 644.658C201.38 640.945 201.098 637.211 201.017 633.471C200.937 630.269 203.466 629.18 205.632 627.44Z" fill="#70A7C2"/>
<path d="M258.489 662.058C258.314 663.059 257.137 663.564 255.363 663.163L248.772 661.35C248.364 661.238 248.02 660.96 247.831 660.579L243.309 651.719C243.156 651.423 243.106 651.092 243.163 650.768C243.632 648.166 244.004 636.747 245.518 635.872C247.029 635.001 253.11 639.439 254.436 638.63C254.663 638.492 255.818 637.726 256.779 636.688C257.678 635.722 258.983 636.997 259.381 638.205C259.299 640.671 259.183 643.98 259.124 645.849C258.937 651.557 258.978 656.164 258.489 662.058Z" fill="#DBE9F0" fill-opacity="0.7"/>
<path d="M229.359 656.294C231.022 655.645 236.629 653.579 237.808 653.407C240.113 653.074 243.608 655.31 245.691 656.396C245.691 656.396 242.837 650.584 241.199 648.616C240.059 647.246 234.481 639.864 232.389 638.53L220.552 631.871L216.897 645.881C216.586 647.071 216.34 647.746 216.689 648.977C217.487 651.79 218.454 656.062 219.682 658.199C220.909 660.336 226.74 657.323 229.359 656.294Z" fill="#94BDD1" fill-opacity="0.7"/>
<path d="M247.38 661.782C247.204 662.832 247.621 663.937 248.344 664.722C248.949 665.378 251.331 665.943 252.097 666.114L248.068 667.287C247.276 667.517 246.433 667.516 245.637 667.284L232.827 663.531C232.827 663.531 242.442 662.333 247.38 661.782Z" fill="#94BDD1" fill-opacity="0.7"/>
<path d="M254.606 622.441C254.986 624.88 255.725 627.252 256.796 629.479C253.107 629.172 250.264 627.651 245.687 629.519C244.474 630.015 242.611 630.805 241.345 631.145C239.777 631.567 237.931 631.275 235.783 632.261C234.252 632.959 230.656 635.178 230.729 634.032C230.802 632.886 233.12 629.322 233.547 628.176C234.164 626.561 234.532 624.867 234.84 623.164C234.998 622.273 234.915 620.38 235.568 619.476C235.734 619.243 235.957 619.078 236.238 619.014C236.728 618.899 237.241 619.012 237.736 619.117C242.533 620.129 247.443 620.431 252.312 620.015C252.83 619.97 253.394 619.929 253.832 620.222C254.024 620.353 254.203 620.578 254.361 620.84C254.453 621.37 254.523 621.906 254.606 622.441Z" fill="#DBE9F0" fill-opacity="0.7"/>
<path d="M254.04 619.563C254.154 619.899 254.239 620.247 254.307 620.599C254.071 620.369 253.726 620.165 253.195 620.094C251.667 619.885 246.868 620.975 240.093 619.585C235.671 618.678 235.465 618.332 233.185 615.835C229.453 611.746 226.837 610.988 226.358 610.88C226.539 610.8 226.703 610.736 226.849 610.701C229.147 610.125 239.976 608.306 241.555 608.263C242.988 608.223 248.852 611.341 249.731 612.576C250.81 614.086 253.754 618.729 254.04 619.563Z" fill="#70A7C2"/>
<path d="M391.536 675.881C391.257 675.207 390.988 674.533 390.725 673.859C388.738 668.729 391.23 664.101 393.454 659.57L396.678 653.012C397.327 651.69 398.322 650.579 399.545 649.802L408.818 643.912L417.981 634.214C418.549 633.61 419.275 633.185 420.072 632.99L426.311 631.447C429.33 630.708 430.626 630.827 431.601 632.245C434.978 637.154 437.238 641.194 440.247 646.086C441.886 648.75 445.669 654.872 445.906 655.277C446.633 656.528 446.338 657.575 446.311 659.01C446.248 662.316 446.817 665.639 447.997 668.718C448.351 669.635 448.756 670.542 448.941 671.507C449.109 672.375 448.883 677.893 448.709 679.76C448.567 681.275 445.068 686.933 443.814 687.618C442.434 688.374 432.201 692.225 429.941 692.883C427.681 693.541 417.881 691.248 412.791 690.45C409.645 689.959 406.494 689.463 403.349 688.972C400.62 688.546 397.906 688.87 396.378 686.049C394.581 682.748 392.969 679.355 391.536 675.881Z" fill="#B8D3E0" fill-opacity="0.7"/>
<path d="M403.344 688.967C406.489 689.458 409.64 689.954 412.786 690.445C414.424 690.704 416.553 691.114 418.76 691.534C417.275 689.733 415.056 687.597 413.571 685.795C413.249 685.407 412.922 685.002 412.807 684.506C412.685 683.978 412.822 683.433 412.965 682.91C413.418 681.194 413.534 679.334 413.987 677.618C411.178 678.287 404.708 679.56 404.176 679.404C403.586 679.231 403.107 678.794 402.648 678.368C399.313 675.25 396.705 672.106 394.155 668.303C393.854 667.855 393.549 667.392 393.438 666.858C393.333 666.356 393.412 665.838 393.491 665.336C393.681 664.085 394.102 660.617 394.439 657.559L393.449 659.57C391.23 664.101 388.738 668.729 390.73 673.859C390.993 674.538 391.262 675.213 391.541 675.881C392.971 679.354 394.584 682.745 396.373 686.038C397.896 688.864 400.614 688.541 403.344 688.967Z" fill="#70A7C2"/>
<path d="M431.643 632.305C430.995 631.523 429.73 631.674 428.402 632.914L423.629 637.801C423.334 638.103 423.176 638.518 423.202 638.944L423.713 648.923C423.729 649.257 423.85 649.57 424.061 649.824C425.758 651.852 431.754 661.599 433.492 661.599C435.226 661.599 438.255 654.684 439.799 654.721C440.063 654.727 441.438 654.813 442.781 655.234C444.035 655.622 444.525 653.858 444.267 652.607C442.971 650.503 441.227 647.682 440.247 646.086C437.249 641.215 434.994 637.186 431.643 632.305Z" fill="#DBE9F0" fill-opacity="0.7"/>
<path d="M409.429 651.949C411.184 651.679 417.038 650.66 418.139 650.218C420.288 649.349 422.185 645.649 423.439 643.659C423.439 643.659 423.871 650.147 423.439 652.683C423.139 654.446 422.006 663.67 420.868 665.881L413.987 677.618L403.876 667.267C403.017 666.388 402.469 665.924 402.158 664.678C401.447 661.831 400.156 657.629 400.151 655.153C400.145 652.677 406.663 652.37 409.429 651.949Z" fill="#94BDD1" fill-opacity="0.7"/>
<path d="M422.217 638.125C421.542 637.299 421.353 636.129 421.585 635.082C421.78 634.209 423.55 632.52 424.124 631.986L420.072 632.99C419.276 633.187 418.551 633.612 417.981 634.214L408.818 643.912C408.818 643.912 417.691 640.126 422.217 638.125Z" fill="#94BDD1" fill-opacity="0.7"/>
<path d="M447.992 668.718C447.108 666.406 446.564 663.972 446.38 661.496C443.356 663.616 441.664 666.367 436.796 667.041C435.505 667.219 433.508 667.467 432.249 667.807C430.689 668.228 429.246 669.409 426.906 669.63C425.241 669.792 421.042 669.668 421.674 670.628C422.306 671.588 426.074 673.524 427.012 674.306C428.345 675.401 429.504 676.691 430.615 678.017C431.195 678.713 432.064 680.402 433.076 680.86C433.334 680.979 433.608 681.011 433.882 680.925C434.362 680.779 434.746 680.423 435.12 680.083C438.748 676.794 442.825 674.064 447.223 671.982C447.692 671.761 448.198 671.512 448.43 671.038C448.53 670.827 448.572 670.542 448.577 670.234C448.393 669.727 448.187 669.225 447.992 668.718Z" fill="#DBE9F0" fill-opacity="0.7"/>
<path d="M448.935 671.507C448.867 671.156 448.767 670.811 448.651 670.471C448.561 670.79 448.366 671.14 447.945 671.469C446.733 672.419 442.059 673.88 436.917 678.492C433.561 681.502 433.555 681.906 432.834 685.224C431.653 690.655 429.778 692.629 429.419 692.964C429.614 692.942 429.788 692.915 429.93 692.872C432.196 692.219 442.423 688.363 443.803 687.608C445.057 686.923 448.556 681.265 448.698 679.749C448.877 677.893 449.104 672.375 448.935 671.507Z" fill="#70A7C2"/>
<path d="M361.536 571.881C361.257 571.207 360.988 570.533 360.725 569.859C358.738 564.729 361.23 560.101 363.454 555.57L366.678 549.012C367.327 547.69 368.322 546.579 369.545 545.802L378.818 539.912L387.981 530.214C388.549 529.61 389.275 529.185 390.072 528.99L396.311 527.447C399.33 526.708 400.626 526.827 401.601 528.245C404.978 533.154 407.238 537.194 410.247 542.086C411.886 544.75 415.669 550.872 415.906 551.277C416.633 552.528 416.338 553.575 416.311 555.01C416.248 558.316 416.817 561.639 417.997 564.718C418.351 565.635 418.756 566.542 418.941 567.507C419.109 568.375 418.883 573.893 418.709 575.76C418.567 577.275 415.068 582.933 413.814 583.618C412.434 584.374 402.201 588.225 399.941 588.883C397.681 589.541 387.881 587.248 382.791 586.45C379.645 585.959 376.494 585.463 373.349 584.972C370.62 584.546 367.906 584.87 366.378 582.049C364.581 578.748 362.969 575.355 361.536 571.881Z" fill="#B8D3E0" fill-opacity="0.7"/>
<path d="M373.344 584.967C376.489 585.458 379.64 585.954 382.786 586.445C384.424 586.704 386.553 587.114 388.76 587.534C387.275 585.733 385.056 583.597 383.571 581.795C383.249 581.407 382.922 581.002 382.807 580.506C382.685 579.978 382.822 579.433 382.965 578.91C383.418 577.194 383.534 575.334 383.987 573.618C381.178 574.287 374.708 575.56 374.176 575.404C373.586 575.231 373.107 574.794 372.648 574.368C369.313 571.25 366.705 568.106 364.155 564.303C363.854 563.855 363.549 563.392 363.438 562.858C363.333 562.356 363.412 561.838 363.491 561.336C363.681 560.085 364.102 556.617 364.439 553.559L363.449 555.57C361.23 560.101 358.738 564.729 360.73 569.859C360.993 570.538 361.262 571.213 361.541 571.881C362.971 575.354 364.584 578.745 366.373 582.038C367.896 584.864 370.614 584.541 373.344 584.967Z" fill="#70A7C2"/>
<path d="M401.643 528.305C400.995 527.523 399.73 527.674 398.402 528.914L393.629 533.801C393.334 534.103 393.176 534.518 393.202 534.944L393.713 544.923C393.729 545.257 393.85 545.57 394.061 545.824C395.758 547.852 401.754 557.599 403.492 557.599C405.226 557.599 408.255 550.684 409.799 550.721C410.063 550.727 411.438 550.813 412.781 551.234C414.035 551.622 414.525 549.858 414.267 548.607C412.971 546.503 411.227 543.682 410.247 542.086C407.249 537.215 404.994 533.186 401.643 528.305Z" fill="#DBE9F0" fill-opacity="0.7"/>
<path d="M379.429 547.949C381.184 547.679 387.038 546.66 388.139 546.218C390.288 545.349 392.185 541.649 393.439 539.659C393.439 539.659 393.871 546.147 393.439 548.683C393.139 550.446 392.006 559.67 390.868 561.881L383.987 573.618L373.876 563.267C373.017 562.388 372.469 561.924 372.158 560.678C371.447 557.831 370.156 553.629 370.151 551.153C370.145 548.677 376.663 548.37 379.429 547.949Z" fill="#94BDD1" fill-opacity="0.7"/>
<path d="M392.217 534.125C391.542 533.299 391.353 532.129 391.585 531.082C391.78 530.209 393.55 528.52 394.124 527.986L390.072 528.99C389.276 529.187 388.551 529.612 387.981 530.214L378.818 539.912C378.818 539.912 387.691 536.126 392.217 534.125Z" fill="#94BDD1" fill-opacity="0.7"/>
<path d="M417.992 564.718C417.108 562.406 416.564 559.972 416.38 557.496C413.356 559.616 411.664 562.367 406.796 563.041C405.505 563.219 403.508 563.467 402.249 563.807C400.689 564.228 399.246 565.409 396.906 565.63C395.241 565.792 391.042 565.668 391.674 566.628C392.306 567.588 396.074 569.524 397.012 570.306C398.345 571.401 399.504 572.691 400.615 574.017C401.195 574.713 402.064 576.402 403.076 576.86C403.334 576.979 403.608 577.011 403.882 576.925C404.362 576.779 404.746 576.423 405.12 576.083C408.748 572.794 412.825 570.064 417.223 567.982C417.692 567.761 418.198 567.512 418.43 567.038C418.53 566.827 418.572 566.542 418.577 566.234C418.393 565.727 418.187 565.225 417.992 564.718Z" fill="#DBE9F0" fill-opacity="0.7"/>
<path d="M418.935 567.507C418.867 567.156 418.767 566.811 418.651 566.471C418.561 566.79 418.366 567.14 417.945 567.469C416.733 568.419 412.059 569.88 406.917 574.492C403.561 577.502 403.555 577.906 402.834 581.224C401.653 586.655 399.778 588.629 399.419 588.964C399.614 588.942 399.788 588.915 399.93 588.872C402.196 588.219 412.423 584.363 413.803 583.608C415.057 582.923 418.556 577.265 418.698 575.749C418.877 573.893 419.104 568.375 418.935 567.507Z" fill="#70A7C2"/>
<path d="M480.562 184.881C480.278 184.207 480.005 183.533 479.737 182.859C477.717 177.729 480.251 173.101 482.512 168.57L485.792 162.012C486.451 160.69 487.463 159.579 488.707 158.802L498.137 152.912L507.455 143.214C508.033 142.61 508.771 142.185 509.582 141.99L515.926 140.447C518.996 139.708 520.315 139.827 521.306 141.245C524.74 146.154 527.039 150.194 530.099 155.086C531.765 157.75 535.612 163.872 535.853 164.277C536.593 165.528 536.293 166.575 536.266 168.01C536.202 171.316 536.78 174.639 537.981 177.718C538.34 178.635 538.752 179.542 538.94 180.507C539.111 181.375 538.881 186.893 538.704 188.76C538.559 190.275 535.001 195.933 533.726 196.618C532.322 197.374 521.917 201.225 519.618 201.883C517.319 202.541 507.353 200.248 502.177 199.45C498.978 198.959 495.774 198.463 492.575 197.972C489.8 197.546 487.04 197.87 485.486 195.049C483.659 191.748 482.02 188.355 480.562 184.881Z" fill="#B8D3E0" fill-opacity="0.7"/>
<path d="M492.57 197.967C495.769 198.458 498.973 198.954 502.172 199.445C503.838 199.704 506.003 200.114 508.248 200.534C506.737 198.733 504.481 196.597 502.97 194.795C502.643 194.407 502.311 194.002 502.193 193.506C502.07 192.978 502.209 192.433 502.354 191.91C502.815 190.194 502.933 188.333 503.393 186.618C500.537 187.287 493.958 188.56 493.416 188.404C492.816 188.231 492.329 187.794 491.863 187.368C488.471 184.25 485.818 181.106 483.225 177.303C482.92 176.855 482.609 176.392 482.496 175.858C482.389 175.356 482.47 174.838 482.55 174.336C482.743 173.085 483.172 169.617 483.514 166.559L482.507 168.57C480.251 173.101 477.717 177.729 479.742 182.859C480.01 183.538 480.283 184.213 480.567 184.881C482.021 188.354 483.661 191.745 485.481 195.038C487.029 197.864 489.794 197.541 492.57 197.967Z" fill="#70A7C2"/>
<path d="M521.349 141.305C520.69 140.523 519.404 140.674 518.053 141.914L513.199 146.801C512.899 147.103 512.738 147.518 512.765 147.944L513.285 157.923C513.301 158.257 513.424 158.57 513.638 158.824C515.364 160.852 521.461 170.599 523.229 170.599C524.992 170.599 528.073 163.684 529.643 163.721C529.911 163.727 531.31 163.813 532.676 164.234C533.951 164.622 534.449 162.858 534.187 161.607C532.869 159.503 531.095 156.682 530.099 155.086C527.05 150.215 524.757 146.186 521.349 141.305Z" fill="#DBE9F0" fill-opacity="0.7"/>
<path d="M498.759 160.949C500.543 160.679 506.496 159.66 507.616 159.218C509.802 158.349 511.731 154.649 513.006 152.659C513.006 152.659 513.445 159.147 513.006 161.683C512.701 163.446 511.549 172.67 510.391 174.881L503.393 186.618L493.111 176.267C492.238 175.388 491.68 174.924 491.364 173.678C490.641 170.831 489.328 166.629 489.323 164.153C489.317 161.677 495.945 161.37 498.759 160.949Z" fill="#94BDD1" fill-opacity="0.7"/>
<path d="M511.763 147.125C511.077 146.299 510.884 145.129 511.12 144.082C511.318 143.209 513.119 141.52 513.703 140.986L509.582 141.99C508.772 142.187 508.035 142.612 507.455 143.214L498.137 152.912C498.137 152.912 507.16 149.126 511.763 147.125Z" fill="#94BDD1" fill-opacity="0.7"/>
<path d="M537.975 177.718C537.076 175.406 536.523 172.972 536.336 170.496C533.26 172.616 531.54 175.367 526.589 176.041C525.276 176.219 523.245 176.467 521.965 176.807C520.379 177.228 518.911 178.409 516.532 178.63C514.838 178.792 510.568 178.668 511.211 179.628C511.854 180.588 515.685 182.524 516.639 183.306C517.994 184.401 519.173 185.691 520.304 187.017C520.893 187.713 521.777 189.401 522.806 189.86C523.069 189.979 523.347 190.011 523.626 189.925C524.114 189.779 524.505 189.423 524.885 189.083C528.574 185.794 532.72 183.064 537.193 180.982C537.67 180.761 538.184 180.512 538.42 180.038C538.522 179.827 538.565 179.542 538.57 179.234C538.382 178.727 538.173 178.225 537.975 177.718Z" fill="#DBE9F0" fill-opacity="0.7"/>
<path d="M538.934 180.507C538.865 180.156 538.763 179.811 538.645 179.471C538.554 179.79 538.356 180.14 537.927 180.469C536.695 181.419 531.942 182.88 526.712 187.492C523.299 190.502 523.294 190.906 522.56 194.224C521.359 199.655 519.452 201.629 519.088 201.964C519.286 201.942 519.463 201.915 519.607 201.872C521.911 201.219 532.312 197.363 533.715 196.608C534.991 195.923 538.549 190.264 538.693 188.749C538.875 186.893 539.106 181.375 538.934 180.507Z" fill="#70A7C2"/>
<path d="M569.562 246.881C569.278 246.207 569.005 245.533 568.737 244.859C566.717 239.729 569.251 235.101 571.513 230.57L574.792 224.012C575.451 222.69 576.463 221.579 577.707 220.802L587.137 214.912L596.455 205.214C597.033 204.61 597.771 204.185 598.582 203.99L604.926 202.447C607.996 201.708 609.315 201.827 610.306 203.245C613.74 208.154 616.039 212.194 619.099 217.086C620.765 219.75 624.612 225.872 624.853 226.277C625.593 227.528 625.293 228.575 625.266 230.01C625.202 233.316 625.78 236.639 626.981 239.718C627.34 240.635 627.752 241.542 627.94 242.507C628.111 243.375 627.881 248.893 627.704 250.76C627.559 252.275 624.001 257.933 622.726 258.618C621.322 259.374 610.917 263.225 608.618 263.883C606.319 264.541 596.353 262.248 591.177 261.45C587.978 260.959 584.774 260.463 581.575 259.972C578.8 259.546 576.04 259.87 574.486 257.049C572.659 253.748 571.02 250.355 569.562 246.881Z" fill="#B8D3E0" fill-opacity="0.7"/>
<path d="M581.57 259.967C584.769 260.458 587.973 260.954 591.172 261.445C592.838 261.704 595.003 262.114 597.248 262.534C595.737 260.733 593.481 258.597 591.97 256.795C591.643 256.407 591.311 256.002 591.193 255.506C591.07 254.978 591.209 254.433 591.354 253.91C591.815 252.194 591.933 250.333 592.393 248.618C589.537 249.287 582.958 250.56 582.416 250.404C581.816 250.231 581.329 249.794 580.863 249.368C577.471 246.25 574.819 243.106 572.225 239.303C571.92 238.855 571.609 238.392 571.496 237.858C571.389 237.356 571.47 236.838 571.55 236.336C571.743 235.085 572.172 231.617 572.514 228.559L571.507 230.57C569.251 235.101 566.717 239.729 568.742 244.859C569.01 245.538 569.283 246.213 569.567 246.881C571.021 250.354 572.661 253.745 574.481 257.038C576.029 259.864 578.794 259.541 581.57 259.967Z" fill="#70A7C2"/>
<path d="M610.349 203.305C609.69 202.523 608.404 202.674 607.053 203.914L602.199 208.801C601.899 209.103 601.738 209.518 601.765 209.944L602.285 219.923C602.301 220.257 602.424 220.57 602.638 220.824C604.364 222.852 610.461 232.599 612.229 232.599C613.992 232.599 617.073 225.684 618.643 225.721C618.911 225.727 620.31 225.813 621.676 226.234C622.951 226.622 623.449 224.858 623.187 223.607C621.869 221.503 620.095 218.682 619.099 217.086C616.05 212.215 613.757 208.186 610.349 203.305Z" fill="#DBE9F0" fill-opacity="0.7"/>
<path d="M587.759 222.949C589.543 222.679 595.496 221.66 596.616 221.218C598.802 220.349 600.731 216.649 602.006 214.659C602.006 214.659 602.445 221.147 602.006 223.683C601.701 225.446 600.549 234.67 599.391 236.881L592.393 248.618L582.111 238.267C581.238 237.388 580.68 236.924 580.364 235.678C579.641 232.831 578.328 228.629 578.323 226.153C578.317 223.677 584.945 223.37 587.759 222.949Z" fill="#94BDD1" fill-opacity="0.7"/>
<path d="M600.763 209.125C600.077 208.299 599.884 207.129 600.12 206.082C600.318 205.209 602.118 203.52 602.703 202.986L598.582 203.99C597.772 204.187 597.035 204.612 596.455 205.214L587.137 214.912C587.137 214.912 596.16 211.126 600.763 209.125Z" fill="#94BDD1" fill-opacity="0.7"/>
<path d="M626.975 239.718C626.076 237.406 625.523 234.972 625.336 232.496C622.26 234.616 620.54 237.367 615.589 238.041C614.276 238.219 612.245 238.467 610.965 238.807C609.379 239.228 607.911 240.409 605.532 240.63C603.838 240.792 599.568 240.668 600.211 241.628C600.854 242.588 604.685 244.524 605.639 245.306C606.994 246.401 608.173 247.691 609.304 249.017C609.893 249.713 610.777 251.401 611.806 251.86C612.069 251.979 612.347 252.011 612.626 251.925C613.114 251.779 613.505 251.423 613.885 251.083C617.574 247.794 621.72 245.064 626.193 242.982C626.67 242.761 627.184 242.512 627.42 242.038C627.522 241.827 627.565 241.542 627.57 241.234C627.382 240.727 627.173 240.225 626.975 239.718Z" fill="#DBE9F0" fill-opacity="0.7"/>
<path d="M627.934 242.507C627.865 242.156 627.763 241.811 627.645 241.471C627.554 241.79 627.356 242.14 626.927 242.469C625.695 243.419 620.942 244.88 615.712 249.492C612.299 252.502 612.294 252.906 611.56 256.224C610.359 261.655 608.452 263.629 608.088 263.964C608.286 263.942 608.463 263.915 608.607 263.872C610.911 263.219 621.312 259.363 622.715 258.608C623.991 257.923 627.549 252.264 627.693 250.749C627.875 248.893 628.106 243.375 627.934 242.507Z" fill="#70A7C2"/>
</svg>
