<svg xmlns="http://www.w3.org/2000/svg" xml:space="preserve" viewBox="0 0 500 500">
	<path fill="white" d="M496.111 389.569c-.146.051-14.798 4.975-30.353 4.975-23.851 0-36.087-11.206-36.369-33.229.281-22.099 12.52-33.304 36.371-33.304 15.515 0 30.205 4.923 30.352 4.974.297.102.604.151.908.154 1.637.064 2.979-1.293 2.979-2.928 0-.493-.122-.96-.338-1.368-.745-1.815-4.662-10.681-13.448-19.583-8.898-9.016-24.682-19.766-49.338-19.766-38.926 0-56.072 32.426-61.301 45.187H267.926v-52.522h54.456a5.612 5.612 0 0 0 5.612-5.612v-67.204c0-3.1-2.513-5.612-5.612-5.612H178.607a5.612 5.612 0 0 0-5.612 5.612v67.204a5.611 5.611 0 0 0 5.612 5.612h56.241v52.521H124.409c-5.23-12.76-22.379-45.188-61.304-45.188-24.655 0-40.438 10.75-49.337 19.767C4.124 319.033.348 328.758.192 329.168a2.931 2.931 0 0 0 3.679 3.816c.146-.049 14.838-4.974 30.351-4.974 23.853 0 36.09 11.205 36.372 33.228-.282 22.098-12.518 33.304-36.37 33.305-15.516.001-30.207-4.926-30.353-4.975a2.934 2.934 0 0 0-3.051.742 2.927 2.927 0 0 0-.628 3.075c.156.408 3.932 10.135 13.577 19.909 8.899 9.019 24.682 19.768 49.337 19.768 38.931 0 56.076-32.428 61.304-45.188h110.439v71.313a2.93 2.93 0 0 0 2.929 2.93h27.22a2.93 2.93 0 0 0 2.93-2.93v-71.313h107.647c5.227 12.761 22.373 45.188 61.303 45.188 24.656 0 40.439-10.749 49.338-19.768 9.646-9.774 13.421-19.501 13.577-19.909a2.931 2.931 0 0 0-3.682-3.816z"/>
	<path fill="white" d="M13.419 284.733a9.206 9.206 0 0 0 9.253-1.146c.202-.156 20.529-13.396 44.494-13.396 19.049 0 35.253 7.918 48.163 27.748a9.205 9.205 0 0 0 8.107 4.176 9.204 9.204 0 0 0 8.76-10.336c-1.833-30.457 5.501-72.672 31.594-100.493 19.979-21.301 48.611-32.101 85.103-32.101l.656.001.689-.002c37.103 0 66.043 10.801 86.022 32.101 32.056 34.176 31.538 83.763 30.617 98.148a9.206 9.206 0 0 0 16.901 5.611c12.479-19.169 28.043-25.686 46.261-25.686 24.464 0 45.992 13.905 46.191 14.067a9.2 9.2 0 0 0 9.337 1.354 9.204 9.204 0 0 0 5.627-7.572c.211-2.086 4.975-51.557-12.454-90.719a9.206 9.206 0 0 0-11.85-4.795l-2.958 1.191c-10.759 4.333-35.367 14.248-49.224 19.768-2.064-3.989-5.228-9.267-10.059-16.453a430.902 430.902 0 0 0-7.759-11.128c8.741-8.38 25.46-24.478 37.435-36.45a9.207 9.207 0 0 0 1.279-11.419c-29.025-46.04-66.22-67.86-92.312-78.061-28.475-11.132-50.116-11.261-51.023-11.261a9.203 9.203 0 0 0-9.12 7.958l-6.92 50.572h-53.355l-6.919-50.574a9.204 9.204 0 0 0-9.12-7.957c-.907 0-22.549.127-51.024 11.259C129.72 59.339 92.526 81.161 63.502 127.2a9.204 9.204 0 0 0 1.278 11.417c11.974 11.974 28.692 28.073 37.435 36.453a423.556 423.556 0 0 0-7.759 11.128c-4.832 7.186-7.994 12.464-10.059 16.453-14.345-5.714-40.211-16.138-50.16-20.147l-2.02-.814a9.206 9.206 0 0 0-11.851 4.796c-17.43 39.163-12.667 88.634-12.455 90.72a9.208 9.208 0 0 0 5.508 7.527zm20.52-82.497c16.224 6.536 45.954 18.499 52.528 21.027 2.83 1.089 8.254 2.413 12.496-8.09 4.242-10.503 12.662-22.184 22.8-35.621a9.206 9.206 0 0 0-.997-12.208c-.234-.225-21.298-20.302-37.664-36.472 20.475-30.076 46.901-51.687 78.644-64.282 15.681-6.222 29.116-8.686 37.144-9.661l6.832 49.937a9.206 9.206 0 0 0 9.121 7.956h69.418a9.206 9.206 0 0 0 9.121-7.956l6.832-49.94C320.518 59.402 375.53 71.542 416 130.877c-16.365 16.165-37.427 36.242-37.662 36.467a9.206 9.206 0 0 0-.997 12.208c10.139 13.434 18.956 26.224 22.801 35.621 3.844 9.397 9.663 9.181 12.496 8.09 6.586-2.531 36.181-14.441 52.528-21.026 7.031 20.343 8.364 42.976 8.328 57.597-10.624-5.773-26.192-8.883-43.455-8.883-12.574 0-29.205.297-45.102 14.432-2.008-24.508-9.744-59.5-35.249-86.691-23.599-25.16-57.059-37.917-99.451-37.917l-.692.002h-.652c-41.782 0-74.933 12.756-98.531 37.915-26.355 28.1-34.228 64.293-36.223 89.452-16.498-14.838-33.863-16.364-46.972-16.364-16.518 0-31.35 3.433-41.552 8.598-.072-14.6 1.206-37.544 8.324-58.142z"/>
</svg>