<svg xmlns="http://www.w3.org/2000/svg" width="180" height="140"><path fill="white" d="M113.068 0 75.687 38.506 65.112 73.114 72 87.754l8.017 3.701 13.03-21.958 4.437-1.439 24.248 10.704 7.956-5.182 1.756-17.42 4.484 21.38-4.171 5.646 1.481.654 2.057 2.59 2.683 13.691 21.982-26.619 5.49.092 8.795 11.391-3.712-20.827-11.802-41.074L113.069 0h-.001ZM36.84 4.78 25.244 25.552l-1.808 11.01 10.202-3.364 4.596 2.94.033.253L49.38 60.255l5.408-1.811 4.296 1.86 1.54 3.273 7.664-25.08-.421-13.29-15.767-.208-11.675-9.48 13.375 4.34 16.685-3.08 10.224 6.33L94.954 8.435c-1.09-.47-2.205-.94-3.37-1.404l-31.25 4.037-1.385-.1L36.84 4.781h.001Zm97.91 14.52 18.479 26.318.827 24.92-9.928-23.799-25.651-24.08 16.273-3.36ZM31.786 41.353 6.562 49.675 0 80.989l19.946 2.225.234-2.846 14.79-14.633-3.184-24.381v-.001Zm22.26 24.895-14.309 4.79-12.426 12.294 8.87 12.305 22.512.694 6.479-6.442-11.125-23.641Zm43.458 9.643L80.106 105.21l-.013 22.778 38.194 4.87 17.374-7.785-6.937-35.402-31.22-13.78Zm65.072 5.614-18.395 22.274.113.708 25.582 5.535 10.124-5.95-17.424-22.568Zm-54.342 6.334 15.406 9.106 5.266 20.194-10.532 9.503-17.677-1.017 15.143-11.259.975-15.639-8.581-10.887Zm-93.605 21.462-3.444 11.366L16.349 140l35.75-4.748.518-10.531-24.575-12.755-13.413-2.664v-.001Z"/></svg>