<svg width="118" height="40" viewBox="0 0 118 40" fill="none" xmlns="http://www.w3.org/2000/svg">
<path d="M20 34.5918C20 34.7007 20.2013 34.7959 20.6038 34.8776C21.0063 34.9592 21.6352 35 22.4906 35H28.7547C29.9497 35 30.7862 34.6871 31.2642 34.0613C31.7547 33.4354 32 32.6122 32 31.5918V31.2653C32 30.3538 31.8491 29.6666 31.5472 29.2041C31.2453 28.7279 30.8113 28.4014 30.2453 28.2245C29.6792 28.0476 28.9937 27.9592 28.1887 27.9592H24C23.4591 27.9592 23.0692 27.8503 22.8302 27.6327C22.6038 27.4014 22.4906 27.0613 22.4906 26.6123V26.2653C22.5031 25.8844 22.6101 25.5714 22.8113 25.3265C23.0126 25.068 23.4025 24.9387 23.9811 24.9387L24.1887 24.9592C26.1384 24.9592 27.6918 24.9865 28.8491 25.0408C30.0063 25.0817 30.7484 25.1224 31.0755 25.1632L31.4528 23.449C31.4528 23.3401 31.1887 23.238 30.6604 23.1428C30.1321 23.0476 29.4403 23 28.5849 23H23.4528C22.5723 23 21.8805 23.1565 21.3774 23.4694C20.8742 23.7687 20.5157 24.17 20.3019 24.6735C20.1006 25.1769 20 25.7279 20 26.3265V26.6531C20 27.8096 20.2893 28.6462 20.8679 29.1632C21.4465 29.6666 22.3711 29.9183 23.6415 29.9183H28.0189C28.6478 29.9183 29.0503 30.0204 29.2264 30.2245C29.4151 30.4286 29.5094 30.7687 29.5094 31.2449V31.6531C29.5094 32.1565 29.3962 32.517 29.1698 32.7347C28.9434 32.9387 28.5597 33.0408 28.0189 33.0408H27.6604C25.6478 33.0408 24.0629 33.0204 22.9057 32.9796C21.761 32.9252 21.044 32.8707 20.7547 32.8163L20 34.5918Z" fill="white" />
<path d="M35 35L40.2455 23H43.7724L49 35H46.243L42 25L37.6138 35H35Z" fill="white" />
<path d="M52 35V23H54V33H64V35H52Z" fill="white" />
<path d="M72.5872 35L72.5658 24.9558H67V23H81V24.9558H75.4128V35H72.5872Z" fill="white" />
<path d="M89.6741 35V30.0204L84 23H87.1198L91 28L94.8802 23H98L92.2479 30.1021V35H89.6741Z" fill="white" />
<path d="M16.3881 8.80811H21.49C21.9121 8.82178 22.2257 8.7063 22.4307 8.46179C22.6357 8.20374 22.7383 7.88452 22.7383 7.50427V7.30054C22.7383 6.98816 22.6418 6.68933 22.4488 6.40405C22.2558 6.10522 21.894 5.95581 21.3633 5.95581H16.3881V8.80811Z" fill="white" />
<path d="M22.087 14.0442H16.3881V10.8048H21.689C22.3282 10.8048 22.7865 10.9406 23.0639 11.2123C23.3413 11.4703 23.48 11.8098 23.48 12.231V12.5977C23.48 13.0459 23.3594 13.3989 23.1182 13.6571C22.889 13.9152 22.5453 14.0442 22.087 14.0442Z" fill="white" />
<path d="M69.904 14.0408H64.9514C64.4315 14.0408 64.0171 13.9183 63.708 13.6735C63.4129 13.4149 63.2654 13.0544 63.2654 12.5918V7.3877C63.2654 6.95239 63.4199 6.60547 63.729 6.34692C64.0381 6.08838 64.4456 5.95923 64.9514 5.95923H69.904C70.4098 5.95923 70.8102 6.10205 71.1052 6.3877C71.4003 6.65991 71.5478 6.99316 71.5478 7.3877V12.5918C71.5478 13.0408 71.4003 13.3945 71.1052 13.6531C70.8242 13.9116 70.4238 14.0408 69.904 14.0408Z" fill="white" />
<path d="M100.201 14.0408H94.52V5.95923H100.201C100.731 5.95923 101.099 6.10205 101.304 6.3877C101.509 6.65991 101.612 6.99316 101.612 7.3877V12.5918C101.6 13.5579 101.129 14.0408 100.201 14.0408Z" fill="white" />
<path fill-rule="evenodd" clip-rule="evenodd" d="M114 0H4L8 10L4 20H13V40H105V20H114L110 10L114 0ZM15 20H103V38H15V20ZM14 16H22.5935C23.281 16 23.8358 15.8981 24.258 15.6943C24.6922 15.4907 25.0239 15.2258 25.253 14.8998C25.4942 14.5603 25.6571 14.1868 25.7415 13.7793C25.8259 13.3718 25.8681 12.9644 25.8681 12.5569V12.1902C25.8681 11.4296 25.7113 10.8184 25.3978 10.3566C25.0842 9.8811 24.662 9.54834 24.1313 9.35828C24.3726 9.20886 24.5957 8.95752 24.8007 8.60437C25.0178 8.23767 25.1264 7.77588 25.1264 7.21899V6.60779C25.1264 5.88794 24.8671 5.27673 24.3484 4.77417C23.8298 4.25806 23.0036 4 21.8699 4H14V16ZM28.8352 14.0442V16H40.7033V14L28.8352 14.0442ZM28.8352 9.13757V11.073L40.7033 11.0288V9L28.8352 9.13757ZM28.8352 4V6.02039L40.7033 5.9762V4H28.8352ZM49.2821 16V11.0204L43.6703 4H46.7558L50.5934 9L54.431 4H57.5165L51.8276 11.1021V16H49.2821ZM62.022 15.5918C62.584 15.8639 63.3567 16 64.3402 16H70.4941C71.9552 16 72.9598 15.6938 73.5078 15.0817C74.0557 14.4558 74.3297 13.5442 74.3297 12.3469V7.63269C74.3297 6.84351 74.2103 6.18372 73.9714 5.65308C73.7466 5.10889 73.3532 4.70068 72.7912 4.42859C72.2433 4.14282 71.4775 4 70.4941 4H64.3402C63.3427 4 62.5629 4.14282 62.0009 4.42859C61.4389 4.70068 61.0455 5.10889 60.8207 5.65308C60.5959 6.18372 60.4835 6.84351 60.4835 7.63269V12.3469C60.4835 13.1497 60.5959 13.8231 60.8207 14.3673C61.0596 14.9116 61.46 15.3197 62.022 15.5918ZM77.2967 4H79.721L85.8721 11.2653L86.5777 12.3673H86.7767V4H89.1648V16H86.8672L80.5713 8.6123L79.8657 7.65308H79.6848V16H77.2967V4ZM92.1319 16H100.345C101.335 16 102.088 15.8639 102.607 15.5918C103.138 15.3197 103.499 14.9183 103.692 14.3877C103.897 13.8435 104 13.1632 104 12.3469V7.63269C104 6.82996 103.897 6.16321 103.692 5.63269C103.487 5.08838 103.12 4.6803 102.589 4.4082C102.07 4.13611 101.322 4 100.345 4H92.1319V16Z" fill="white" />
<path fill-rule="evenodd" clip-rule="evenodd" d="M11 22H0L3.05556 27H0L8 40V35.0909L11 40V22ZM3.66667 28L7 33.4546V36.4669L1.78957 28H3.66667ZM9 24H4L9 32V24Z" fill="white" />
<path fill-rule="evenodd" clip-rule="evenodd" d="M107 22H118L114.944 27H118L110 40V35.0909L107 40V22ZM114.333 28L111 33.4546V36.4669L116.21 28H114.333ZM109 24H114L109 32V24Z" fill="white" />
<path d="M2 20H0L4 10L0 0H2L6 10L2 20Z" fill="white" />
<path d="M116 20H118L114 10L118 0H116L112 10L116 20Z" fill="white" />
<path d="M0 15V5L2 10L0 15Z" fill="white" />
<path d="M116 10L118 5V15L116 10Z" fill="white" />
</svg>
