<svg width="800" height="720" viewBox="0 0 800 720" fill="none" xmlns="http://www.w3.org/2000/svg">
<path fill-rule="evenodd" clip-rule="evenodd" d="M720 544.004L112.16 422.441C93.44 418.681 80 402.283 80 383.203V336.797C80 317.717 93.44 301.319 112.16 297.559L720 175.996V544.004ZM320 574.473C320 599.793 296.76 618.753 271.92 613.633L191.92 597.207C173.36 593.367 160 577.008 160 558.008V511.992L320 544.004V574.473ZM720 40V95.9961L64.3201 227.129C26.9201 234.609 0 267.445 0 305.605V414.395C0 452.555 26.9201 485.391 64.3201 492.871L80 495.996V588.965C80 626.925 106.68 659.644 143.88 667.324L303.88 700.234C353.52 710.434 400 672.515 400 621.875V560L720 624.004V680C720 702.08 737.92 720 760 720C782.08 720 800 702.08 800 680V40C800 17.92 782.08 0 760 0C737.92 0 720 17.92 720 40Z" fill="white"/>
</svg>
