<svg width="72" height="22" viewBox="0 0 72 22" fill="none" xmlns="http://www.w3.org/2000/svg">
<path d="M26.9897 17.0153C26.3591 17.0153 25.9206 16.3936 26.1374 15.8066C26.4286 15.0184 27.5538 15.0198 27.8429 15.8088C28.0578 16.3954 27.6194 17.0153 26.9897 17.0153Z" fill="white"/>
<path fill-rule="evenodd" clip-rule="evenodd" d="M11.5129 6.07531C11.3067 5.91132 11.2795 5.51504 11.4545 5.31807C11.5883 5.16746 11.6989 4.9931 11.7865 4.79498C11.9787 4.36541 12.0749 3.81311 12.0749 3.13807V2.9205C12.0749 0.973501 11.2171 0 9.50156 0H5C4.44772 0 4 0.447716 4 1V10.3414C1.66962 11.1651 0 13.3876 0 16C0 19.3137 2.68629 22 6 22H66C69.3137 22 72 19.3137 72 16C72 13.1893 70.0674 10.83 67.4585 10.1785C67.5653 9.97767 67.6571 9.76196 67.7338 9.53138C67.9113 9.01255 68 8.43515 68 7.79916V4.20084C68 3.56485 67.9113 2.98745 67.7338 2.46862C67.5613 1.94979 67.3123 1.50907 66.9869 1.14644C66.6665 0.778242 66.2771 0.496513 65.8186 0.301254C65.3651 0.100418 64.8548 0 64.2879 0H59.8973C59.345 0 58.8973 0.447716 58.8973 1V10H56.1761V0.757942C56.1761 0.339342 55.8367 0 55.4181 0C54.9995 0 54.6602 0.339342 54.6602 0.757942V6.07603C54.6602 7.05895 53.3907 7.45207 52.8352 6.64115L48.5818 0.431681C48.3967 0.161512 48.0903 0 47.7628 0C47.2146 0 46.7702 0.444424 46.7702 0.992645V10H44.0416V1.71548C44.0416 1.48117 44.0022 1.26081 43.9233 1.05439C43.8444 0.8424 43.736 0.661087 43.5979 0.51046C43.4599 0.354254 43.2972 0.23152 43.1099 0.14226C42.9275 0.0474205 42.7328 0 42.5257 0H36.4696C36.2625 0 36.0653 0.0474205 35.878 0.14226C35.6956 0.23152 35.5354 0.354254 35.3973 0.51046C35.2593 0.661087 35.1509 0.8424 35.072 1.05439C34.9931 1.26081 34.9537 1.48117 34.9537 1.71548V10H29.1933V7.50143C29.1933 7.32907 29.2379 7.15963 29.3226 7.00956L32.6387 1.13953C32.9264 0.630341 32.5585 0 31.9737 0C31.6954 0 31.4391 0.151352 31.3048 0.395061L29.3084 4.01628C28.928 4.70629 27.9362 4.70579 27.5565 4.01539L25.5657 0.39562C25.4315 0.151606 25.1751 0 24.8966 0C24.312 0 23.9442 0.630154 24.2318 1.13919L27.5481 7.00956C27.6329 7.15963 27.6774 7.32907 27.6774 7.50143V10H16.4654C16.2795 9.81841 16.1641 9.56495 16.1641 9.28452V7.86193C16.1641 7.30964 16.6118 6.86193 17.1641 6.86193H20.6082C21.082 6.86193 21.466 6.4779 21.466 6.00418C21.466 5.53047 21.082 5.14644 20.6082 5.14644H17.1641C16.6118 5.14644 16.1641 4.69873 16.1641 4.14644V2.71548C16.1641 2.1632 16.6118 1.71548 17.1641 1.71548H21.5178C21.9915 1.71548 22.3755 1.33146 22.3755 0.85774C22.3755 0.384024 21.9915 0 21.5178 0H15.6482C15.0959 0 14.6482 0.447716 14.6482 1V10H12.3026C12.3529 9.72443 12.378 9.42039 12.378 9.08787V8.48536C12.378 8.08926 12.3435 7.7378 12.2745 7.43096C12.2055 7.12413 12.1069 6.85913 11.9787 6.63598C11.8506 6.40725 11.6953 6.22036 11.5129 6.07531ZM10.6255 10C10.803 9.78801 10.8917 9.45607 10.8917 9.00418V8.07531C10.8917 7.61785 10.803 7.28591 10.6255 7.0795C10.4481 6.87308 10.1597 6.76987 9.76037 6.76987H6.48631C5.93402 6.76987 5.48631 7.21759 5.48631 7.76987V9.31799C5.48631 9.58392 5.59011 9.8256 5.75941 10.0047C5.83921 10.0016 5.91942 10 6 10H10.6255ZM14.1911 12C14.0428 12 13.9017 12.0316 13.7676 12.0948C13.637 12.1543 13.5223 12.2362 13.4235 12.3403C13.3247 12.4407 13.247 12.5616 13.1906 12.7029C13.1341 12.8405 13.1059 12.9874 13.1059 13.1437V15.431C13.1059 15.5872 13.1341 15.7359 13.1906 15.8773C13.247 16.0149 13.3247 16.1357 13.4235 16.2399C13.5223 16.3403 13.637 16.4221 13.7676 16.4854C13.9017 16.5449 14.0428 16.5746 14.1911 16.5746H16.8665C17.4237 16.5746 17.8754 17.0223 17.8754 17.5746V17.8563C17.8754 18.4086 17.4237 18.8563 16.8665 18.8563H14.6031C14.317 18.8563 14.0852 18.6266 14.0852 18.3431C14.0852 18.0596 13.8533 17.8298 13.5673 17.8298H13.5426C13.2429 17.8298 13 18.0706 13 18.3676V18.8563C13 19.0126 13.0282 19.1613 13.0847 19.3027C13.1412 19.4403 13.2188 19.5611 13.3176 19.6653C13.4164 19.7694 13.5311 19.8512 13.6617 19.9107C13.7958 19.9702 13.937 20 14.0852 20H17.8754C18.0237 20 18.1631 19.9702 18.2936 19.9107C18.4277 19.8512 18.5442 19.7694 18.643 19.6653C18.7418 19.5611 18.8195 19.4403 18.8759 19.3027C18.9324 19.1613 18.9606 19.0126 18.9606 18.8563V16.5746C18.9606 16.4184 18.9324 16.2715 18.8759 16.1339C18.8195 15.9926 18.7418 15.8698 18.643 15.7657C18.5442 15.6616 18.4277 15.5797 18.2936 15.5202C18.1631 15.4607 18.0237 15.431 17.8754 15.431H15.2C14.6428 15.431 14.1911 14.9832 14.1911 14.431V14.1437C14.1911 13.5914 14.6428 13.1437 15.2 13.1437H17.3548C17.6423 13.1437 17.8754 13.3747 17.8754 13.6597C17.8754 13.9447 18.1086 14.1757 18.3961 14.1757H18.418C18.7177 14.1757 18.9606 13.935 18.9606 13.638V13.1437C18.9606 12.9874 18.9324 12.8405 18.8759 12.7029C18.8195 12.5616 18.7418 12.4407 18.643 12.3403C18.5442 12.2362 18.4277 12.1543 18.2936 12.0948C18.1631 12.0316 18.0237 12 17.8754 12H14.1911ZM42.2243 10H36.7709C36.585 9.81841 36.4696 9.56495 36.4696 9.28452V2.71548C36.4696 2.1632 36.9173 1.71548 37.4696 1.71548H41.5257C42.078 1.71548 42.5257 2.1632 42.5257 2.71548V9.28452C42.5257 9.56495 42.4103 9.81841 42.2243 10ZM48.2861 10V5.92397C48.2861 4.94105 49.5556 4.54793 50.1111 5.35885L53.2902 10H48.2861ZM43.1801 12C42.8614 12 42.6031 12.256 42.6031 12.5718C42.6031 12.8876 42.8614 13.1437 43.1801 13.1437H44.0875C44.6447 13.1437 45.0964 13.5914 45.0964 14.1437V19.4622C45.0964 19.7592 45.3394 20 45.639 20C45.9387 20 46.1816 19.7592 46.1816 19.4622V14.1437C46.1816 13.5914 46.6334 13.1437 47.1906 13.1437H48.098C48.4166 13.1437 48.6749 12.8876 48.6749 12.5718C48.6749 12.256 48.4166 12 48.098 12H43.1801ZM65.4777 10H60.7145C60.5286 9.81841 60.4132 9.56495 60.4132 9.28452V2.71548C60.4132 2.1632 60.8609 1.71548 61.4132 1.71548H64.2879C64.633 1.71548 64.9411 1.77127 65.2122 1.88284C65.4834 1.99442 65.7126 2.159 65.8999 2.37657C66.0922 2.58856 66.2376 2.84798 66.3362 3.15481C66.4348 3.46165 66.4841 3.81032 66.4841 4.20084V7.79916C66.4841 8.59693 66.2943 9.2106 65.9147 9.64017C65.7874 9.78429 65.6417 9.90423 65.4777 10ZM5.48631 2.68201C5.48631 2.12972 5.93402 1.68201 6.48631 1.68201H9.45719C9.8565 1.68201 10.1449 1.78801 10.3224 2C10.4998 2.21199 10.5886 2.54672 10.5886 3.00418V3.79079C10.5886 4.22594 10.5072 4.54951 10.3445 4.76151C10.1868 4.96792 9.92552 5.0795 9.56072 5.09623H6.48631C5.93402 5.09623 5.48631 4.64852 5.48631 4.09623V2.68201ZM27.7182 12.5056C27.6071 12.2021 27.3163 12 26.9906 12C26.6649 12 26.374 12.2021 26.263 12.5056L23.7686 19.3222C23.648 19.6518 23.8943 20 24.248 20C24.4627 20 24.6545 19.8667 24.7275 19.6666L25.0372 18.8187C25.1818 18.4227 25.5611 18.159 25.9859 18.159H27.9952C28.4201 18.159 28.7994 18.4227 28.944 18.8187L29.2536 19.6666C29.3267 19.8667 29.5184 20 29.7331 20C30.0869 20 30.3331 19.6518 30.2126 19.3222L27.7182 12.5056ZM35.5578 12C35.8575 12 36.1004 12.2408 36.1004 12.5378V17.8563C36.1004 18.4086 36.5521 18.8563 37.1094 18.8563H39.4249C39.7435 18.8563 40.0018 19.1124 40.0018 19.4282C40.0018 19.744 39.7435 20 39.4249 20H36.0242C35.4669 20 35.0152 19.5523 35.0152 19V12.5378C35.0152 12.2408 35.2581 12 35.5578 12ZM53.424 12C53.6151 12 53.7918 12.1004 53.8883 12.2639L55.0702 14.2651C55.4596 14.9245 56.4211 14.925 56.8112 14.266L57.9967 12.2635C58.0933 12.1003 58.27 12 58.4609 12C58.8795 12 59.1379 12.4528 58.9222 12.8083L56.6294 16.5879C56.535 16.7435 56.4852 16.9216 56.4852 17.1031V19.4622C56.4852 19.7592 56.2422 20 55.9426 20C55.6429 20 55.4 19.7592 55.4 19.4622V17.1031C55.4 16.9216 55.3501 16.7435 55.2557 16.5879L52.9628 12.8081C52.7472 12.4526 53.0055 12 53.424 12Z" fill="white"/>
</svg>
